<?xml version="1.0" standalone="no"?>
<!DOCTYPE svg PUBLIC "-//W3C//DTD SVG 1.1//EN" "http://www.w3.org/Graphics/SVG/1.1/DTD/svg11.dtd" >
<svg xmlns="http://www.w3.org/2000/svg" xmlns:xlink="http://www.w3.org/1999/xlink" version="1.1">
<metadata>
Created by FontForge 20161003 at Fri Apr 20 10:51:12 2018
 By www-data
Copyright 1990-1999 as an unpublished work by Bitstream Inc.  All rights reserved.  Confidential.
</metadata>
<defs>
<font id="9211" horiz-adv-x="278" >
  <font-face 
    font-family="9211"
    font-weight="500"
    font-stretch="normal"
    units-per-em="1000"
    panose-1="0 0 0 0 0 0 0 0 0 0"
    ascent="800"
    descent="-200"
    x-height="525"
    cap-height="764"
    bbox="-167 -323 1207 1068"
    underline-thickness="63"
    underline-position="-202"
    unicode-range="U+0020-FB04"
  />
<missing-glyph 
 />
    <glyph glyph-name="uniFB01" unicode="fi" horiz-adv-x="537" 
d="M277 764v-87h-4q-51 0 -67 -20q-15 -19 -15 -71v-61h86v-78h-86v-447h-90v447h-80v78h80v57q0 95 40.5 137.5t135.5 44.5zM348 700q0 26 19 45t45 19q27 0 45.5 -18.5t18.5 -45.5q0 -26 -19 -44.5t-45 -18.5t-45 18.5t-19 44.5zM458 525v-525h-92v525h92z" />
    <glyph glyph-name="uniFB02" unicode="fl" horiz-adv-x="537" 
d="M277 764v-87h-4q-51 0 -67 -20q-15 -19 -15 -71v-61h86v-78h-86v-447h-90v447h-80v78h80v57q0 95 40.5 137.5t135.5 44.5zM458 759v-759h-92v759h92z" />
    <glyph glyph-name=".notdef" 
 />
    <glyph glyph-name=".null" horiz-adv-x="0" 
 />
    <glyph glyph-name="nonmarkingreturn" horiz-adv-x="333" 
 />
    <glyph glyph-name="space" unicode=" " 
 />
    <glyph glyph-name="exclam" unicode="!" 
d="M187 759v-583h-97v583h97zM75 51q0 26 19 44.5t45 18.5q27 0 45.5 -18t18.5 -45q0 -26 -19 -45t-45 -19t-45 19t-19 45z" />
    <glyph glyph-name="quotedbl" unicode="&#x22;" horiz-adv-x="314" 
d="M122 429h-80v272h80v-272zM273 429h-80v272h80v-272z" />
    <glyph glyph-name="numbersign" unicode="#" horiz-adv-x="769" 
d="M129 500h154l76 213h93l-75 -213h122l76 213h93l-75 -213h142l-29 -84h-143l-44 -123h151l-30 -84h-150l-76 -212h-93l76 212h-123l-77 -212h-93l76 212h-146l30 84h145l44 123h-154zM427 292l44 124h-125l-44 -124h125z" />
    <glyph glyph-name="dollar" unicode="$" horiz-adv-x="556" 
d="M58 213l88 4q2 -113 105 -132v250q-97 31 -140.5 80t-43.5 129q0 85 48 134.5t136 56.5v75h51v-76q85 -10 132.5 -64t52.5 -148h-88q-13 117 -97 134v-244q100 -32 148 -84t48 -130q0 -80 -51.5 -133t-144.5 -64v-91h-51v91q-85 10 -135 64.5t-58 147.5zM251 430v228
q-46 -6 -73 -36.5t-27 -78.5q0 -44 23.5 -69.5t76.5 -43.5zM302 318v-235q50 5 78.5 34.5t28.5 75.5q0 89 -107 125z" />
    <glyph glyph-name="percent" unicode="%" horiz-adv-x="875" 
d="M49 517v89q0 63 42 102q41 38 110 38t108 -38t39 -105v-86q0 -63 -41.5 -101t-108.5 -38t-108 38t-41 101zM299 -9h-75l354 755h75zM131 578v-34q0 -97 67 -97q68 0 68 97v34q0 97 -68 97q-67 0 -67 -97zM530 130v89q0 62 42 101q43 38 111 38q69 0 108 -37.5t39 -104.5
v-86q0 -63 -41.5 -101t-108.5 -38t-108.5 38t-41.5 101zM612 190v-33q0 -97 68 -97q67 0 67 97v33q0 97 -67 97q-68 0 -68 -97z" />
    <glyph glyph-name="ampersand" unicode="&#x26;" horiz-adv-x="685" 
d="M539 181l134 -181h-119l-80 116q-65 -65 -121.5 -95.5t-118.5 -30.5q-91 0 -147 61q-59 62 -59 151q0 78 51 137t162 118q-62 80 -62 139q0 65 43 108q41 41 106 41q67 0 108 -41q42 -42 42 -105q0 -92 -109 -165l122 -182l114 104l60 -67zM316 501q75 41 75 104
q0 29 -17 46.5t-44 17.5q-28 0 -44.5 -18t-16.5 -48q0 -40 47 -102zM427 190l-138 196q-88 -51 -127.5 -93.5t-39.5 -95.5q0 -45 32 -79q33 -35 79 -35q75 0 194 107z" />
    <glyph glyph-name="quotesingle" unicode="'" horiz-adv-x="163" 
d="M122 429h-80v272h80v-272z" />
    <glyph glyph-name="parenleft" unicode="(" horiz-adv-x="398" 
d="M341 -170l-70 -52q-180 221 -180 500q0 280 180 501l70 -52q-155 -202 -155 -449q0 -246 155 -448z" />
    <glyph glyph-name="parenright" unicode=")" horiz-adv-x="398" 
d="M127 -222l-70 52q155 202 155 448q0 247 -155 449l70 52q180 -221 180 -501q0 -279 -180 -500z" />
    <glyph glyph-name="asterisk" unicode="*" horiz-adv-x="500" 
d="M413 434l-82 -61l-81 157l-81 -157l-82 61l124 125l-173 29l32 96l156 -80l-23 175h94l-23 -175l156 80l32 -96l-173 -29z" />
    <glyph glyph-name="plus" unicode="+" horiz-adv-x="833" 
d="M124 339h251v257h83v-257h251v-81h-251v-258h-83v258h-251v81z" />
    <glyph glyph-name="comma" unicode="," 
d="M84 -168l-61 30l95 267l91 -43z" />
    <glyph glyph-name="hyphen" unicode="-" horiz-adv-x="319" 
d="M280 304v-83h-241v83h241z" />
    <glyph glyph-name="period" unicode="." 
d="M75 51q0 26 19 44.5t45 18.5q27 0 45.5 -18t18.5 -45q0 -26 -19 -45t-45 -19t-45 19t-19 45z" />
    <glyph glyph-name="slash" unicode="/" 
d="M57 -93h-73l236 872h74z" />
    <glyph glyph-name="zero" unicode="0" horiz-adv-x="556" 
d="M498 509v-286q0 -105 -62 -169q-63 -63 -158 -63q-96 0 -157 63q-63 63 -63 169v291q0 106 63 169q61 63 157 63q106 0 163 -61t57 -176zM405 254v228q0 183 -127 183q-128 0 -128 -183v-228q0 -182 128 -182q127 0 127 182z" />
    <glyph glyph-name="one" unicode="1" horiz-adv-x="556" 
d="M351 746v-746h-93v601l-140 -79v93z" />
    <glyph glyph-name="two" unicode="2" horiz-adv-x="556" 
d="M477 93v-93h-425l302 450q46 67 46 112t-30.5 72.5t-81.5 27.5q-54 0 -86.5 -31.5t-32.5 -85.5v-4h-96q0 92 59 149q57 55 153 55t151.5 -48t55.5 -129q0 -43 -15.5 -80.5t-48.5 -87.5l-210 -307h259z" />
    <glyph glyph-name="three" unicode="3" horiz-adv-x="556" 
d="M42 120l81 45q49 -93 137 -93q68 0 113 45t45 111q0 69 -45 114q-46 44 -116 44q-64 0 -125 -46l-17 11l221 302l-255 -5v88h409l-195 -280q94 -1 156 -63q59 -59 59 -156q0 -108 -70 -176q-70 -70 -178 -70q-148 0 -220 129z" />
    <glyph glyph-name="four" unicode="4" horiz-adv-x="556" 
d="M429 178v-178h-84v178h-302v43l367 524h19v-483h78v-84h-78zM348 259v276l-186 -276h186z" />
    <glyph glyph-name="five" unicode="5" horiz-adv-x="556" 
d="M53 121l72 49q54 -98 145 -98q63 0 106 45q41 44 41 114q0 66 -43 111q-44 44 -108 44q-90 0 -153 -64l-12 9v405h354v-88h-270v-202q48 21 97 21q104 0 164 -65q64 -69 64 -171q0 -105 -67 -172q-68 -68 -172 -68q-142 0 -218 130z" />
    <glyph glyph-name="six" unicode="6" horiz-adv-x="556" 
d="M123 400l214 336h108l-201 -299q34 6 58 6q90 0 152 -62q61 -63 61 -157q0 -79 -44 -141q-33 -46 -89 -71q-46 -21 -97 -21q-102 0 -163 61q-63 61 -63 159q0 88 64 189zM285 72q60 0 98.5 41t38.5 103q0 69 -36.5 107t-99.5 38q-59 0 -96 -40q-39 -44 -39 -107
q0 -66 35.5 -104t98.5 -38z" />
    <glyph glyph-name="seven" unicode="7" horiz-adv-x="556" 
d="M528 736l-308 -736h-98l277 653h-303v83h432z" />
    <glyph glyph-name="eight" unicode="8" horiz-adv-x="556" 
d="M173 407q-94 45 -94 150q0 83 55 135q56 53 144 53q87 0 143 -53q55 -52 55 -135q0 -105 -94 -150q124 -57 124 -198q0 -95 -63 -156q-64 -62 -165 -62t-165 62q-64 61 -64 156q0 141 124 198zM387 557q0 48 -30.5 79t-78.5 31t-79 -31t-31 -79q0 -51 30.5 -81t79.5 -30
t79 30t30 81zM414 214q0 65 -39 106q-38 40 -97 40t-97 -40q-40 -40 -40 -106q0 -62 39 -101q38 -40 98 -40t98 40q38 38 38 101z" />
    <glyph glyph-name="nine" unicode="9" horiz-adv-x="556" 
d="M433 336l-215 -336h-108l201 300q-40 -7 -58 -7q-90 0 -151 63q-61 61 -61 156q0 84 44 141q36 46 89 72q49 20 96 20q101 0 163 -62q64 -64 64 -166q0 -80 -64 -181zM271 664q-61 0 -99 -40.5t-38 -103.5q0 -69 36.5 -107t99.5 -38q60 0 96 41q38 41 38 106
q0 66 -35 104t-98 38z" />
    <glyph glyph-name="colon" unicode=":" 
d="M75 475q0 26 19 44.5t45 18.5q27 0 45.5 -18t18.5 -45q0 -26 -19 -45t-45 -19t-45 19t-19 45zM75 51q0 26 19 44.5t45 18.5q27 0 45.5 -18t18.5 -45q0 -26 -19 -45t-45 -19t-45 19t-19 45z" />
    <glyph glyph-name="semicolon" unicode=";" 
d="M73 475q0 26 18.5 44.5t44.5 18.5q27 0 45.5 -18t18.5 -45q0 -26 -19 -45t-45 -19t-44.5 19t-18.5 45zM80 -168l-60 30l94 267l92 -43z" />
    <glyph glyph-name="less" unicode="&#x3c;" horiz-adv-x="833" 
d="M129 259v78l575 237v-90l-456 -186l456 -186v-89z" />
    <glyph glyph-name="equal" unicode="=" horiz-adv-x="833" 
d="M709 358h-585v82h585v-82zM709 157h-585v81h585v-81z" />
    <glyph glyph-name="greater" unicode="&#x3e;" horiz-adv-x="833" 
d="M585 298l-456 186v90l575 -237v-78l-575 -236v89z" />
    <glyph glyph-name="question" unicode="?" horiz-adv-x="491" 
d="M258 215v-35h-93v35q0 85 18 128q17 41 47 71q14 14 30 27q13 10 60 50q30 25 40 53q6 15 6 36q0 51 -30.5 82.5t-79.5 31.5q-51 0 -82.5 -32.5t-31.5 -86.5v-9h-100q2 97 60 156q59 57 154 57t153 -55q57 -55 57 -142q0 -97 -85 -164q-35 -29 -59 -47q-35 -28 -50 -66
q-13 -27 -13 -60q-1 -3 -1 -15v-15zM147 50q0 26 19 45t45 19q27 0 45.5 -18.5t18.5 -45.5q0 -26 -19 -44.5t-45 -18.5t-45 18.5t-19 44.5z" />
    <glyph glyph-name="at" unicode="@" horiz-adv-x="1000" 
d="M806 10q10 -16 17 -24q3 -5 9 -14t7 -11q-74 -53 -141 -80q-70 -30 -148 -30q-82 0 -165 11q-33 5 -77 22q-34 13 -55 25q-99 47 -156 147q-52 91 -52 200q0 134 80 252q77 113 200 173q130 63 263 40q72 -1 153 -36q74 -31 127 -85q87 -93 87 -231q0 -112 -71 -209
q-75 -104 -176 -104h-74q-5 15 -3 32q1 11 1 34q-54 -72 -162 -72q-27 0 -67 14q-37 12 -57 32q-43 34 -61 77t-24 104q0 106 71 167q59 50 145 50q54 0 95 -20q54 -26 68 -61q2 26 1 38t1 37h68v-359q70 1 115 66q38 54 46 139q8 78 -13 135q-16 44 -48 77q-14 14 -67 56
q-26 19 -65 28l-31 8q-17 3 -30 9q-19 0 -39 3t-40 3q-15 0 -27 -3q-14 -3 -29 -3h-4q-2 0 -12 -2t-13 -2q-5 0 -6 1q-15 -9 -28 -10l-28 -8q-113 -37 -190 -140q-76 -101 -76 -217q0 -13 2 -47q2 -29 7 -41q17 -81 64 -141q65 -82 179 -108q56 -14 186 -14q52 0 128 30
q52 20 115 62zM489 430q-63 0 -105 -45q-38 -41 -43 -100q0 -64 30 -110q39 -60 122 -60q46 0 77.5 21.5t61.5 63.5q1 14 6 31q4 13 4 36q0 44 -22.5 84.5t-62.5 61.5q-19 9 -33 10q-11 1 -35 7z" />
    <glyph glyph-name="A" unicode="A" horiz-adv-x="727" 
d="M180 177l-68 -177h-106l312 765h83l322 -765h-116l-68 177h-359zM337 574l-122 -307h288l-120 307l-8 23q-6 17 -15 48l-15 -47z" />
    <glyph glyph-name="B" unicode="B" horiz-adv-x="620" 
d="M316 0h-228v764h130q139 0 191 -32q101 -60 101 -175q0 -98 -91 -148q145 -46 145 -195q0 -89 -70 -151q-71 -63 -178 -63zM262 678h-75v-243h82q69 0 106 32t37 89q0 122 -150 122zM292 347h-105v-257h101q174 0 174 129q0 128 -170 128z" />
    <glyph glyph-name="C" unicode="C" horiz-adv-x="750" 
d="M707 681l-64 -72q-82 80 -204 80q-128 0 -208 -85q-85 -88 -85 -222t84 -221q81 -86 209 -86q132 0 209 86l66 -71q-110 -105 -275 -105q-169 0 -277 105q-118 116 -118 292t118 292q108 105 277 105q161 0 268 -98z" />
    <glyph glyph-name="D" unicode="D" horiz-adv-x="736" 
d="M246 0h-158v764h158q217 0 328 -97t111 -285t-111 -285t-328 -97zM261 674h-73v-584h73q323 0 323 292t-323 292z" />
    <glyph glyph-name="E" unicode="E" horiz-adv-x="569" 
d="M485 90v-90h-397v764h397v-90h-298v-239h298v-88h-298v-257h298z" />
    <glyph glyph-name="F" unicode="F" horiz-adv-x="551" 
d="M187 347v-347h-99v764h397v-90h-298v-239h298v-88h-298z" />
    <glyph glyph-name="G" unicode="G" horiz-adv-x="875" 
d="M713 676l-71 -70q-76 83 -206 83q-122 0 -202 -81q-88 -93 -88 -226t83 -221q81 -86 207 -86q118 0 196 69q79 68 97 191h-273v91h377v-22q0 -133 -51 -226.5t-141 -143.5q-85 -49 -202 -49q-169 0 -277 105q-118 116 -118 292t118 292q108 105 277 105q171 0 274 -103z
" />
    <glyph glyph-name="H" unicode="H" horiz-adv-x="775" 
d="M187 349v-349h-99v764h99v-325h401v325h99v-764h-99v349h-401z" />
    <glyph glyph-name="I" unicode="I" 
d="M187 764v-764h-99v764h99z" />
    <glyph glyph-name="J" unicode="J" horiz-adv-x="477" 
d="M54 -15h-16v94h20q124 0 182 46q32 25 43 69q7 28 7 102v378h-241v90h340v-507q0 -273 -319 -273h-8q-6 0 -8 1z" />
    <glyph glyph-name="K" unicode="K" horiz-adv-x="655" 
d="M188 292v-292h-100v764h100v-307q0 -13 -2 -51l30 36l280 322h129l-321 -356l-28 -27q10 -4 15 -11q2 -4 5 -7l5 -5l332 -358h-139l-278 307l-9 12q-3 4 -10 12.5t-11 12.5q2 -38 2 -52z" />
    <glyph glyph-name="L" unicode="L" horiz-adv-x="481" 
d="M450 93v-93h-362v764h99v-671h263z" />
    <glyph glyph-name="M" unicode="M" horiz-adv-x="993" 
d="M182 533l5 -533h-99v764h98l291 -545q14 -24 19 -63q3 34 18 63l290 545h101v-764h-100l7 519q0 40 13 108q-19 -56 -42 -101l-286 -535l-294 549q-26 51 -35 80q14 -51 14 -87z" />
    <glyph glyph-name="N" unicode="N" horiz-adv-x="773" 
d="M185 504v-504h-97v764h93l371 -528q31 -46 55 -102q-19 70 -19 121v509h97v-764h-81l-387 552q-36 51 -48 89q16 -68 16 -137z" />
    <glyph glyph-name="O" unicode="O" horiz-adv-x="891" 
d="M439 -15q-168 0 -277 106q-118 116 -118 291t119 292q108 105 276 105t276 -105q119 -117 119 -292t-118 -291q-109 -106 -277 -106zM438 75q126 0 206 81q88 88 88 226q0 134 -84.5 220.5t-209.5 86.5q-127 0 -209.5 -85t-82.5 -222q0 -138 88 -226q80 -81 204 -81z" />
    <glyph glyph-name="P" unicode="P" horiz-adv-x="560" 
d="M187 263v-263h-99v764h163q133 0 211 -70q76 -68 76 -182q0 -110 -74 -179q-75 -70 -194 -70h-83zM250 674h-63v-320h79q81 0 125.5 42t44.5 120q0 158 -186 158z" />
    <glyph glyph-name="Q" unicode="Q" horiz-adv-x="891" 
d="M740 121l83 -81l-61 -64l-84 87q-82 -78 -239 -78q-169 0 -276 104q-119 117 -119 293q0 175 119 292q108 105 276 105t276 -105q119 -117 119 -292q0 -161 -94 -261zM613 128l-85 82l63 65l83 -87q57 97 57 194q0 134 -83 222q-82 85 -210 85q-129 0 -209 -85
q-83 -88 -83 -222q0 -133 85 -221q81 -86 207 -86q92 0 175 53z" />
    <glyph glyph-name="R" unicode="R" horiz-adv-x="616" 
d="M187 311v-311h-99v764h174q141 0 215 -61t74 -171q0 -100 -63 -168q-64 -67 -167 -67h-6l269 -297h-125zM254 674h-67v-302h72q93 0 141.5 40.5t48.5 116.5q0 145 -195 145z" />
    <glyph glyph-name="S" unicode="S" horiz-adv-x="616" 
d="M47 215l101 4q1 -69 42 -107t113 -38q68 0 107 33t39 86q0 58 -41 93q-31 26 -119 55q-5 2 -27.5 9.5t-29.5 10t-26 10t-29.5 13.5t-25.5 15t-28 20q-65 53 -65 153q0 94 62 150q63 57 169 57q112 0 178 -60.5t71 -169.5h-100q-18 147 -148 147q-62 0 -99 -34.5
t-37 -89.5q0 -51 34 -83q23 -21 67 -35q127 -44 167 -64q87 -43 114 -110q14 -39 14 -82q0 -89 -70 -151t-179 -62q-112 0 -178.5 60.5t-75.5 169.5z" />
    <glyph glyph-name="T" unicode="T" horiz-adv-x="507" 
d="M303 674v-674h-99v674h-195v90h489v-90h-195z" />
    <glyph glyph-name="U" unicode="U" horiz-adv-x="748" 
d="M81 287v477h100v-471q0 -105 50.5 -161t142.5 -56q192 0 192 217v471h100v-477q0 -138 -81 -221q-81 -81 -211 -81q-132 0 -211 81q-82 82 -82 221z" />
    <glyph glyph-name="V" unicode="V" horiz-adv-x="639" 
d="M542 764h102l-283 -764h-84l-282 764h105l184 -523q27 -75 38 -128q11 52 37 128z" />
    <glyph glyph-name="W" unicode="W" horiz-adv-x="972" 
d="M463 556l-163 -556h-74l-235 764h105l148 -525q12 -40 20 -95q8 48 19 84l157 536h93l153 -526q1 -10 9 -31q2 -5 4 -14t3 -13l9 -36q5 28 12 50l6 22q3 7 5 21l146 527h101l-228 -764h-84l-165 557q-15 55 -19 85q-7 -38 -22 -86z" />
    <glyph glyph-name="X" unicode="X" horiz-adv-x="660" 
d="M300 268l-181 -268h-113l267 389l-253 375h111l169 -248q24 -38 30 -54q12 29 29 54l170 248h111l-253 -374l266 -390h-112l-182 268q-20 28 -29 54q-8 -23 -30 -54z" />
    <glyph glyph-name="Y" unicode="Y" horiz-adv-x="613" 
d="M359 308v-308h-100v309l-260 455h116l178 -330q14 -30 16 -37q5 20 16 37l177 330h112z" />
    <glyph glyph-name="Z" unicode="Z" horiz-adv-x="620" 
d="M575 90v-90h-570l381 610q30 46 50 64h-391v90h551l-376 -598q-32 -50 -57 -76h412z" />
    <glyph glyph-name="bracketleft" unicode="[" horiz-adv-x="308" 
d="M291 -218h-203v982h203v-78h-106v-825h106v-79z" />
    <glyph glyph-name="backslash" unicode="\" 
d="M220 -93l-236 872h74l236 -872h-74z" />
    <glyph glyph-name="bracketright" unicode="]" horiz-adv-x="308" 
d="M17 686v78h203v-982h-203v79h106v825h-106z" />
    <glyph glyph-name="asciicircum" unicode="^" horiz-adv-x="1000" 
d="M305 439h-101l243 274h106l242 -274h-101l-194 194z" />
    <glyph glyph-name="underscore" unicode="_" horiz-adv-x="500" 
d="M500 -236h-500v84h500v-84z" />
    <glyph glyph-name="grave" unicode="`" horiz-adv-x="500" 
d="M122 762h98l100 -171h-59z" />
    <glyph glyph-name="a" unicode="a" horiz-adv-x="664" 
d="M501 525h86v-525h-93v86q-66 -93 -190 -93q-113 0 -192 81q-74 77 -74 190q0 122 73 197q74 74 193 74q125 0 197 -96v86zM317 73q81 0 131 54q51 56 51 136q0 81 -51 137q-48 53 -131 53q-80 0 -131 -53t-51 -137t51 -137t131 -53z" />
    <glyph glyph-name="b" unicode="b" horiz-adv-x="664" 
d="M170 86v-86h-92v759h85v-320q72 96 197 96q119 0 193 -74q73 -75 73 -197q0 -114 -73 -190q-79 -81 -193 -81q-124 0 -190 93zM347 73q80 0 131 53t51 137t-51 137t-131 53q-81 0 -131 -53q-51 -56 -51 -137q0 -80 51 -136q50 -54 131 -54z" />
    <glyph glyph-name="c" unicode="c" horiz-adv-x="536" 
d="M493 471l-59 -68q-47 53 -124 53q-76 0 -124 -54q-49 -55 -49 -140q0 -83 49 -138q48 -54 124 -54q83 0 128 58l60 -69q-79 -72 -188 -72q-119 0 -193 76q-78 79 -78 199t76 198t195 78q110 0 183 -67z" />
    <glyph glyph-name="d" unicode="d" horiz-adv-x="674" 
d="M503 450v309h93v-759h-85v79q-77 -86 -201 -86q-122 0 -197 75t-75 196q0 115 75 190q81 81 197 81q124 0 193 -85zM322 454q-81 0 -134 -53q-52 -52 -52 -136q0 -81 52 -136q51 -54 134 -54t134 54q52 55 52 136q0 84 -52 136q-53 53 -134 53z" />
    <glyph glyph-name="e" unicode="e" horiz-adv-x="625" 
d="M585 239v-7h-452q5 -72 57 -117q51 -45 131 -45q102 0 175 85l67 -54q-97 -114 -245 -114q-130 0 -208 86q-70 76 -70 186q0 125 76 203q74 76 194 76q123 0 199 -81q76 -82 76 -218zM133 306h349q-10 70 -57 109q-47 41 -116 41q-70 0 -118 -42q-51 -43 -58 -108z" />
    <glyph glyph-name="f" unicode="f" horiz-adv-x="309" 
d="M283 764v-87h-4q-50 0 -65 -20q-13 -18 -13 -71v-61h82v-78h-82v-447h-95v447h-79v78h79v57q0 94 41 137t136 45z" />
    <glyph glyph-name="g" unicode="g" horiz-adv-x="664" 
d="M501 56v30q-61 -93 -187 -93q-114 0 -193 81q-74 79 -74 190q0 123 74 197t193 74q125 0 197 -96v86h85v-450q0 -297 -284 -297q-165 0 -258 118l75 54q72 -90 187 -90q185 0 185 196zM327 73q81 0 131 54q51 56 51 136q0 81 -51 137q-48 53 -131 53q-80 0 -131 -53
t-51 -137t51 -137t131 -53z" />
    <glyph glyph-name="h" unicode="h" horiz-adv-x="593" 
d="M522 304v-304h-95v295q0 82 -27 120.5t-89 38.5q-136 0 -136 -163v-291h-95v759h95v-294q63 70 152 70q92 0 143.5 -60t51.5 -171z" />
    <glyph glyph-name="i" unicode="i" horiz-adv-x="250" 
d="M61 700q0 26 19 45t45 19q27 0 45.5 -18.5t18.5 -45.5q0 -26 -19 -44.5t-45 -18.5t-45 18.5t-19 44.5zM171 525v-525h-95v525h95z" />
    <glyph glyph-name="j" unicode="j" horiz-adv-x="259" 
d="M70 700q0 26 18.5 45t44.5 19q27 0 45.5 -18.5t18.5 -45.5q0 -26 -19 -44.5t-45 -18.5t-44.5 18.5t-18.5 44.5zM85 -54v579h95v-541q0 -104 -37.5 -153t-120.5 -53v85q63 1 63 83z" />
    <glyph glyph-name="k" unicode="k" horiz-adv-x="542" 
d="M172 255v-255h-92v759h92v-456l230 222h112l-266 -240l276 -285h-122z" />
    <glyph glyph-name="l" unicode="l" horiz-adv-x="250" 
d="M171 759v-759h-92v759h92z" />
    <glyph glyph-name="m" unicode="m" horiz-adv-x="907" 
d="M80 525h91v-60q64 70 148 70q92 0 150 -85q72 85 175 85q88 0 139 -60q53 -63 53 -171v-304h-92v295q0 159 -111 159q-67 0 -98.5 -39.5t-31.5 -123.5v-291h-89v295q0 159 -112 159q-67 0 -98.5 -39.5t-31.5 -123.5v-291h-92v525z" />
    <glyph glyph-name="n" unicode="n" horiz-adv-x="593" 
d="M172 291v-291h-92v525h92v-60q69 70 155 70q92 0 143.5 -60t51.5 -171v-304h-93v295q0 82 -28 120.5t-90 38.5q-139 0 -139 -163z" />
    <glyph glyph-name="o" unicode="o" horiz-adv-x="618" 
d="M309 538q117 0 194 -79q76 -79 76 -197q0 -119 -77 -196q-79 -79 -193 -79t-193 79q-77 77 -77 196q0 120 77 197q79 79 193 79zM309 69q75 0 123 54q49 55 49 139q0 86 -49 141q-48 53 -123 53t-123 -54q-49 -55 -49 -140q0 -83 49 -138t123 -55z" />
    <glyph glyph-name="p" unicode="p" horiz-adv-x="664" 
d="M170 86v-304h-92v743h85v-86q72 96 197 96q119 0 193 -74q73 -75 73 -197q0 -114 -73 -190q-79 -81 -193 -81q-124 0 -190 93zM347 73q80 0 131 53t51 137t-51 137t-131 53q-81 0 -131 -53q-51 -56 -51 -137q0 -80 51 -136q50 -54 131 -54z" />
    <glyph glyph-name="q" unicode="q" horiz-adv-x="664" 
d="M501 525h86v-743h-93v304q-66 -93 -190 -93q-113 0 -192 81q-74 77 -74 190q0 122 73 197q74 74 193 74q125 0 197 -96v86zM317 73q81 0 131 54q51 56 51 136q0 81 -51 137q-48 53 -131 53q-80 0 -131 -53t-51 -137t51 -137t131 -53z" />
    <glyph glyph-name="r" unicode="r" horiz-adv-x="356" 
d="M172 294v-294h-92v525h88v-71q47 80 137 80h16q2 0 16 -2v-94q-27 6 -46 6q-119 0 -119 -150z" />
    <glyph glyph-name="s" unicode="s" horiz-adv-x="468" 
d="M44 153h91q6 -88 99 -88q47 0 73 22.5t26 60.5q0 37 -34 55q-2 1 -18 8q-3 1 -10.5 3t-11.5 4l-54 15q-81 24 -118 59.5t-37 94.5q0 64 50 108q49 43 128 43q85 0 132.5 -42.5t47.5 -117.5v-4h-87q-5 86 -89 86q-44 0 -69 -20t-25 -52q0 -33 23 -48t81 -31
q101 -27 129 -50q51 -42 51 -110q0 -72 -50 -116q-52 -46 -137 -46q-90 0 -139.5 43.5t-51.5 122.5z" />
    <glyph glyph-name="t" unicode="t" horiz-adv-x="315" 
d="M87 109v338h-69v78h69v128h93v-128h89v-78h-89v-327q0 -45 40 -45h49v-88h-52q-71 0 -100.5 28t-29.5 94z" />
    <glyph glyph-name="u" unicode="u" horiz-adv-x="579" 
d="M70 228v297h92v-291q0 -80 33 -122.5t94 -42.5t94 42.5t33 122.5v291h93v-297q0 -114 -58.5 -177.5t-161.5 -63.5t-161 63.5t-58 177.5z" />
    <glyph glyph-name="v" unicode="v" horiz-adv-x="560" 
d="M549 525l-230 -525h-76l-232 525h103l144 -363q18 -47 23 -64q11 37 19 58l150 369h99z" />
    <glyph glyph-name="w" unicode="w" horiz-adv-x="843" 
d="M410 381l-130 -381h-69l-197 525h98l115 -332q7 -20 20 -76q8 36 18 70l113 338h93l114 -333q12 -38 21 -75q4 28 18 70l116 338h94l-196 -525h-71l-131 380q-7 16 -13 50q-6 -30 -13 -49z" />
    <glyph glyph-name="x" unicode="x" horiz-adv-x="551" 
d="M278 203l-155 -203h-121l223 270l-213 255h117l146 -193l143 193h123l-214 -257l224 -268h-121z" />
    <glyph glyph-name="y" unicode="y" horiz-adv-x="556" 
d="M229 -218h-94l92 218l-219 525h104l135 -332q8 -14 33 -107l14 42q1 4 10 31l12 34l137 332h102z" />
    <glyph glyph-name="z" unicode="z" horiz-adv-x="477" 
d="M52 447v78h389l-272 -446h262v-79h-409l270 447h-240z" />
    <glyph glyph-name="braceleft" unicode="{" horiz-adv-x="500" 
d="M405 721h22v-87q-10 0 -12 1h-11q-57 0 -74 -23q-17 -21 -17 -82v-118q0 -73 -19 -103q-23 -38 -80 -50q60 -17 80 -50q19 -32 19 -103v-117q0 -61 17 -82q18 -24 75 -24q9 0 11 1h11v-86h-31q-93 0 -133 24q-31 19 -40.5 51.5t-9.5 94.5v121q0 70 -25.5 99t-87.5 29h-10
q-2 -1 -11 -1v87h11q1 -1 10 -1q62 0 87.5 29t25.5 98v121q0 63 9.5 95.5t40.5 51.5q42 24 142 24z" />
    <glyph glyph-name="bar" unicode="|" horiz-adv-x="500" 
d="M294 -236h-87v1000h87v-1000z" />
    <glyph glyph-name="braceright" unicode="}" horiz-adv-x="500" 
d="M74 634v87h22q99 0 141 -24q31 -19 40.5 -52t9.5 -95v-121q0 -69 25 -98t88 -29q9 0 11 1h10v-87q-9 0 -10 1h-11q-62 0 -87.5 -29t-25.5 -99v-121q0 -62 -9.5 -94.5t-40.5 -51.5q-40 -24 -141 -24h-22v86h12q1 -1 10 -1q57 0 75 24q16 21 16 82v117q0 71 19 103
q20 34 81 50q-58 13 -81 51q-19 30 -19 102v118q0 61 -16 82q-20 23 -74 23h-11q-2 -1 -12 -1z" />
    <glyph glyph-name="asciitilde" unicode="~" horiz-adv-x="833" 
d="M747 383v-90q-100 -69 -186 -69q-39 0 -93 17q-44 14 -98 33q-46 15 -95 15q-79 0 -188 -77v91q103 70 189 70q64 0 143 -29q7 -2 24 -8t24.5 -9t22.5 -7.5t24.5 -6.5t22.5 -3.5t25 -1.5q81 0 185 75z" />
    <glyph glyph-name="exclamdown" unicode="&#xa1;" 
d="M203 709q0 -26 -19 -45t-45 -19q-27 0 -45.5 18.5t-18.5 45.5q0 26 19 44.5t45 18.5t45 -18.5t19 -44.5zM90 0v583h97v-583h-97z" />
    <glyph glyph-name="cent" unicode="&#xa2;" horiz-adv-x="556" 
d="M508 576l-59 -68q-40 45 -103 52v-384q67 6 107 58l60 -69q-80 -71 -167 -71v-144h-51v144q-108 12 -175 87q-66 73 -66 187q0 111 65 187q64 75 176 87v145h51v-143q99 -8 162 -68zM295 178v381q-64 -10 -104 -63q-39 -51 -39 -128q0 -76 40 -129q41 -54 103 -61z" />
    <glyph glyph-name="sterling" unicode="&#xa3;" horiz-adv-x="556" 
d="M98 -2l-45 71q113 98 113 189q0 36 -16 67h-102v65h74q-22 51 -30 70t-17 51.5t-9 56.5q0 81 55.5 129t151.5 48t154 -55q58 -58 58 -149h-96v5q0 54 -32 85t-86 31q-51 0 -81.5 -27.5t-30.5 -72.5q0 -24 16 -62q11 -29 46 -110h139v-65h-114q10 -34 10 -61
q0 -82 -75 -153q57 12 84 12q30 0 81 -17q48 -18 68 -18q34 0 72 21l34 -79q-58 -37 -116 -37q-44 0 -83 18l-43 18q-29 12 -57 12q-71 0 -123 -43z" />
    <glyph glyph-name="currency" unicode="&#xa4;" horiz-adv-x="556" 
d="M108 326v103h-88l16 50h72v35q0 106 63 169q61 63 157 63q133 0 204 -103l-53 -60q-44 82 -151 82q-128 0 -128 -183v-3h252l-16 -50h-236v-103h202l-16 -50h-186v-21q0 -183 128 -183q114 0 157 88l52 -59q-72 -110 -209 -110q-96 0 -157 63q-63 63 -63 169v53h-88
l16 50h72z" />
    <glyph glyph-name="yen" unicode="&#xa5;" horiz-adv-x="556" 
d="M127 485l-141 246h104l175 -320q7 -12 15 -36q4 18 15 36l175 320h99l-139 -246h141v-50h-168l-59 -103h227v-50h-246v-282h-90v282h-251v50h230l-59 103h-171v50h143z" />
    <glyph glyph-name="brokenbar" unicode="&#xa6;" horiz-adv-x="500" 
d="M294 329h-87v370h87v-370zM294 -171h-87v370h87v-370z" />
    <glyph glyph-name="section" unicode="&#xa7;" horiz-adv-x="500" 
d="M85 35l69 53q49 -58 87 -58q25 0 39.5 14.5t14.5 37.5q0 22 -13 41.5t-46 52.5l-100 103q-45 48 -65 80.5t-20 70.5q0 46 28.5 78t79.5 41q-50 56 -50 107q0 52 40 89q37 34 99 34q94 0 157 -81l-69 -50q-46 52 -80 52q-23 0 -36.5 -14.5t-13.5 -36.5q0 -16 14 -34
t49 -53l90 -89q88 -84 88 -159q0 -96 -107 -116q52 -52 52 -118q0 -63 -38.5 -98t-105.5 -35q-100 0 -163 88zM144 441q0 -19 16 -41t52 -59q30 -30 42.5 -42t30.5 -22.5t33 -10.5t25.5 11.5t10.5 28.5q0 19 -16 41t-53 60q-70 75 -102 75q-17 0 -28 -12t-11 -29z" />
    <glyph glyph-name="dieresis" unicode="&#xa8;" horiz-adv-x="500" 
d="M106 671q0 22 16.5 38.5t39.5 16.5t38.5 -16t15.5 -39q0 -24 -15 -39.5t-39 -15.5t-40 15.5t-16 39.5zM284 671q0 22 16 38.5t39 16.5t39 -16t16 -39q0 -24 -15.5 -39.5t-39.5 -15.5q-23 0 -39 15.5t-16 39.5z" />
    <glyph glyph-name="copyright" unicode="&#xa9;" horiz-adv-x="833" 
d="M416 718q151 0 257 -106q105 -105 105 -255q0 -152 -104 -254q-108 -108 -258 -108q-147 0 -254 107t-107 255q0 143 108 256q103 105 253 105zM417 665q-128 0 -217 -89q-91 -91 -91 -219q0 -126 91 -217t217 -91q125 0 219 92q89 87 89 216t-89 218q-90 90 -219 90z
M589 441h-81q-5 36 -29.5 55.5t-63.5 19.5q-49 0 -76 -41t-27 -118q0 -75 28.5 -115t79.5 -40q39 0 63 21.5t29 60.5h81q-4 -64 -52 -105q-47 -41 -124 -41q-91 0 -142.5 57t-51.5 159q0 104 53.5 163t142.5 59q69 0 119 -37q46 -37 51 -98z" />
    <glyph glyph-name="ordfeminine" unicode="&#xaa;" horiz-adv-x="498" 
d="M376 763h64v-367h-69v60q-50 -65 -143 -65q-85 0 -142 55t-57 135q0 87 55 137q55 52 144 52q96 0 148 -67v60zM238 447q60 0 98 38q38 36 38 95q0 58 -38 96q-39 37 -98 37t-98 -37q-39 -38 -39 -96q0 -59 39 -95q38 -38 98 -38z" />
    <glyph glyph-name="guillemotleft" unicode="&#xab;" horiz-adv-x="514" 
d="M64 263l112 194h95l-111 -194l111 -195h-95zM280 263l112 194h95l-111 -194l111 -195h-95z" />
    <glyph glyph-name="logicalnot" unicode="&#xac;" horiz-adv-x="833" 
d="M628 340h-504v81h585v-245h-81v164z" />
    <glyph glyph-name="registered" unicode="&#xae;" horiz-adv-x="833" 
d="M416 718q152 0 259 -108q103 -103 103 -253q0 -152 -106 -256q-111 -106 -256 -106q-152 0 -256 109q-105 107 -105 253q0 149 109 258q103 103 252 103zM417 665q-127 0 -215 -88q-93 -95 -93 -220q0 -127 89 -216q92 -92 214 -92q130 0 223 90q90 84 90 213
q0 132 -90 222q-91 91 -218 91zM356 161h-87v405h156q171 0 171 -110q0 -92 -90 -112l90 -183h-97l-80 169h-63v-169zM409 511h-53v-127h57q49 0 71.5 14.5t22.5 47.5q0 35 -23 50t-75 15z" />
    <glyph glyph-name="macron" unicode="&#xaf;" horiz-adv-x="500" 
d="M382 705v-68h-264v68h264z" />
    <glyph glyph-name="degree" unicode="&#xb0;" horiz-adv-x="329" 
d="M165 713q60 0 102 -42t42 -103q0 -59 -42 -101q-43 -43 -103 -43q-59 0 -101 42t-42 102q0 61 42 103t102 42zM165 659q-38 0 -64.5 -26t-26.5 -64t26.5 -64.5t64.5 -26.5t64 28q26 26 26 63q0 38 -26 64t-64 26z" />
    <glyph glyph-name="plusminus" unicode="&#xb1;" horiz-adv-x="833" 
d="M124 426h251v163h83v-163h251v-81h-251v-163h-83v163h-251v81zM709 7h-585v82h585v-82z" />
    <glyph glyph-name="uni00B2" unicode="&#xb2;" horiz-adv-x="367" 
d="M315 350v-56h-281l200 270q30 43 30 67q0 27 -20 43.5t-54 16.5q-36 0 -57 -18.5t-21 -51.5v-2h-64q1 57 39 89.5t101 32.5t100 -29t37 -77q0 -45 -43 -101l-138 -184h171z" />
    <glyph glyph-name="uni00B3" unicode="&#xb3;" horiz-adv-x="367" 
d="M28 366l53 27q32 -56 91 -56q45 0 74.5 27t29.5 67q0 42 -29 68.5t-77 26.5q-43 0 -83 -28l-11 7l146 181l-169 -3v53h270l-128 -168q63 -2 103 -38q39 -39 39 -94q0 -61 -47 -105q-45 -42 -117 -42q-99 0 -145 77z" />
    <glyph glyph-name="acute" unicode="&#xb4;" horiz-adv-x="500" 
d="M378 762l-139 -171h-59l100 171h98z" />
    <glyph glyph-name="mu" unicode="&#xb5;" horiz-adv-x="590" 
d="M459 517l-1 -479q0 -31 7 -47h-99l-3 43l-4 45q-20 -44 -55 -69q-38 -29 -106 -29q-54 0 -92 41v-17q-2 -46 -2 -100v-57q-1 -17 -1 -43v-18q1 1 -15 1h-36q-24 0 -35 1h-15v32v83v117q-1 43 -1 133v133v117v82v31h18q12 -1 39 -1h38q17 0 17 1v-24v-57v-69
q-1 -24 -1 -62v-70q0 -85 34 -133q20 -26 57 -30l9 -3q6 -2 7 -2q48 5 87 36q41 34 41 77v337h112z" />
    <glyph glyph-name="paragraph" unicode="&#xb6;" horiz-adv-x="500" 
d="M302 399q-140 0 -197 30q-82 43 -82 167q0 76 51 122q40 34 107 50q44 9 98 9q33 0 50 1h51v-812h-78q-1 109 0 217q2 107 0 216zM403 778h78v-812h-78v812zM301 474v234q-102 -2 -136 -13q-63 -22 -63 -97q0 -84 66 -109q37 -15 133 -15z" />
    <glyph glyph-name="periodcentered" unicode="&#xb7;" 
d="M75 368q0 26 19 45t45 19q27 0 45.5 -18.5t18.5 -45.5q0 -26 -19 -45t-45 -19t-45 19t-19 45z" />
    <glyph glyph-name="cedilla" unicode="&#xb8;" horiz-adv-x="500" 
d="M143 -208v49q76 -19 121 -19q58 0 58 40q0 42 -65 42h-12h-6q-6 0 -8 -1v97h38v-50h14q109 0 109 -88q0 -92 -123 -92q-50 0 -126 22z" />
    <glyph glyph-name="uni00B9" unicode="&#xb9;" horiz-adv-x="367" 
d="M232 742v-448h-61v361l-93 -48v56z" />
    <glyph glyph-name="ordmasculine" unicode="&#xba;" horiz-adv-x="464" 
d="M232 773q87 0 144 -55q58 -56 58 -139q0 -81 -58 -137q-58 -55 -144 -55q-85 0 -144 55.5t-59 136.5q0 84 59 140q56 54 144 54zM232 444q56 0 92 38q37 37 37 97q0 59 -37 98q-36 38 -92 38t-92.5 -38t-36.5 -98t36 -97.5t93 -37.5z" />
    <glyph glyph-name="guillemotright" unicode="&#xbb;" horiz-adv-x="514" 
d="M234 263l-112 -195h-95l111 195l-111 194h95zM450 263l-112 -195h-95l111 195l-111 194h95z" />
    <glyph glyph-name="onequarter" unicode="&#xbc;" horiz-adv-x="867" 
d="M263 -9h-80l421 754h79zM221 742v-418h-59v337l-88 -45v52zM787 100v-100h-53v100h-190v24l231 293h12v-270h49v-47h-49zM736 145v155l-117 -155h117z" />
    <glyph glyph-name="onehalf" unicode="&#xbd;" horiz-adv-x="867" 
d="M263 -9h-80l421 754h79zM221 742v-418h-59v337l-88 -45v52zM818 52v-52h-268l190 252q29 38 29 63t-19.5 40.5t-51.5 15.5q-34 0 -54.5 -17.5t-20.5 -48.5v-2h-60q1 54 37 84t97 30q60 0 95 -27t35 -72q0 -43 -40 -94l-133 -172h164z" />
    <glyph glyph-name="threequarters" unicode="&#xbe;" horiz-adv-x="868" 
d="M263 -9h-80l421 754h79zM26 391l51 25q31 -52 87 -52q42 0 70.5 25t28.5 63q0 39 -28 63.5t-73 24.5q-38 0 -79 -26l-11 7l140 169l-161 -3v49h258l-123 -157q60 -1 97.5 -34.5t37.5 -87.5q0 -61 -44 -99q-45 -39 -112 -39q-93 0 -139 72zM787 100v-100h-53v100h-190v24
l231 293h12v-270h49v-47h-49zM736 145v155l-117 -155h117z" />
    <glyph glyph-name="questiondown" unicode="&#xbf;" horiz-adv-x="491" 
d="M343 715q0 -26 -18.5 -45t-44.5 -19q-27 0 -45.5 18.5t-18.5 45.5q0 26 19 45t45 19t44.5 -19t18.5 -45zM232 554v15v16h94q1 -2 1 -9v-10v-18q0 -131 -73 -203q-37 -34 -59 -49q-45 -32 -62 -68q-8 -22 -8 -43q0 -51 30.5 -82.5t79.5 -31.5q51 0 82.5 32.5t31.5 86.5v9
h99q-1 -96 -59 -154t-150 -58q-100 0 -157 54.5t-57 148.5q0 67 34 110q20 27 44 44q3 2 16.5 12t19.5 14.5t18.5 14.5t20 17.5t17 17.5t16.5 20q22 31 22 81v20q-1 3 -1 13z" />
    <glyph glyph-name="Agrave" unicode="&#xc0;" horiz-adv-x="727" 
d="M236 1004h98l100 -171h-59zM180 177l-68 -177h-106l312 765h83l322 -765h-116l-68 177h-359zM337 574l-122 -307h288l-120 307l-8 23q-6 17 -15 48l-15 -47z" />
    <glyph glyph-name="Aacute" unicode="&#xc1;" horiz-adv-x="727" 
d="M492 1004l-139 -171h-59l100 171h98zM180 177l-68 -177h-106l312 765h83l322 -765h-116l-68 177h-359zM337 574l-122 -307h288l-120 307l-8 23q-6 17 -15 48l-15 -47z" />
    <glyph glyph-name="Acircumflex" unicode="&#xc2;" horiz-adv-x="727" 
d="M364 945l-85 -112h-59l96 171h96l96 -171h-60zM180 177l-68 -177h-106l312 765h83l322 -765h-116l-68 177h-359zM337 574l-122 -307h288l-120 307l-8 23q-6 17 -15 48l-15 -47z" />
    <glyph glyph-name="Atilde" unicode="&#xc3;" horiz-adv-x="727" 
d="M464 969h43q-19 -102 -96 -102q-7 0 -32 5l-47 14q-11 3 -24 3q-30 0 -44 -33h-43q9 48 33.5 74t60.5 26q21 0 29 -4l48 -14q25 -5 26 -5q32 0 46 36zM180 177l-68 -177h-106l312 765h83l322 -765h-116l-68 177h-359zM337 574l-122 -307h288l-120 307l-8 23q-6 17 -15 48
l-15 -47z" />
    <glyph glyph-name="Adieresis" unicode="&#xc4;" horiz-adv-x="727" 
d="M220 913q0 22 16.5 38.5t39.5 16.5t38.5 -16t15.5 -39q0 -24 -15 -39.5t-39 -15.5t-40 15.5t-16 39.5zM398 913q0 22 16 38.5t39 16.5t39 -16t16 -39q0 -24 -15.5 -39.5t-39.5 -15.5q-23 0 -39 15.5t-16 39.5zM180 177l-68 -177h-106l312 765h83l322 -765h-116l-68 177
h-359zM337 574l-122 -307h288l-120 307l-8 23q-6 17 -15 48l-15 -47z" />
    <glyph glyph-name="Aring" unicode="&#xc5;" horiz-adv-x="727" 
d="M236 920q0 54 36 88q35 35 88 35t88 -35t35 -88t-35 -88q-34 -36 -88 -36q-52 0 -88 36t-36 88zM294 920q0 -28 19 -47t47 -19q27 0 46.5 19t19.5 47q0 27 -19.5 46.5t-46.5 19.5q-28 0 -47 -19t-19 -47zM180 177l-68 -177h-106l312 765h83l322 -765h-116l-68 177h-359z
M337 574l-122 -307h288l-120 307l-8 23q-6 17 -15 48l-15 -47z" />
    <glyph glyph-name="AE" unicode="&#xc6;" horiz-adv-x="884" 
d="M800 90v-90h-391v177h-253l-86 -177h-101l383 764h448v-90h-298v-239h298v-88h-298v-257h298zM409 260v440l-212 -440h212z" />
    <glyph glyph-name="Ccedilla" unicode="&#xc7;" horiz-adv-x="750" 
d="M445 -50h14q109 0 109 -88q0 -92 -123 -92q-50 0 -126 22v49q76 -19 121 -19q58 0 58 40q0 42 -65 42h-12h-6q-6 0 -8 -1v83q-70 4 -128.5 27t-97.5 58.5t-64.5 72t-42.5 77.5q-30 73 -30 161q0 176 118 292q108 105 277 105q161 0 268 -98l-64 -72q-82 80 -204 80
q-128 0 -208 -85q-85 -88 -85 -222t84 -221q81 -86 209 -86q132 0 209 86l66 -71q-108 -103 -269 -105v-35z" />
    <glyph glyph-name="Egrave" unicode="&#xc8;" horiz-adv-x="569" 
d="M172 1004h98l100 -171h-59zM485 90v-90h-397v764h397v-90h-298v-239h298v-88h-298v-257h298z" />
    <glyph glyph-name="Eacute" unicode="&#xc9;" horiz-adv-x="569" 
d="M428 1004l-139 -171h-59l100 171h98zM485 90v-90h-397v764h397v-90h-298v-239h298v-88h-298v-257h298z" />
    <glyph glyph-name="Ecircumflex" unicode="&#xca;" horiz-adv-x="569" 
d="M300 945l-85 -112h-59l96 171h96l96 -171h-60zM485 90v-90h-397v764h397v-90h-298v-239h298v-88h-298v-257h298z" />
    <glyph glyph-name="Edieresis" unicode="&#xcb;" horiz-adv-x="569" 
d="M156 913q0 22 16.5 38.5t39.5 16.5t38.5 -16t15.5 -39q0 -24 -15 -39.5t-39 -15.5t-40 15.5t-16 39.5zM334 913q0 22 16 38.5t39 16.5t39 -16t16 -39q0 -24 -15.5 -39.5t-39.5 -15.5q-23 0 -39 15.5t-16 39.5zM485 90v-90h-397v764h397v-90h-298v-239h298v-88h-298v-257
h298z" />
    <glyph glyph-name="Igrave" unicode="&#xcc;" 
d="M11 1004h98l100 -171h-59zM187 764v-764h-99v764h99z" />
    <glyph glyph-name="Iacute" unicode="&#xcd;" 
d="M267 1004l-139 -171h-59l100 171h98zM187 764v-764h-99v764h99z" />
    <glyph glyph-name="Icircumflex" unicode="&#xce;" 
d="M139 945l-85 -112h-59l96 171h96l96 -171h-60zM187 764v-764h-99v764h99z" />
    <glyph glyph-name="Idieresis" unicode="&#xcf;" 
d="M-5 913q0 22 16.5 38.5t39.5 16.5t38.5 -16t15.5 -39q0 -24 -15 -39.5t-39 -15.5t-40 15.5t-16 39.5zM173 913q0 22 16 38.5t39 16.5t39 -16t16 -39q0 -24 -15.5 -39.5t-39.5 -15.5q-23 0 -39 15.5t-16 39.5zM187 764v-764h-99v764h99z" />
    <glyph glyph-name="Eth" unicode="&#xd0;" horiz-adv-x="736" 
d="M0 423h88v341h158q217 0 328 -97t111 -285t-111 -285t-328 -97h-158v365h-88v58zM261 674h-74v-251h195v-58h-195v-275h74q323 0 323 292t-323 292z" />
    <glyph glyph-name="Ntilde" unicode="&#xd1;" horiz-adv-x="773" 
d="M487 969h43q-20 -102 -96 -102q-7 0 -32 5l-47 14q-11 3 -24 3q-31 0 -44 -33h-43q9 48 33.5 74t60.5 26q21 0 29 -4l48 -14q25 -5 26 -5q32 0 46 36zM185 504v-504h-97v764h93l371 -528q31 -46 55 -102q-19 70 -19 121v509h97v-764h-81l-387 552q-36 51 -48 89
q16 -68 16 -137z" />
    <glyph glyph-name="Ograve" unicode="&#xd2;" horiz-adv-x="891" 
d="M318 1004h98l100 -171h-59zM439 -15q-168 0 -277 106q-118 116 -118 291t119 292q108 105 276 105t276 -105q119 -117 119 -292t-118 -291q-109 -106 -277 -106zM438 75q126 0 206 81q88 88 88 226q0 134 -84.5 220.5t-209.5 86.5q-127 0 -209.5 -85t-82.5 -222
q0 -138 88 -226q80 -81 204 -81z" />
    <glyph glyph-name="Oacute" unicode="&#xd3;" horiz-adv-x="891" 
d="M574 1004l-139 -171h-59l100 171h98zM439 -15q-168 0 -277 106q-118 116 -118 291t119 292q108 105 276 105t276 -105q119 -117 119 -292t-118 -291q-109 -106 -277 -106zM438 75q126 0 206 81q88 88 88 226q0 134 -84.5 220.5t-209.5 86.5q-127 0 -209.5 -85t-82.5 -222
q0 -138 88 -226q80 -81 204 -81z" />
    <glyph glyph-name="Ocircumflex" unicode="&#xd4;" horiz-adv-x="891" 
d="M446 945l-85 -112h-59l96 171h96l96 -171h-60zM439 -15q-168 0 -277 106q-118 116 -118 291t119 292q108 105 276 105t276 -105q119 -117 119 -292t-118 -291q-109 -106 -277 -106zM438 75q126 0 206 81q88 88 88 226q0 134 -84.5 220.5t-209.5 86.5q-127 0 -209.5 -85
t-82.5 -222q0 -138 88 -226q80 -81 204 -81z" />
    <glyph glyph-name="Otilde" unicode="&#xd5;" horiz-adv-x="891" 
d="M546 969h43q-19 -102 -96 -102q-7 0 -32 5l-47 14q-11 3 -24 3q-30 0 -44 -33h-43q9 48 33.5 74t60.5 26q21 0 29 -4l48 -14q25 -5 26 -5q32 0 46 36zM439 -15q-168 0 -277 106q-118 116 -118 291t119 292q108 105 276 105t276 -105q119 -117 119 -292t-118 -291
q-109 -106 -277 -106zM438 75q126 0 206 81q88 88 88 226q0 134 -84.5 220.5t-209.5 86.5q-127 0 -209.5 -85t-82.5 -222q0 -138 88 -226q80 -81 204 -81z" />
    <glyph glyph-name="Odieresis" unicode="&#xd6;" horiz-adv-x="891" 
d="M302 913q0 22 16.5 38.5t39.5 16.5t38.5 -16t15.5 -39q0 -24 -15 -39.5t-39 -15.5t-40 15.5t-16 39.5zM480 913q0 22 16 38.5t39 16.5t39 -16t16 -39q0 -24 -15.5 -39.5t-39.5 -15.5q-23 0 -39 15.5t-16 39.5zM439 -15q-168 0 -277 106q-118 116 -118 291t119 292
q108 105 276 105t276 -105q119 -117 119 -292t-118 -291q-109 -106 -277 -106zM438 75q126 0 206 81q88 88 88 226q0 134 -84.5 220.5t-209.5 86.5q-127 0 -209.5 -85t-82.5 -222q0 -138 88 -226q80 -81 204 -81z" />
    <glyph glyph-name="multiply" unicode="&#xd7;" horiz-adv-x="833" 
d="M364 298l-224 225l57 57l224 -224l225 224l57 -57l-224 -225l224 -224l-57 -58l-225 225l-224 -225l-57 58z" />
    <glyph glyph-name="Oslash" unicode="&#xd8;" horiz-adv-x="891" 
d="M635 730l79 119l56 -38l-82 -120q146 -114 146 -309q0 -180 -119 -293q-110 -104 -276 -104q-117 0 -197 49l-79 -119l-56 38l82 120q-145 112 -145 309q0 180 119 293q107 104 276 104q116 0 196 -49zM239 145l346 512q-66 32 -147 32q-129 0 -209 -85q-83 -88 -83 -222
q0 -142 93 -237zM639 617l-348 -511q62 -31 141 -31q137 0 218 86q82 88 82 221q0 134 -93 235z" />
    <glyph glyph-name="Ugrave" unicode="&#xd9;" horiz-adv-x="748" 
d="M246 1004h98l100 -171h-59zM81 287v477h100v-471q0 -105 50.5 -161t142.5 -56q192 0 192 217v471h100v-477q0 -138 -81 -221q-81 -81 -211 -81q-132 0 -211 81q-82 82 -82 221z" />
    <glyph glyph-name="Uacute" unicode="&#xda;" horiz-adv-x="748" 
d="M502 1004l-139 -171h-59l100 171h98zM81 287v477h100v-471q0 -105 50.5 -161t142.5 -56q192 0 192 217v471h100v-477q0 -138 -81 -221q-81 -81 -211 -81q-132 0 -211 81q-82 82 -82 221z" />
    <glyph glyph-name="Ucircumflex" unicode="&#xdb;" horiz-adv-x="748" 
d="M374 945l-85 -112h-59l96 171h96l96 -171h-60zM81 287v477h100v-471q0 -105 50.5 -161t142.5 -56q192 0 192 217v471h100v-477q0 -138 -81 -221q-81 -81 -211 -81q-132 0 -211 81q-82 82 -82 221z" />
    <glyph glyph-name="Udieresis" unicode="&#xdc;" horiz-adv-x="748" 
d="M230 913q0 22 16.5 38.5t39.5 16.5t38.5 -16t15.5 -39q0 -24 -15 -39.5t-39 -15.5t-40 15.5t-16 39.5zM408 913q0 22 16 38.5t39 16.5t39 -16t16 -39q0 -24 -15.5 -39.5t-39.5 -15.5q-23 0 -39 15.5t-16 39.5zM81 287v477h100v-471q0 -105 50.5 -161t142.5 -56
q192 0 192 217v471h100v-477q0 -138 -81 -221q-81 -81 -211 -81q-132 0 -211 81q-82 82 -82 221z" />
    <glyph glyph-name="Yacute" unicode="&#xdd;" horiz-adv-x="613" 
d="M435 1004l-139 -171h-59l100 171h98zM359 308v-308h-100v309l-260 455h116l178 -330q14 -30 16 -37q5 20 16 37l177 330h112z" />
    <glyph glyph-name="Thorn" unicode="&#xde;" horiz-adv-x="560" 
d="M270 144h-83v-144h-99v764h99v-119h64q134 0 211 -69q76 -68 76 -182q0 -110 -74 -179q-74 -71 -194 -71zM250 555h-63v-320h79q81 0 125.5 42.5t44.5 120.5q0 157 -186 157z" />
    <glyph glyph-name="germandbls" unicode="&#xdf;" horiz-adv-x="616" 
d="M194 533v-533h-92v447h-71v78h71v24q0 102 50.5 158t141.5 56q83 0 137 -52q53 -53 53 -131q0 -102 -89 -138q79 -13 128 -70q47 -56 47 -138q0 -108 -69 -177q-70 -70 -177 -70q-48 0 -96 20l22 84q32 -16 73 -16q66 0 108 43t42 111q0 73 -48 116q-51 45 -128 45h-29
v79h21q49 0 76.5 28.5t27.5 79.5q0 47 -28 77t-71 30q-57 0 -78.5 -36t-21.5 -115z" />
    <glyph glyph-name="agrave" unicode="&#xe0;" horiz-adv-x="664" 
d="M179 762h98l100 -171h-59zM501 525h86v-525h-93v86q-66 -93 -190 -93q-113 0 -192 81q-74 77 -74 190q0 122 73 197q74 74 193 74q125 0 197 -96v86zM317 73q81 0 131 54q51 56 51 136q0 81 -51 137q-48 53 -131 53q-80 0 -131 -53t-51 -137t51 -137t131 -53z" />
    <glyph glyph-name="aacute" unicode="&#xe1;" horiz-adv-x="664" 
d="M435 762l-139 -171h-59l100 171h98zM501 525h86v-525h-93v86q-66 -93 -190 -93q-113 0 -192 81q-74 77 -74 190q0 122 73 197q74 74 193 74q125 0 197 -96v86zM317 73q81 0 131 54q51 56 51 136q0 81 -51 137q-48 53 -131 53q-80 0 -131 -53t-51 -137t51 -137t131 -53z
" />
    <glyph glyph-name="acircumflex" unicode="&#xe2;" horiz-adv-x="664" 
d="M307 703l-85 -112h-59l96 171h96l96 -171h-60zM501 525h86v-525h-93v86q-66 -93 -190 -93q-113 0 -192 81q-74 77 -74 190q0 122 73 197q74 74 193 74q125 0 197 -96v86zM317 73q81 0 131 54q51 56 51 136q0 81 -51 137q-48 53 -131 53q-80 0 -131 -53t-51 -137t51 -137
t131 -53z" />
    <glyph glyph-name="atilde" unicode="&#xe3;" horiz-adv-x="664" 
d="M407 727h43q-20 -102 -96 -102q-7 0 -32 5l-47 14q-11 3 -24 3q-31 0 -44 -33h-43q9 48 33.5 74t60.5 26q21 0 29 -4l48 -14q25 -5 26 -5q33 0 46 36zM501 525h86v-525h-93v86q-66 -93 -190 -93q-113 0 -192 81q-74 77 -74 190q0 122 73 197q74 74 193 74q125 0 197 -96
v86zM317 73q81 0 131 54q51 56 51 136q0 81 -51 137q-48 53 -131 53q-80 0 -131 -53t-51 -137t51 -137t131 -53z" />
    <glyph glyph-name="adieresis" unicode="&#xe4;" horiz-adv-x="664" 
d="M163 671q0 22 16.5 38.5t39.5 16.5t38.5 -16t15.5 -39q0 -24 -15 -39.5t-39 -15.5t-40 15.5t-16 39.5zM341 671q0 22 16 38.5t39 16.5t39 -16t16 -39q0 -24 -15.5 -39.5t-39.5 -15.5q-23 0 -39 15.5t-16 39.5zM501 525h86v-525h-93v86q-66 -93 -190 -93q-113 0 -192 81
q-74 77 -74 190q0 122 73 197q74 74 193 74q125 0 197 -96v86zM317 73q81 0 131 54q51 56 51 136q0 81 -51 137q-48 53 -131 53q-80 0 -131 -53t-51 -137t51 -137t131 -53z" />
    <glyph glyph-name="aring" unicode="&#xe5;" horiz-adv-x="664" 
d="M204 691q0 52 36 88q35 35 87 35q53 0 88 -35t35 -88t-35 -88q-35 -36 -88 -36t-87 36q-36 36 -36 88zM261 691q0 -28 19 -47t47 -19q27 0 46.5 19t19.5 47q0 27 -19.5 46t-46.5 19q-28 0 -47 -18.5t-19 -46.5zM501 525h86v-525h-93v86q-66 -93 -190 -93q-113 0 -192 81
q-74 77 -74 190q0 122 73 197q74 74 193 74q125 0 197 -96v86zM317 73q81 0 131 54q51 56 51 136q0 81 -51 137q-48 53 -131 53q-80 0 -131 -53t-51 -137t51 -137t131 -53z" />
    <glyph glyph-name="ae" unicode="&#xe6;" horiz-adv-x="1072" 
d="M501 439v86h70v-86q73 99 195 99q113 0 189 -82q76 -84 76 -215v-9h-453q5 -72 57 -117q51 -45 132 -45q101 0 174 85l68 -54q-99 -114 -233 -114q-142 0 -205 107v-94h-70v99q-61 -106 -197 -106q-114 0 -193 81q-73 73 -73 190q0 122 73 197q74 74 193 74
q125 0 197 -96zM578 306h350q-10 70 -57 109q-47 41 -116 41q-71 0 -119 -42q-51 -43 -58 -108zM317 73q81 0 131 54q51 56 51 136q0 81 -51 137q-48 53 -131 53q-80 0 -131 -53t-51 -137t51 -137t131 -53z" />
    <glyph glyph-name="ccedilla" unicode="&#xe7;" horiz-adv-x="536" 
d="M321 -50h14q109 0 109 -88q0 -92 -123 -92q-50 0 -126 22v49q76 -19 121 -19q58 0 58 40q0 42 -65 42h-12h-6q-6 0 -8 -1v85q-105 8 -174.5 83t-69.5 191q0 120 76 198t195 78q110 0 183 -67l-59 -68q-47 53 -124 53q-76 0 -124 -54q-49 -55 -49 -140q0 -83 49 -138
q48 -54 124 -54q83 0 128 58l60 -69q-73 -68 -177 -72v-37z" />
    <glyph glyph-name="egrave" unicode="&#xe8;" horiz-adv-x="625" 
d="M185 762h98l100 -171h-59zM585 239v-7h-452q5 -72 57 -117q51 -45 131 -45q102 0 175 85l67 -54q-97 -114 -245 -114q-130 0 -208 86q-70 76 -70 186q0 125 76 203q74 76 194 76q123 0 199 -81q76 -82 76 -218zM133 306h349q-10 70 -57 109q-47 41 -116 41
q-70 0 -118 -42q-51 -43 -58 -108z" />
    <glyph glyph-name="eacute" unicode="&#xe9;" horiz-adv-x="625" 
d="M441 762l-139 -171h-59l100 171h98zM585 239v-7h-452q5 -72 57 -117q51 -45 131 -45q102 0 175 85l67 -54q-97 -114 -245 -114q-130 0 -208 86q-70 76 -70 186q0 125 76 203q74 76 194 76q123 0 199 -81q76 -82 76 -218zM133 306h349q-10 70 -57 109q-47 41 -116 41
q-70 0 -118 -42q-51 -43 -58 -108z" />
    <glyph glyph-name="ecircumflex" unicode="&#xea;" horiz-adv-x="625" 
d="M313 703l-85 -112h-59l96 171h96l96 -171h-60zM585 239v-7h-452q5 -72 57 -117q51 -45 131 -45q102 0 175 85l67 -54q-97 -114 -245 -114q-130 0 -208 86q-70 76 -70 186q0 125 76 203q74 76 194 76q123 0 199 -81q76 -82 76 -218zM133 306h349q-10 70 -57 109
q-47 41 -116 41q-70 0 -118 -42q-51 -43 -58 -108z" />
    <glyph glyph-name="edieresis" unicode="&#xeb;" horiz-adv-x="625" 
d="M169 671q0 22 16.5 38.5t39.5 16.5t38.5 -16t15.5 -39q0 -24 -15 -39.5t-39 -15.5t-40 15.5t-16 39.5zM347 671q0 22 16 38.5t39 16.5t39 -16t16 -39q0 -24 -15.5 -39.5t-39.5 -15.5q-23 0 -39 15.5t-16 39.5zM585 239v-7h-452q5 -72 57 -117q51 -45 131 -45
q102 0 175 85l67 -54q-97 -114 -245 -114q-130 0 -208 86q-70 76 -70 186q0 125 76 203q74 76 194 76q123 0 199 -81q76 -82 76 -218zM133 306h349q-10 70 -57 109q-47 41 -116 41q-70 0 -118 -42q-51 -43 -58 -108z" />
    <glyph glyph-name="igrave" unicode="&#xec;" horiz-adv-x="250" 
d="M-3 762h98l100 -171h-59zM171 525v-525h-92v525h92z" />
    <glyph glyph-name="iacute" unicode="&#xed;" horiz-adv-x="250" 
d="M253 762l-139 -171h-59l100 171h98zM171 525v-525h-92v525h92z" />
    <glyph glyph-name="icircumflex" unicode="&#xee;" horiz-adv-x="250" 
d="M125 703l-85 -112h-59l96 171h96l96 -171h-60zM171 525v-525h-92v525h92z" />
    <glyph glyph-name="idieresis" unicode="&#xef;" horiz-adv-x="250" 
d="M-19 671q0 22 16.5 38.5t39.5 16.5t38.5 -16t15.5 -39q0 -24 -15 -39.5t-39 -15.5t-40 15.5t-16 39.5zM159 671q0 22 16 38.5t39 16.5t39 -16t16 -39q0 -24 -15.5 -39.5t-39.5 -15.5q-23 0 -39 15.5t-16 39.5zM171 525v-525h-92v525h92z" />
    <glyph glyph-name="eth" unicode="&#xf0;" horiz-adv-x="606" 
d="M416 495q-48 68 -115 121l-147 -80l-22 40l127 69q-48 33 -93 59l33 60q40 -20 132 -79l113 63l22 -40l-95 -54q197 -161 197 -383q0 -129 -75 -207q-74 -77 -190 -77q-110 0 -188 78q-76 79 -76 191q0 117 76 193q75 77 188 77q64 0 113 -31zM303 68q71 0 121 53
q48 50 48 136t-48 137q-50 52 -121 52q-70 0 -120 -53q-48 -51 -48 -136t48 -136q50 -53 120 -53z" />
    <glyph glyph-name="ntilde" unicode="&#xf1;" horiz-adv-x="593" 
d="M422 727h43q-19 -102 -96 -102q-7 0 -32 5l-47 14q-11 3 -24 3q-30 0 -44 -33h-43q9 48 33.5 74t60.5 26q21 0 29 -4l48 -14q25 -5 26 -5q32 0 46 36zM172 291v-291h-92v525h92v-60q69 70 155 70q92 0 143.5 -60t51.5 -171v-304h-93v295q0 82 -28 120.5t-90 38.5
q-139 0 -139 -163z" />
    <glyph glyph-name="ograve" unicode="&#xf2;" horiz-adv-x="618" 
d="M181 762h98l100 -171h-59zM309 538q117 0 194 -79q76 -79 76 -197q0 -119 -77 -196q-79 -79 -193 -79t-193 79q-77 77 -77 196q0 120 77 197q79 79 193 79zM309 69q75 0 123 54q49 55 49 139q0 86 -49 141q-48 53 -123 53t-123 -54q-49 -55 -49 -140q0 -83 49 -138
t123 -55z" />
    <glyph glyph-name="oacute" unicode="&#xf3;" horiz-adv-x="618" 
d="M437 762l-139 -171h-59l100 171h98zM309 538q117 0 194 -79q76 -79 76 -197q0 -119 -77 -196q-79 -79 -193 -79t-193 79q-77 77 -77 196q0 120 77 197q79 79 193 79zM309 69q75 0 123 54q49 55 49 139q0 86 -49 141q-48 53 -123 53t-123 -54q-49 -55 -49 -140
q0 -83 49 -138t123 -55z" />
    <glyph glyph-name="ocircumflex" unicode="&#xf4;" horiz-adv-x="618" 
d="M309 703l-85 -112h-59l96 171h96l96 -171h-60zM309 538q117 0 194 -79q76 -79 76 -197q0 -119 -77 -196q-79 -79 -193 -79t-193 79q-77 77 -77 196q0 120 77 197q79 79 193 79zM309 69q75 0 123 54q49 55 49 139q0 86 -49 141q-48 53 -123 53t-123 -54q-49 -55 -49 -140
q0 -83 49 -138t123 -55z" />
    <glyph glyph-name="otilde" unicode="&#xf5;" horiz-adv-x="618" 
d="M409 727h43q-20 -102 -96 -102q-7 0 -32 5l-47 14q-11 3 -24 3q-31 0 -44 -33h-43q9 48 33.5 74t60.5 26q21 0 29 -4l48 -14q25 -5 26 -5q32 0 46 36zM309 538q117 0 194 -79q76 -79 76 -197q0 -119 -77 -196q-79 -79 -193 -79t-193 79q-77 77 -77 196q0 120 77 197
q79 79 193 79zM309 69q75 0 123 54q49 55 49 139q0 86 -49 141q-48 53 -123 53t-123 -54q-49 -55 -49 -140q0 -83 49 -138t123 -55z" />
    <glyph glyph-name="odieresis" unicode="&#xf6;" horiz-adv-x="618" 
d="M165 671q0 22 16.5 38.5t39.5 16.5t38.5 -16t15.5 -39q0 -24 -15 -39.5t-39 -15.5t-40 15.5t-16 39.5zM343 671q0 22 16 38.5t39 16.5t39 -16t16 -39q0 -24 -15.5 -39.5t-39.5 -15.5q-23 0 -39 15.5t-16 39.5zM309 538q117 0 194 -79q76 -79 76 -197q0 -119 -77 -196
q-79 -79 -193 -79t-193 79q-77 77 -77 196q0 120 77 197q79 79 193 79zM309 69q75 0 123 54q49 55 49 139q0 86 -49 141q-48 53 -123 53t-123 -54q-49 -55 -49 -140q0 -83 49 -138t123 -55z" />
    <glyph glyph-name="divide" unicode="&#xf7;" horiz-adv-x="833" 
d="M417 551q28 0 47.5 -20t19.5 -48q0 -27 -19 -46.5t-48 -19.5t-48 19t-19 47t20 48t47 20zM709 258h-585v81h585v-81zM417 179q28 0 47.5 -19.5t19.5 -47.5q0 -27 -19 -46.5t-48 -19.5t-48 19t-19 47t20 47.5t47 19.5z" />
    <glyph glyph-name="oslash" unicode="&#xf8;" horiz-adv-x="618" 
d="M434 506l79 114l51 -34l-79 -116q94 -87 94 -208q0 -119 -77 -196q-79 -79 -193 -79q-67 0 -126 32l-79 -114l-51 34l79 116q-93 86 -93 207q0 120 77 197q79 79 193 79q66 0 125 -32zM180 127l209 312q-54 17 -80 17q-75 0 -123 -54q-49 -55 -49 -140q0 -81 43 -135z
M438 399l-212 -313q37 -17 75 -17q80 0 131 53q49 52 49 140q0 82 -43 137z" />
    <glyph glyph-name="ugrave" unicode="&#xf9;" horiz-adv-x="579" 
d="M162 762h98l100 -171h-59zM70 228v297h92v-291q0 -80 33 -122.5t94 -42.5t94 42.5t33 122.5v291h93v-297q0 -114 -58.5 -177.5t-161.5 -63.5t-161 63.5t-58 177.5z" />
    <glyph glyph-name="uacute" unicode="&#xfa;" horiz-adv-x="579" 
d="M418 762l-139 -171h-59l100 171h98zM70 228v297h92v-291q0 -80 33 -122.5t94 -42.5t94 42.5t33 122.5v291h93v-297q0 -114 -58.5 -177.5t-161.5 -63.5t-161 63.5t-58 177.5z" />
    <glyph glyph-name="ucircumflex" unicode="&#xfb;" horiz-adv-x="579" 
d="M290 703l-85 -112h-59l96 171h96l96 -171h-60zM70 228v297h92v-291q0 -80 33 -122.5t94 -42.5t94 42.5t33 122.5v291h93v-297q0 -114 -58.5 -177.5t-161.5 -63.5t-161 63.5t-58 177.5z" />
    <glyph glyph-name="udieresis" unicode="&#xfc;" horiz-adv-x="579" 
d="M146 671q0 22 16.5 38.5t39.5 16.5t38.5 -16t15.5 -39q0 -24 -15 -39.5t-39 -15.5t-40 15.5t-16 39.5zM324 671q0 22 16 38.5t39 16.5t39 -16t16 -39q0 -24 -15.5 -39.5t-39.5 -15.5q-23 0 -39 15.5t-16 39.5zM70 228v297h92v-291q0 -80 33 -122.5t94 -42.5t94 42.5
t33 122.5v291h93v-297q0 -114 -58.5 -177.5t-161.5 -63.5t-161 63.5t-58 177.5z" />
    <glyph glyph-name="yacute" unicode="&#xfd;" horiz-adv-x="556" 
d="M406 762l-139 -171h-59l100 171h98zM229 -218h-94l92 218l-219 525h104l135 -332q8 -14 33 -107l14 42q1 4 10 31l12 34l137 332h102z" />
    <glyph glyph-name="thorn" unicode="&#xfe;" horiz-adv-x="664" 
d="M170 86v-304h-92v977h93v-312q64 88 189 88q120 0 193 -75t73 -196q0 -117 -73 -190q-79 -81 -193 -81q-124 0 -190 93zM347 73q80 0 131 53t51 137t-51 137t-131 53q-81 0 -131 -53q-51 -56 -51 -137q0 -80 51 -136q50 -54 131 -54z" />
    <glyph glyph-name="ydieresis" unicode="&#xff;" horiz-adv-x="556" 
d="M134 671q0 22 16.5 38.5t39.5 16.5t38.5 -16t15.5 -39q0 -24 -15 -39.5t-39 -15.5t-40 15.5t-16 39.5zM312 671q0 22 16 38.5t39 16.5t39 -16t16 -39q0 -24 -15.5 -39.5t-39.5 -15.5q-23 0 -39 15.5t-16 39.5zM229 -218h-94l92 218l-219 525h104l135 -332q8 -14 33 -107
l14 42q1 4 10 31l12 34l137 332h102z" />
    <glyph glyph-name="Amacron" unicode="&#x100;" horiz-adv-x="727" 
d="M495 944v-68h-264v68h264zM180 177l-68 -177h-106l312 765h83l322 -765h-116l-68 177h-359zM337 574l-122 -307h288l-120 307l-8 23q-6 17 -15 48l-15 -47z" />
    <glyph glyph-name="amacron" unicode="&#x101;" horiz-adv-x="664" 
d="M464 705v-68h-264v68h264zM501 525h86v-525h-93v86q-66 -93 -190 -93q-113 0 -192 81q-74 77 -74 190q0 122 73 197q74 74 193 74q125 0 197 -96v86zM317 73q81 0 131 54q51 56 51 136q0 81 -51 137q-48 53 -131 53q-80 0 -131 -53t-51 -137t51 -137t131 -53z" />
    <glyph glyph-name="Abreve" unicode="&#x102;" horiz-adv-x="727" 
d="M221 983h53q5 -68 89 -68t89 68h53q-5 -72 -39 -104t-103 -32t-103 32t-39 104zM180 177l-68 -177h-106l312 765h83l322 -765h-116l-68 177h-359zM337 574l-122 -307h288l-120 307l-8 23q-6 17 -15 48l-15 -47z" />
    <glyph glyph-name="abreve" unicode="&#x103;" horiz-adv-x="664" 
d="M190 744h53q5 -68 89 -68t89 68h53q-5 -72 -39 -104t-103 -32t-103 32t-39 104zM501 525h86v-525h-93v86q-66 -93 -190 -93q-113 0 -192 81q-74 77 -74 190q0 122 73 197q74 74 193 74q125 0 197 -96v86zM317 73q81 0 131 54q51 56 51 136q0 81 -51 137q-48 53 -131 53
q-80 0 -131 -53t-51 -137t51 -137t131 -53z" />
    <glyph glyph-name="Aogonek" unicode="&#x104;" horiz-adv-x="727" 
d="M635 -108q0 -22 10.5 -30t36.5 -8h41v-70h-42q-110 0 -110 82q0 34 22 65t69 69h-55l-68 177h-359l-68 -177h-106l312 765h83l322 -765h-21q-67 -59 -67 -108zM215 267h288l-120 307l-8 23q-6 17 -15 48l-15 -47l-8 -24z" />
    <glyph glyph-name="aogonek" unicode="&#x105;" horiz-adv-x="664" 
d="M587 0h-21q-67 -59 -67 -108q0 -22 10.5 -30t36.5 -8h41v-70h-42q-110 0 -110 82q0 34 22 65t69 69h-32v86q-66 -93 -190 -93q-113 0 -192 81q-74 77 -74 190q0 122 73 197q74 74 193 74q125 0 197 -96v86h86v-525zM448 127q51 56 51 136q0 81 -51 137q-48 53 -131 53
q-80 0 -131 -53t-51 -137t51 -137t131 -53q81 0 131 54z" />
    <glyph glyph-name="Cacute" unicode="&#x106;" horiz-adv-x="750" 
d="M474 1001l-139 -171h-59l100 171h98zM707 681l-64 -72q-82 80 -204 80q-128 0 -208 -85q-85 -88 -85 -222t84 -221q81 -86 209 -86q132 0 209 86l66 -71q-110 -105 -275 -105q-169 0 -277 105q-118 116 -118 292t118 292q108 105 277 105q161 0 268 -98z" />
    <glyph glyph-name="cacute" unicode="&#x107;" horiz-adv-x="536" 
d="M367 762l-139 -171h-59l100 171h98zM493 471l-59 -68q-47 53 -124 53q-76 0 -124 -54q-49 -55 -49 -140q0 -83 49 -138q48 -54 124 -54q83 0 128 58l60 -69q-79 -72 -188 -72q-119 0 -193 76q-78 79 -78 199t76 198t195 78q110 0 183 -67z" />
    <glyph glyph-name="Ccircumflex" unicode="&#x108;" horiz-adv-x="750" 
d="M375 942l-85 -112h-59l96 171h96l96 -171h-60zM707 681l-64 -72q-82 80 -204 80q-128 0 -208 -85q-85 -88 -85 -222t84 -221q81 -86 209 -86q132 0 209 86l66 -71q-110 -105 -275 -105q-169 0 -277 105q-118 116 -118 292t118 292q108 105 277 105q161 0 268 -98z" />
    <glyph glyph-name="ccircumflex" unicode="&#x109;" horiz-adv-x="536" 
d="M268 703l-85 -112h-59l96 171h96l96 -171h-60zM493 471l-59 -68q-47 53 -124 53q-76 0 -124 -54q-49 -55 -49 -140q0 -83 49 -138q48 -54 124 -54q83 0 128 58l60 -69q-79 -72 -188 -72q-119 0 -193 76q-78 79 -78 199t76 198t195 78q110 0 183 -67z" />
    <glyph glyph-name="Cdotaccent" unicode="&#x10a;" horiz-adv-x="750" 
d="M317 910q0 23 17 40.5t40 17.5t40.5 -17.5t17.5 -40.5q0 -25 -16.5 -41.5t-41.5 -16.5t-41 16.5t-16 41.5zM707 681l-64 -72q-82 80 -204 80q-128 0 -208 -85q-85 -88 -85 -222t84 -221q81 -86 209 -86q132 0 209 86l66 -71q-110 -105 -275 -105q-169 0 -277 105
q-118 116 -118 292t118 292q108 105 277 105q161 0 268 -98z" />
    <glyph glyph-name="cdotaccent" unicode="&#x10b;" horiz-adv-x="536" 
d="M210 671q0 23 17 40.5t40 17.5t40.5 -17.5t17.5 -40.5q0 -25 -16.5 -41.5t-41.5 -16.5t-41 16.5t-16 41.5zM493 471l-59 -68q-47 53 -124 53q-76 0 -124 -54q-49 -55 -49 -140q0 -83 49 -138q48 -54 124 -54q83 0 128 58l60 -69q-79 -72 -188 -72q-119 0 -193 76
q-78 79 -78 199t76 198t195 78q110 0 183 -67z" />
    <glyph glyph-name="Ccaron" unicode="&#x10c;" horiz-adv-x="750" 
d="M423 830h-96l-96 171h59l85 -112l84 112h60zM707 681l-64 -72q-82 80 -204 80q-128 0 -208 -85q-85 -88 -85 -222t84 -221q81 -86 209 -86q132 0 209 86l66 -71q-110 -105 -275 -105q-169 0 -277 105q-118 116 -118 292t118 292q108 105 277 105q161 0 268 -98z" />
    <glyph glyph-name="ccaron" unicode="&#x10d;" horiz-adv-x="536" 
d="M316 591h-96l-96 171h59l85 -112l84 112h60zM493 471l-59 -68q-47 53 -124 53q-76 0 -124 -54q-49 -55 -49 -140q0 -83 49 -138q48 -54 124 -54q83 0 128 58l60 -69q-79 -72 -188 -72q-119 0 -193 76q-78 79 -78 199t76 198t195 78q110 0 183 -67z" />
    <glyph glyph-name="Dcaron" unicode="&#x10e;" horiz-adv-x="736" 
d="M416 830h-96l-96 171h59l85 -112l84 112h60zM246 0h-158v764h158q217 0 328 -97t111 -285t-111 -285t-328 -97zM261 674h-73v-584h73q323 0 323 292t-323 292z" />
    <glyph glyph-name="dcaron" unicode="&#x10f;" horiz-adv-x="952" 
d="M769 496l-68 26l92 257l97 -40zM503 450v309h93v-759h-85v79q-77 -86 -201 -86q-122 0 -197 75t-75 196q0 115 75 190q81 81 197 81q124 0 193 -85zM322 454q-81 0 -134 -53q-52 -52 -52 -136q0 -81 52 -136q51 -54 134 -54t134 54q52 55 52 136q0 84 -52 136
q-53 53 -134 53z" />
    <glyph glyph-name="dcroat" unicode="&#x111;" horiz-adv-x="743" 
d="M725 678v-63h-129v-615h-85v79q-77 -86 -201 -86q-122 0 -197 75t-75 196q0 115 75 190q81 81 197 81q124 0 193 -85v165h-278v63h278v81h93v-81h129zM456 129q52 55 52 136q0 84 -52 136q-53 53 -134 53t-134 -53q-52 -52 -52 -136q0 -81 52 -136q51 -54 134 -54t134 54
z" />
    <glyph glyph-name="Emacron" unicode="&#x112;" horiz-adv-x="569" 
d="M416 944v-68h-264v68h264zM485 90v-90h-397v764h397v-90h-298v-239h298v-88h-298v-257h298z" />
    <glyph glyph-name="emacron" unicode="&#x113;" horiz-adv-x="625" 
d="M444 705v-68h-264v68h264zM585 239v-7h-452q5 -72 57 -117q51 -45 131 -45q102 0 175 85l67 -54q-97 -114 -245 -114q-130 0 -208 86q-70 76 -70 186q0 125 76 203q74 76 194 76q123 0 199 -81q76 -82 76 -218zM133 306h349q-10 70 -57 109q-47 41 -116 41
q-70 0 -118 -42q-51 -43 -58 -108z" />
    <glyph glyph-name="Ebreve" unicode="&#x114;" horiz-adv-x="569" 
d="M142 983h53q5 -68 89 -68t89 68h53q-5 -72 -39 -104t-103 -32t-103 32t-39 104zM485 90v-90h-397v764h397v-90h-298v-239h298v-88h-298v-257h298z" />
    <glyph glyph-name="ebreve" unicode="&#x115;" horiz-adv-x="625" 
d="M170 744h53q5 -68 89 -68t89 68h53q-5 -72 -39 -104t-103 -32t-103 32t-39 104zM585 239v-7h-452q5 -72 57 -117q51 -45 131 -45q102 0 175 85l67 -54q-97 -114 -245 -114q-130 0 -208 86q-70 76 -70 186q0 125 76 203q74 76 194 76q123 0 199 -81q76 -82 76 -218z
M133 306h349q-10 70 -57 109q-47 41 -116 41q-70 0 -118 -42q-51 -43 -58 -108z" />
    <glyph glyph-name="Edotaccent" unicode="&#x116;" horiz-adv-x="569" 
d="M227 910q0 23 17 40.5t40 17.5t40.5 -17.5t17.5 -40.5q0 -25 -16.5 -41.5t-41.5 -16.5t-41 16.5t-16 41.5zM485 90v-90h-397v764h397v-90h-298v-239h298v-88h-298v-257h298z" />
    <glyph glyph-name="edotaccent" unicode="&#x117;" horiz-adv-x="625" 
d="M255 671q0 23 17 40.5t40 17.5t40.5 -17.5t17.5 -40.5q0 -25 -16.5 -41.5t-41.5 -16.5t-41 16.5t-16 41.5zM585 239v-7h-452q5 -72 57 -117q51 -45 131 -45q102 0 175 85l67 -54q-97 -114 -245 -114q-130 0 -208 86q-70 76 -70 186q0 125 76 203q74 76 194 76
q123 0 199 -81q76 -82 76 -218zM133 306h349q-10 70 -57 109q-47 41 -116 41q-70 0 -118 -42q-51 -43 -58 -108z" />
    <glyph glyph-name="Eogonek" unicode="&#x118;" horiz-adv-x="569" 
d="M485 674h-298v-239h298v-88h-298v-257h298v-90h-21q-67 -59 -67 -108q0 -22 10.5 -30t36.5 -8h41v-70h-42q-110 0 -110 82q0 34 22 65t69 69h-336v764h397v-90z" />
    <glyph glyph-name="eogonek" unicode="&#x119;" horiz-adv-x="625" 
d="M585 239v-7h-452q5 -72 57 -117q51 -45 131 -45q102 0 175 85l67 -54q-97 -114 -245 -114q-130 0 -208 86q-70 76 -70 186q0 125 76 203q74 76 194 76q123 0 199 -81q76 -82 76 -218zM133 306h349q-10 70 -57 109q-47 41 -116 41q-70 0 -118 -42q-51 -43 -58 -108zM524 0
h40q-67 -59 -67 -108q0 -22 10.5 -30t36.5 -8h41v-70h-42q-110 0 -110 82q0 34 22 65t69 69z" />
    <glyph glyph-name="Ecaron" unicode="&#x11a;" horiz-adv-x="569" 
d="M332 830h-96l-96 171h59l85 -112l84 112h60zM485 90v-90h-397v764h397v-90h-298v-239h298v-88h-298v-257h298z" />
    <glyph glyph-name="ecaron" unicode="&#x11b;" horiz-adv-x="625" 
d="M360 591h-96l-96 171h59l85 -112l84 112h60zM585 239v-7h-452q5 -72 57 -117q51 -45 131 -45q102 0 175 85l67 -54q-97 -114 -245 -114q-130 0 -208 86q-70 76 -70 186q0 125 76 203q74 76 194 76q123 0 199 -81q76 -82 76 -218zM133 306h349q-10 70 -57 109
q-47 41 -116 41q-70 0 -118 -42q-51 -43 -58 -108z" />
    <glyph glyph-name="Gcircumflex" unicode="&#x11c;" horiz-adv-x="875" 
d="M437 942l-85 -112h-59l96 171h96l96 -171h-60zM713 676l-71 -70q-76 83 -206 83q-122 0 -202 -81q-88 -93 -88 -226t83 -221q81 -86 207 -86q118 0 196 69q79 68 97 191h-273v91h377v-22q0 -133 -51 -226.5t-141 -143.5q-85 -49 -202 -49q-169 0 -277 105
q-118 116 -118 292t118 292q108 105 277 105q171 0 274 -103z" />
    <glyph glyph-name="gcircumflex" unicode="&#x11d;" horiz-adv-x="664" 
d="M332 703l-85 -112h-59l96 171h96l96 -171h-60zM501 56v30q-61 -93 -187 -93q-114 0 -193 81q-74 79 -74 190q0 123 74 197t193 74q125 0 197 -96v86h85v-450q0 -297 -284 -297q-165 0 -258 118l75 54q72 -90 187 -90q185 0 185 196zM327 73q81 0 131 54q51 56 51 136
q0 81 -51 137q-48 53 -131 53q-80 0 -131 -53t-51 -137t51 -137t131 -53z" />
    <glyph glyph-name="Gbreve" unicode="&#x11e;" horiz-adv-x="875" 
d="M295 983h53q5 -68 89 -68t89 68h53q-5 -72 -39 -104t-103 -32t-103 32t-39 104zM713 676l-71 -70q-76 83 -206 83q-122 0 -202 -81q-88 -93 -88 -226t83 -221q81 -86 207 -86q118 0 196 69q79 68 97 191h-273v91h377v-22q0 -133 -51 -226.5t-141 -143.5q-85 -49 -202 -49
q-169 0 -277 105q-118 116 -118 292t118 292q108 105 277 105q171 0 274 -103z" />
    <glyph glyph-name="gbreve" unicode="&#x11f;" horiz-adv-x="664" 
d="M190 744h53q5 -68 89 -68t89 68h53q-5 -72 -39 -104t-103 -32t-103 32t-39 104zM501 56v30q-61 -93 -187 -93q-114 0 -193 81q-74 79 -74 190q0 123 74 197t193 74q125 0 197 -96v86h85v-450q0 -297 -284 -297q-165 0 -258 118l75 54q72 -90 187 -90q185 0 185 196z
M327 73q81 0 131 54q51 56 51 136q0 81 -51 137q-48 53 -131 53q-80 0 -131 -53t-51 -137t51 -137t131 -53z" />
    <glyph glyph-name="Gdotaccent" unicode="&#x120;" horiz-adv-x="875" 
d="M380 910q0 23 17 40.5t40 17.5t40.5 -17.5t17.5 -40.5q0 -25 -16.5 -41.5t-41.5 -16.5t-41 16.5t-16 41.5zM713 676l-71 -70q-76 83 -206 83q-122 0 -202 -81q-88 -93 -88 -226t83 -221q81 -86 207 -86q118 0 196 69q79 68 97 191h-273v91h377v-22q0 -133 -51 -226.5
t-141 -143.5q-85 -49 -202 -49q-169 0 -277 105q-118 116 -118 292t118 292q108 105 277 105q171 0 274 -103z" />
    <glyph glyph-name="gdotaccent" unicode="&#x121;" horiz-adv-x="664" 
d="M274 671q0 23 17 40.5t40 17.5t40.5 -17.5t17.5 -40.5q0 -25 -16.5 -41.5t-41.5 -16.5t-41 16.5t-16 41.5zM501 56v30q-61 -93 -187 -93q-114 0 -193 81q-74 79 -74 190q0 123 74 197t193 74q125 0 197 -96v86h85v-450q0 -297 -284 -297q-165 0 -258 118l75 54
q72 -90 187 -90q185 0 185 196zM327 73q81 0 131 54q51 56 51 136q0 81 -51 137q-48 53 -131 53q-80 0 -131 -53t-51 -137t51 -137t131 -53z" />
    <glyph glyph-name="Gcommaaccent" unicode="&#x122;" horiz-adv-x="875" 
d="M713 676l-71 -70q-76 83 -206 83q-122 0 -202 -81q-88 -93 -88 -226t83 -221q81 -86 207 -86q118 0 196 69q79 68 97 191h-273v91h377v-22q0 -133 -51 -226.5t-141 -143.5q-85 -49 -202 -49q-169 0 -277 105q-118 116 -118 292t118 292q108 105 277 105q171 0 274 -103z
" />
    <glyph glyph-name="gcommaaccent" unicode="&#x123;" horiz-adv-x="664" 
d="M359 838l67 -26l-91 -257l-98 40zM501 56v30q-61 -93 -187 -93q-114 0 -193 81q-74 79 -74 190q0 123 74 197t193 74q125 0 197 -96v86h85v-450q0 -297 -284 -297q-165 0 -258 118l75 54q72 -90 187 -90q185 0 185 196zM327 73q81 0 131 54q51 56 51 136q0 81 -51 137
q-48 53 -131 53q-80 0 -131 -53t-51 -137t51 -137t131 -53z" />
    <glyph glyph-name="Hcircumflex" unicode="&#x124;" horiz-adv-x="775" 
d="M387 942l-85 -112h-59l96 171h96l96 -171h-60zM187 349v-349h-99v764h99v-325h401v325h99v-764h-99v349h-401z" />
    <glyph glyph-name="hcircumflex" unicode="&#x125;" horiz-adv-x="593" 
d="M327 535q92 0 143.5 -60t51.5 -171v-304h-95v295q0 82 -27 120.5t-89 38.5q-136 0 -136 -163v-291h-95v759h95v-127l73 130h96l96 -171h-60l-84 112l-85 -112h-36v-126q63 70 152 70z" />
    <glyph glyph-name="Hbar" unicode="&#x126;" horiz-adv-x="775" 
d="M588 764h99v-764h-99v349h-401v-349h-99v764h99v-152h401v152zM187 439h401v110h-401v-110z" />
    <glyph glyph-name="hbar" unicode="&#x127;" horiz-adv-x="593" 
d="M327 535q92 0 143.5 -60t51.5 -171v-304h-95v295q0 82 -27 120.5t-89 38.5q-136 0 -136 -163v-291h-95v759h95v-54h253v-68h-253v-172q63 70 152 70z" />
    <glyph glyph-name="Itilde" unicode="&#x128;" 
d="M239 966h43q-20 -102 -96 -102q-7 0 -32 5l-47 14q-11 3 -24 3q-31 0 -44 -33h-43q9 48 33.5 74t60.5 26q21 0 29 -4l48 -14q25 -5 26 -5q32 0 46 36zM187 764v-764h-99v764h99z" />
    <glyph glyph-name="itilde" unicode="&#x129;" horiz-adv-x="250" 
d="M225 727h43q-20 -102 -96 -102q-7 0 -32 5l-47 14q-11 3 -24 3q-31 0 -44 -33h-43q9 48 33.5 74t60.5 26q21 0 29 -4l48 -14q25 -5 26 -5q33 0 46 36zM171 525v-525h-92v525h92z" />
    <glyph glyph-name="Imacron" unicode="&#x12a;" 
d="M271 944v-68h-264v68h264zM187 764v-764h-99v764h99z" />
    <glyph glyph-name="imacron" unicode="&#x12b;" horiz-adv-x="250" 
d="M257 705v-68h-264v68h264zM171 525v-525h-92v525h92z" />
    <glyph glyph-name="Ibreve" unicode="&#x12c;" 
d="M-3 983h53q5 -68 89 -68t89 68h53q-5 -72 -39 -104t-103 -32t-103 32t-39 104zM187 764v-764h-99v764h99z" />
    <glyph glyph-name="ibreve" unicode="&#x12d;" horiz-adv-x="250" 
d="M-17 744h53q5 -68 89 -68t89 68h53q-5 -72 -39 -104t-103 -32t-103 32t-39 104zM171 525v-525h-92v525h92z" />
    <glyph glyph-name="Iogonek" unicode="&#x12e;" 
d="M187 0h-21q-67 -59 -67 -108q0 -22 10.5 -30t36.5 -8h41v-70h-42q-110 0 -110 82q0 34 22 65t69 69h-38v764h99v-764z" />
    <glyph glyph-name="iogonek" unicode="&#x12f;" horiz-adv-x="250" 
d="M125 637q-26 0 -45 18.5t-19 44.5t19 45t45 19q27 0 45.5 -18.5t18.5 -45.5q0 -26 -19 -44.5t-45 -18.5zM160 -146h41v-70h-42q-110 0 -110 82q0 34 22 65t69 69h-64v525h95v-525h9q-67 -59 -67 -108q0 -22 10.5 -30t36.5 -8z" />
    <glyph glyph-name="Idotaccent" unicode="&#x130;" 
d="M82 910q0 23 17 40.5t40 17.5t40.5 -17.5t17.5 -40.5q0 -25 -16.5 -41.5t-41.5 -16.5t-41 16.5t-16 41.5zM187 764v-764h-99v764h99z" />
    <glyph glyph-name="dotlessi" unicode="&#x131;" horiz-adv-x="250" 
d="M171 525v-525h-92v525h92z" />
    <glyph glyph-name="IJ" unicode="&#x132;" horiz-adv-x="755" 
d="M187 764v-764h-99v764h99zM332 -15h-16v94h20q124 0 182 46q32 25 43 69q7 28 7 102v378h-241v90h340v-507q0 -273 -319 -273h-8q-6 0 -8 1z" />
    <glyph glyph-name="ij" unicode="&#x133;" horiz-adv-x="509" 
d="M61 700q0 26 19 45t45 19q27 0 45.5 -18.5t18.5 -45.5q0 -26 -19 -44.5t-45 -18.5t-45 18.5t-19 44.5zM320 700q0 26 18.5 45t44.5 19q27 0 45.5 -18.5t18.5 -45.5q0 -26 -19 -44.5t-45 -18.5t-44.5 18.5t-18.5 44.5zM171 525v-525h-95v525h95zM335 -54v579h95v-541
q0 -104 -37.5 -153t-120.5 -53v85q63 1 63 83z" />
    <glyph glyph-name="Jcircumflex" unicode="&#x134;" horiz-adv-x="477" 
d="M239 942l-85 -112h-59l96 171h96l96 -171h-60zM54 -15h-16v94h20q124 0 182 46q32 25 43 69q7 28 7 102v378h-241v90h340v-507q0 -273 -319 -273h-8q-6 0 -8 1z" />
    <glyph glyph-name="jcircumflex" unicode="&#x135;" horiz-adv-x="259" 
d="M178 762l96 -171h-60l-43 58q-17 -12 -38 -12q-23 0 -41 15l-47 -61h-59l96 171h35q14 2 16 2q6 0 16 -2h29zM85 -54v579h95v-541q0 -104 -37.5 -153t-120.5 -53v85q63 1 63 83z" />
    <glyph glyph-name="Kcommaaccent" unicode="&#x136;" horiz-adv-x="655" 
d="M188 292v-292h-100v764h100v-307q0 -13 -2 -51l30 36l280 322h129l-321 -356l-28 -27q10 -4 15 -11q2 -4 5 -7l5 -5l332 -358h-139l-278 307l-9 12q-3 4 -10 12.5t-11 12.5q2 -38 2 -52z" />
    <glyph glyph-name="kcommaaccent" unicode="&#x137;" horiz-adv-x="542" 
d="M172 255v-255h-92v759h92v-456l230 222h112l-266 -240l276 -285h-122zM236 -301l-68 26l92 257l97 -40z" />
    <glyph glyph-name="kgreenlandic" unicode="&#x138;" horiz-adv-x="542" 
d="M172 255v-255h-92v526h92v-223l230 222h112l-266 -240l276 -285h-122z" />
    <glyph glyph-name="Lacute" unicode="&#x139;" horiz-adv-x="481" 
d="M340 1001l-139 -171h-59l100 171h98zM450 93v-93h-362v764h99v-671h263z" />
    <glyph glyph-name="lacute" unicode="&#x13a;" horiz-adv-x="250" 
d="M224 762l-53 -65v-697h-92v591h-53l53 91v77h45l2 3h98z" />
    <glyph glyph-name="Lcommaaccent" unicode="&#x13b;" horiz-adv-x="481" 
d="M450 93v-93h-362v764h99v-671h263z" />
    <glyph glyph-name="lcommaaccent" unicode="&#x13c;" horiz-adv-x="250" 
d="M171 759v-759h-92v759h92zM93 -307l-68 26l92 257l97 -40z" />
    <glyph glyph-name="Lcaron" unicode="&#x13d;" horiz-adv-x="481" 
d="M187 93h263v-93h-362v764h59l91 254l97 -40l-121 -243l-27 10v-652z" />
    <glyph glyph-name="lcaron" unicode="&#x13e;" horiz-adv-x="528" 
d="M345 496l-68 26l92 257l97 -40zM171 759v-759h-92v759h92z" />
    <glyph glyph-name="Ldot" unicode="&#x13f;" horiz-adv-x="481" 
d="M187 93h263v-93h-362v764h99v-121q20 28 53 28q27 0 45.5 -18.5t18.5 -45.5q0 -26 -19 -45t-45 -19q-33 0 -53 28v-478z" />
    <glyph glyph-name="ldot" unicode="&#x140;" horiz-adv-x="528" 
d="M171 759v-759h-92v759h92zM325 368q0 26 19 45t45 19q27 0 45.5 -18.5t18.5 -45.5q0 -26 -19 -45t-45 -19t-45 19t-19 45z" />
    <glyph glyph-name="Lslash" unicode="&#x141;" horiz-adv-x="481" 
d="M450 93v-93h-362v306l-88 -74v76l88 74v382h99v-323l137 114v-77l-137 -114v-271h263z" />
    <glyph glyph-name="lslash" unicode="&#x142;" horiz-adv-x="250" 
d="M171 401v-401h-92v344l-65 -53l-29 37l94 80v351h92v-296l63 53l31 -37z" />
    <glyph glyph-name="Nacute" unicode="&#x143;" horiz-adv-x="773" 
d="M485 1001l-139 -171h-59l100 171h98zM185 504v-504h-97v764h93l371 -528q31 -46 55 -102q-19 70 -19 121v509h97v-764h-81l-387 552q-36 51 -48 89q16 -68 16 -137z" />
    <glyph glyph-name="nacute" unicode="&#x144;" horiz-adv-x="593" 
d="M395 762l-139 -171h-59l100 171h98zM172 291v-291h-92v525h92v-60q69 70 155 70q92 0 143.5 -60t51.5 -171v-304h-93v295q0 82 -28 120.5t-90 38.5q-139 0 -139 -163z" />
    <glyph glyph-name="Ncommaaccent" unicode="&#x145;" horiz-adv-x="773" 
d="M185 504v-504h-97v764h93l371 -528q31 -46 55 -102q-19 70 -19 121v509h97v-764h-81l-387 552q-36 51 -48 89q16 -68 16 -137z" />
    <glyph glyph-name="ncommaaccent" unicode="&#x146;" horiz-adv-x="593" 
d="M172 291v-291h-92v525h92v-60q69 70 155 70q92 0 143.5 -60t51.5 -171v-304h-93v295q0 82 -28 120.5t-90 38.5q-139 0 -139 -163zM260 -306l-68 26l92 257l97 -40z" />
    <glyph glyph-name="Ncaron" unicode="&#x147;" horiz-adv-x="773" 
d="M434 830h-96l-96 171h59l85 -112l84 112h60zM185 504v-504h-97v764h93l371 -528q31 -46 55 -102q-19 70 -19 121v509h97v-764h-81l-387 552q-36 51 -48 89q16 -68 16 -137z" />
    <glyph glyph-name="ncaron" unicode="&#x148;" horiz-adv-x="593" 
d="M344 591h-96l-96 171h59l85 -112l84 112h60zM172 291v-291h-92v525h92v-60q69 70 155 70q92 0 143.5 -60t51.5 -171v-304h-93v295q0 82 -28 120.5t-90 38.5q-139 0 -139 -163z" />
    <glyph glyph-name="napostrophe" unicode="&#x149;" horiz-adv-x="593" 
d="M0 559l-68 26l92 257l97 -40zM172 291v-291h-92v525h92v-60q69 70 155 70q92 0 143.5 -60t51.5 -171v-304h-93v295q0 82 -28 120.5t-90 38.5q-139 0 -139 -163z" />
    <glyph glyph-name="Omacron" unicode="&#x14c;" horiz-adv-x="891" 
d="M577 944v-68h-264v68h264zM439 -15q-168 0 -277 106q-118 116 -118 291t119 292q108 105 276 105t276 -105q119 -117 119 -292t-118 -291q-109 -106 -277 -106zM438 75q126 0 206 81q88 88 88 226q0 134 -84.5 220.5t-209.5 86.5q-127 0 -209.5 -85t-82.5 -222
q0 -138 88 -226q80 -81 204 -81z" />
    <glyph glyph-name="omacron" unicode="&#x14d;" horiz-adv-x="618" 
d="M441 705v-68h-264v68h264zM309 538q117 0 194 -79q76 -79 76 -197q0 -119 -77 -196q-79 -79 -193 -79t-193 79q-77 77 -77 196q0 120 77 197q79 79 193 79zM309 69q75 0 123 54q49 55 49 139q0 86 -49 141q-48 53 -123 53t-123 -54q-49 -55 -49 -140q0 -83 49 -138
t123 -55z" />
    <glyph glyph-name="Obreve" unicode="&#x14e;" horiz-adv-x="891" 
d="M303 983h53q5 -68 89 -68t89 68h53q-5 -72 -39 -104t-103 -32t-103 32t-39 104zM439 -15q-168 0 -277 106q-118 116 -118 291t119 292q108 105 276 105t276 -105q119 -117 119 -292t-118 -291q-109 -106 -277 -106zM438 75q126 0 206 81q88 88 88 226q0 134 -84.5 220.5
t-209.5 86.5q-127 0 -209.5 -85t-82.5 -222q0 -138 88 -226q80 -81 204 -81z" />
    <glyph glyph-name="obreve" unicode="&#x14f;" horiz-adv-x="618" 
d="M167 744h53q5 -68 89 -68t89 68h53q-5 -72 -39 -104t-103 -32t-103 32t-39 104zM309 538q117 0 194 -79q76 -79 76 -197q0 -119 -77 -196q-79 -79 -193 -79t-193 79q-77 77 -77 196q0 120 77 197q79 79 193 79zM309 69q75 0 123 54q49 55 49 139q0 86 -49 141
q-48 53 -123 53t-123 -54q-49 -55 -49 -140q0 -83 49 -138t123 -55z" />
    <glyph glyph-name="Ohungarumlaut" unicode="&#x150;" horiz-adv-x="891" 
d="M453 1001l-107 -171h-47l67 171h87zM592 1001l-120 -171h-47l81 171h86zM439 -15q-168 0 -277 106q-118 116 -118 291t119 292q108 105 276 105t276 -105q119 -117 119 -292t-118 -291q-109 -106 -277 -106zM438 75q126 0 206 81q88 88 88 226q0 134 -84.5 220.5
t-209.5 86.5q-127 0 -209.5 -85t-82.5 -222q0 -138 88 -226q80 -81 204 -81z" />
    <glyph glyph-name="ohungarumlaut" unicode="&#x151;" horiz-adv-x="618" 
d="M316 762l-107 -171h-47l67 171h87zM455 762l-120 -171h-47l81 171h86zM309 538q117 0 194 -79q76 -79 76 -197q0 -119 -77 -196q-79 -79 -193 -79t-193 79q-77 77 -77 196q0 120 77 197q79 79 193 79zM309 69q75 0 123 54q49 55 49 139q0 86 -49 141q-48 53 -123 53
t-123 -54q-49 -55 -49 -140q0 -83 49 -138t123 -55z" />
    <glyph glyph-name="OE" unicode="&#x152;" horiz-adv-x="1185" 
d="M715 625v139h386v-90h-297v-239h297v-88h-297v-257h297v-90h-386v147q-70 -162 -276 -162q-169 0 -277 105q-118 116 -118 292t118 292q108 105 271 105q200 0 282 -154zM438 689q-123 0 -204 -82q-88 -93 -88 -225q0 -133 85 -221q81 -86 207 -86q119 0 190 79
q83 92 83 228q0 134 -78.5 220.5t-194.5 86.5z" />
    <glyph glyph-name="oe" unicode="&#x153;" horiz-adv-x="1060" 
d="M1021 239v-7h-452q5 -72 57 -117q51 -45 131 -45q102 0 175 85l67 -54q-99 -114 -234 -114q-78 0 -140 34.5t-98 97.5q-77 -132 -223 -132q-111 0 -188 79q-77 77 -77 196t77.5 197.5t192.5 78.5q138 0 218 -129q79 129 219 129q123 0 199 -81q76 -82 76 -218zM309 69
q75 0 123 54q49 55 49 139q0 86 -49 141q-48 53 -123 53t-123 -54q-49 -55 -49 -140q0 -83 49 -138t123 -55zM569 306h349q-11 71 -56 110q-46 40 -116 40q-71 0 -119 -42q-51 -43 -58 -108z" />
    <glyph glyph-name="Racute" unicode="&#x154;" horiz-adv-x="616" 
d="M407 1001l-139 -171h-59l100 171h98zM187 311v-311h-99v764h174q141 0 215 -61t74 -171q0 -100 -63 -168q-64 -67 -167 -67h-6l269 -297h-125zM254 674h-67v-302h72q93 0 141.5 40.5t48.5 116.5q0 145 -195 145z" />
    <glyph glyph-name="racute" unicode="&#x155;" horiz-adv-x="356" 
d="M277 762l-139 -171h-59l100 171h98zM172 294v-294h-92v525h88v-71q47 80 137 80h16q2 0 16 -2v-94q-27 6 -46 6q-119 0 -119 -150z" />
    <glyph glyph-name="Rcommaaccent" unicode="&#x156;" horiz-adv-x="616" 
d="M187 311v-311h-99v764h174q141 0 215 -61t74 -171q0 -100 -63 -168q-64 -67 -167 -67h-6l269 -297h-125zM254 674h-67v-302h72q93 0 141.5 40.5t48.5 116.5q0 145 -195 145z" />
    <glyph glyph-name="rcommaaccent" unicode="&#x157;" horiz-adv-x="356" 
d="M172 294v-294h-92v525h88v-71q47 80 137 80h16q2 0 16 -2v-94q-27 6 -46 6q-119 0 -119 -150zM96 -309l-68 26l92 257l97 -40z" />
    <glyph glyph-name="Rcaron" unicode="&#x158;" horiz-adv-x="616" 
d="M356 830h-96l-96 171h59l85 -112l84 112h60zM187 311v-311h-99v764h174q141 0 215 -61t74 -171q0 -100 -63 -168q-64 -67 -167 -67h-6l269 -297h-125zM254 674h-67v-302h72q93 0 141.5 40.5t48.5 116.5q0 145 -195 145z" />
    <glyph glyph-name="rcaron" unicode="&#x159;" horiz-adv-x="356" 
d="M226 591h-96l-96 171h59l85 -112l84 112h60zM172 294v-294h-92v525h88v-71q47 80 137 80h16q2 0 16 -2v-94q-27 6 -46 6q-119 0 -119 -150z" />
    <glyph glyph-name="Sacute" unicode="&#x15a;" horiz-adv-x="616" 
d="M407 1001l-139 -171h-59l100 171h98zM47 215l101 4q1 -69 42 -107t113 -38q68 0 107 33t39 86q0 58 -41 93q-31 26 -119 55q-5 2 -27.5 9.5t-29.5 10t-26 10t-29.5 13.5t-25.5 15t-28 20q-65 53 -65 153q0 94 62 150q63 57 169 57q112 0 178 -60.5t71 -169.5h-100
q-18 147 -148 147q-62 0 -99 -34.5t-37 -89.5q0 -51 34 -83q23 -21 67 -35q127 -44 167 -64q87 -43 114 -110q14 -39 14 -82q0 -89 -70 -151t-179 -62q-112 0 -178.5 60.5t-75.5 169.5z" />
    <glyph glyph-name="sacute" unicode="&#x15b;" horiz-adv-x="468" 
d="M333 762l-139 -171h-59l100 171h98zM44 153h91q6 -88 99 -88q47 0 73 22.5t26 60.5q0 37 -34 55q-2 1 -18 8q-3 1 -10.5 3t-11.5 4l-54 15q-81 24 -118 59.5t-37 94.5q0 64 50 108q49 43 128 43q85 0 132.5 -42.5t47.5 -117.5v-4h-87q-5 86 -89 86q-44 0 -69 -20t-25 -52
q0 -33 23 -48t81 -31q101 -27 129 -50q51 -42 51 -110q0 -72 -50 -116q-52 -46 -137 -46q-90 0 -139.5 43.5t-51.5 122.5z" />
    <glyph glyph-name="Scircumflex" unicode="&#x15c;" horiz-adv-x="616" 
d="M308 942l-85 -112h-59l96 171h96l96 -171h-60zM47 215l101 4q1 -69 42 -107t113 -38q68 0 107 33t39 86q0 58 -41 93q-31 26 -119 55q-5 2 -27.5 9.5t-29.5 10t-26 10t-29.5 13.5t-25.5 15t-28 20q-65 53 -65 153q0 94 62 150q63 57 169 57q112 0 178 -60.5t71 -169.5
h-100q-18 147 -148 147q-62 0 -99 -34.5t-37 -89.5q0 -51 34 -83q23 -21 67 -35q127 -44 167 -64q87 -43 114 -110q14 -39 14 -82q0 -89 -70 -151t-179 -62q-112 0 -178.5 60.5t-75.5 169.5z" />
    <glyph glyph-name="scircumflex" unicode="&#x15d;" horiz-adv-x="468" 
d="M234 703l-85 -112h-59l96 171h96l96 -171h-60zM44 153h91q6 -88 99 -88q47 0 73 22.5t26 60.5q0 37 -34 55q-2 1 -18 8q-3 1 -10.5 3t-11.5 4l-54 15q-81 24 -118 59.5t-37 94.5q0 64 50 108q49 43 128 43q85 0 132.5 -42.5t47.5 -117.5v-4h-87q-5 86 -89 86
q-44 0 -69 -20t-25 -52q0 -33 23 -48t81 -31q101 -27 129 -50q51 -42 51 -110q0 -72 -50 -116q-52 -46 -137 -46q-90 0 -139.5 43.5t-51.5 122.5z" />
    <glyph glyph-name="Scedilla" unicode="&#x15e;" horiz-adv-x="616" 
d="M536 280q14 -39 14 -82q0 -89 -70 -151q-63 -57 -171 -62v-35h14q109 0 109 -88q0 -92 -123 -92q-50 0 -126 22v49q76 -19 121 -19q58 0 58 40q0 42 -65 42h-12h-6q-6 0 -8 -1v83q-99 8 -157.5 67.5t-66.5 161.5l101 4q1 -69 42 -107t113 -38q68 0 107 33t39 86
q0 58 -41 93q-31 26 -119 55q-5 2 -27.5 9.5t-29.5 10t-26 10t-29.5 13.5t-25.5 15t-28 20q-65 53 -65 153q0 94 62 150q63 57 169 57q112 0 178 -60.5t71 -169.5h-100q-18 147 -148 147q-62 0 -99 -34.5t-37 -89.5q0 -51 34 -83q23 -21 67 -35q127 -44 167 -64
q87 -43 114 -110z" />
    <glyph glyph-name="scedilla" unicode="&#x15f;" horiz-adv-x="468" 
d="M371 259q51 -42 51 -110q0 -72 -50 -116q-52 -46 -136 -46v-37h14q109 0 109 -88q0 -92 -123 -92q-50 0 -126 22v49q76 -19 121 -19q58 0 58 40q0 42 -65 42h-12h-6q-6 0 -8 -1v86q-149 18 -154 164h91q6 -88 99 -88q47 0 73 22.5t26 60.5q0 37 -34 55q-2 1 -18 8
q-3 1 -10.5 3t-11.5 4l-54 15q-81 24 -118 59.5t-37 94.5q0 64 50 108q49 43 128 43q85 0 132.5 -42.5t47.5 -117.5v-4h-87q-5 86 -89 86q-44 0 -69 -20t-25 -52q0 -33 23 -48t81 -31q101 -27 129 -50z" />
    <glyph glyph-name="Scaron" unicode="&#x160;" horiz-adv-x="616" 
d="M356 833h-96l-96 171h59l85 -112l84 112h60zM47 215l101 4q1 -69 42 -107t113 -38q68 0 107 33t39 86q0 58 -41 93q-31 26 -119 55q-5 2 -27.5 9.5t-29.5 10t-26 10t-29.5 13.5t-25.5 15t-28 20q-65 53 -65 153q0 94 62 150q63 57 169 57q112 0 178 -60.5t71 -169.5h-100
q-18 147 -148 147q-62 0 -99 -34.5t-37 -89.5q0 -51 34 -83q23 -21 67 -35q127 -44 167 -64q87 -43 114 -110q14 -39 14 -82q0 -89 -70 -151t-179 -62q-112 0 -178.5 60.5t-75.5 169.5z" />
    <glyph glyph-name="scaron" unicode="&#x161;" horiz-adv-x="468" 
d="M282 591h-96l-96 171h59l85 -112l84 112h60zM44 153h91q6 -88 99 -88q47 0 73 22.5t26 60.5q0 37 -34 55q-2 1 -18 8q-3 1 -10.5 3t-11.5 4l-54 15q-81 24 -118 59.5t-37 94.5q0 64 50 108q49 43 128 43q85 0 132.5 -42.5t47.5 -117.5v-4h-87q-5 86 -89 86q-44 0 -69 -20
t-25 -52q0 -33 23 -48t81 -31q101 -27 129 -50q51 -42 51 -110q0 -72 -50 -116q-52 -46 -137 -46q-90 0 -139.5 43.5t-51.5 122.5z" />
    <glyph glyph-name="uni021A.1" unicode="&#x162;" horiz-adv-x="507" 
d="M303 674v-674h-99v674h-195v90h489v-90h-195z" />
    <glyph glyph-name="Tcaron" unicode="&#x164;" horiz-adv-x="507" 
d="M301 830h-96l-96 171h59l85 -112l84 112h60zM303 674v-674h-99v674h-195v90h489v-90h-195z" />
    <glyph glyph-name="tcaron" unicode="&#x165;" horiz-adv-x="593" 
d="M410 496l-68 26l92 257l97 -40zM87 109v338h-69v78h69v128h93v-128h89v-78h-89v-327q0 -45 40 -45h49v-88h-52q-71 0 -100.5 28t-29.5 94z" />
    <glyph glyph-name="Tbar" unicode="&#x166;" horiz-adv-x="507" 
d="M503 461v-63h-200v-398h-99v398h-201v63h201v213h-195v90h489v-90h-195v-213h200z" />
    <glyph glyph-name="tbar" unicode="&#x167;" horiz-adv-x="315" 
d="M274 295h-94v-175q0 -45 40 -45h49v-88h-52q-71 0 -100.5 28t-29.5 94v186h-77v68h77v84h-69v78h69v128h93v-128h89v-78h-89v-84h94v-68z" />
    <glyph glyph-name="Utilde" unicode="&#x168;" horiz-adv-x="748" 
d="M474 966h43q-19 -102 -96 -102q-7 0 -32 5l-47 14q-11 3 -24 3q-30 0 -44 -33h-43q9 48 33.5 74t60.5 26q21 0 29 -4l48 -14q25 -5 26 -5q32 0 46 36zM81 287v477h100v-471q0 -105 50.5 -161t142.5 -56q192 0 192 217v471h100v-477q0 -138 -81 -221q-81 -81 -211 -81
q-132 0 -211 81q-82 82 -82 221z" />
    <glyph glyph-name="Umacron" unicode="&#x16a;" horiz-adv-x="748" 
d="M506 944v-68h-264v68h264zM81 287v477h100v-471q0 -105 50.5 -161t142.5 -56q192 0 192 217v471h100v-477q0 -138 -81 -221q-81 -81 -211 -81q-132 0 -211 81q-82 82 -82 221z" />
    <glyph glyph-name="umacron" unicode="&#x16b;" horiz-adv-x="579" 
d="M421 705v-68h-264v68h264zM70 228v297h92v-291q0 -80 33 -122.5t94 -42.5t94 42.5t33 122.5v291h93v-297q0 -114 -58.5 -177.5t-161.5 -63.5t-161 63.5t-58 177.5z" />
    <glyph glyph-name="Ubreve" unicode="&#x16c;" horiz-adv-x="748" 
d="M232 983h53q5 -68 89 -68t89 68h53q-5 -72 -39 -104t-103 -32t-103 32t-39 104zM81 287v477h100v-471q0 -105 50.5 -161t142.5 -56q192 0 192 217v471h100v-477q0 -138 -81 -221q-81 -81 -211 -81q-132 0 -211 81q-82 82 -82 221z" />
    <glyph glyph-name="ubreve" unicode="&#x16d;" horiz-adv-x="579" 
d="M147 744h53q5 -68 89 -68t89 68h53q-5 -72 -39 -104t-103 -32t-103 32t-39 104zM70 228v297h92v-291q0 -80 33 -122.5t94 -42.5t94 42.5t33 122.5v291h93v-297q0 -114 -58.5 -177.5t-161.5 -63.5t-161 63.5t-58 177.5z" />
    <glyph glyph-name="Uring" unicode="&#x16e;" horiz-adv-x="748" 
d="M250 945q0 52 36 88q35 35 87 35q53 0 88 -35q36 -35 36 -88q0 -52 -36 -88t-88 -36q-53 0 -87 36q-36 36 -36 88zM307 944q0 -28 19 -47t47 -19q27 0 46.5 19t19.5 47q0 27 -19.5 46.5t-46.5 19.5q-28 0 -47 -19t-19 -47zM81 287v477h100v-471q0 -105 50.5 -161
t142.5 -56q192 0 192 217v471h100v-477q0 -138 -81 -221q-81 -81 -211 -81q-132 0 -211 81q-82 82 -82 221z" />
    <glyph glyph-name="uring" unicode="&#x16f;" horiz-adv-x="579" 
d="M166 706q0 52 36 88q35 35 87 35q53 0 88 -35q36 -34 36 -88q0 -52 -36 -88t-88 -36q-53 0 -87 36q-36 36 -36 88zM223 705q0 -28 19 -47t47 -19q27 0 46.5 19t19.5 47q0 27 -19.5 46.5t-46.5 19.5q-28 0 -47 -19t-19 -47zM70 228v297h92v-291q0 -80 33 -122.5t94 -42.5
t94 42.5t33 122.5v291h93v-297q0 -114 -58.5 -177.5t-161.5 -63.5t-161 63.5t-58 177.5z" />
    <glyph glyph-name="Uhungarumlaut" unicode="&#x170;" horiz-adv-x="748" 
d="M381 1001l-107 -171h-47l67 171h87zM520 1001l-120 -171h-47l81 171h86zM81 287v477h100v-471q0 -105 50.5 -161t142.5 -56q192 0 192 217v471h100v-477q0 -138 -81 -221q-81 -81 -211 -81q-132 0 -211 81q-82 82 -82 221z" />
    <glyph glyph-name="uhungarumlaut" unicode="&#x171;" horiz-adv-x="579" 
d="M297 762l-107 -171h-47l67 171h87zM436 762l-120 -171h-47l81 171h86zM70 228v297h92v-291q0 -80 33 -122.5t94 -42.5t94 42.5t33 122.5v291h93v-297q0 -114 -58.5 -177.5t-161.5 -63.5t-161 63.5t-58 177.5z" />
    <glyph glyph-name="Uogonek" unicode="&#x172;" horiz-adv-x="748" 
d="M81 287v477h100v-471q0 -105 50.5 -161t142.5 -56q192 0 192 217v471h100v-477q0 -138 -81 -221q-81 -81 -211 -81q-132 0 -211 81q-82 82 -82 221zM605 0h40q-67 -59 -67 -108q0 -22 10.5 -30t36.5 -8h41v-70h-42q-110 0 -110 82q0 34 22 65t69 69z" />
    <glyph glyph-name="uogonek" unicode="&#x173;" horiz-adv-x="579" 
d="M70 228v297h92v-291q0 -80 33 -122.5t94 -42.5t94 42.5t33 122.5v291h93v-297q0 -114 -58.5 -177.5t-161.5 -63.5t-161 63.5t-58 177.5zM448 0h40q-67 -59 -67 -108q0 -22 10.5 -30t36.5 -8h41v-70h-42q-110 0 -110 82q0 34 22 65t69 69z" />
    <glyph glyph-name="Wcircumflex" unicode="&#x174;" horiz-adv-x="972" 
d="M486 942l-85 -112h-59l96 171h96l96 -171h-60zM463 556l-163 -556h-74l-235 764h105l148 -525q12 -40 20 -95q8 48 19 84l157 536h93l153 -526q1 -10 9 -31q2 -5 4 -14t3 -13l9 -36q5 28 12 50l6 22q3 7 5 21l146 527h101l-228 -764h-84l-165 557q-15 55 -19 85
q-7 -38 -22 -86z" />
    <glyph glyph-name="wcircumflex" unicode="&#x175;" horiz-adv-x="843" 
d="M421 703l-85 -112h-59l96 171h96l96 -171h-60zM410 381l-130 -381h-69l-197 525h98l115 -332q7 -20 20 -76q8 36 18 70l113 338h93l114 -333q12 -38 21 -75q4 28 18 70l116 338h94l-196 -525h-71l-131 380q-7 16 -13 50q-6 -30 -13 -49z" />
    <glyph glyph-name="Ycircumflex" unicode="&#x176;" horiz-adv-x="613" 
d="M306 942l-85 -112h-59l96 171h96l96 -171h-60zM359 308v-308h-100v309l-260 455h116l178 -330q14 -30 16 -37q5 20 16 37l177 330h112z" />
    <glyph glyph-name="ycircumflex" unicode="&#x177;" horiz-adv-x="556" 
d="M278 703l-85 -112h-59l96 171h96l96 -171h-60zM229 -218h-94l92 218l-219 525h104l135 -332q8 -14 33 -107l14 42q1 4 10 31l12 34l137 332h102z" />
    <glyph glyph-name="Ydieresis" unicode="&#x178;" horiz-adv-x="613" 
d="M163 913q0 22 16.5 38.5t39.5 16.5t38.5 -16t15.5 -39q0 -24 -15 -39.5t-39 -15.5t-40 15.5t-16 39.5zM341 913q0 22 16 38.5t39 16.5t39 -16t16 -39q0 -24 -15.5 -39.5t-39.5 -15.5q-23 0 -39 15.5t-16 39.5zM359 308v-308h-100v309l-260 455h116l178 -330
q14 -30 16 -37q5 20 16 37l177 330h112z" />
    <glyph glyph-name="Zacute" unicode="&#x179;" horiz-adv-x="620" 
d="M409 1001l-139 -171h-59l100 171h98zM575 90v-90h-570l381 610q30 46 50 64h-391v90h551l-376 -598q-32 -50 -57 -76h412z" />
    <glyph glyph-name="zacute" unicode="&#x17a;" horiz-adv-x="477" 
d="M338 762l-139 -171h-59l100 171h98zM52 447v78h389l-272 -446h262v-79h-409l270 447h-240z" />
    <glyph glyph-name="Zdotaccent" unicode="&#x17b;" horiz-adv-x="620" 
d="M252 910q0 23 17 40.5t40 17.5t40.5 -17.5t17.5 -40.5q0 -25 -16.5 -41.5t-41.5 -16.5t-41 16.5t-16 41.5zM575 90v-90h-570l381 610q30 46 50 64h-391v90h551l-376 -598q-32 -50 -57 -76h412z" />
    <glyph glyph-name="zdotaccent" unicode="&#x17c;" horiz-adv-x="477" 
d="M181 671q0 23 17 40.5t40 17.5t40.5 -17.5t17.5 -40.5q0 -25 -16.5 -41.5t-41.5 -16.5t-41 16.5t-16 41.5zM52 447v78h389l-272 -446h262v-79h-409l270 447h-240z" />
    <glyph glyph-name="Zcaron" unicode="&#x17d;" horiz-adv-x="620" 
d="M358 833h-96l-96 171h59l85 -112l84 112h60zM575 90v-90h-570l381 610q30 46 50 64h-391v90h551l-376 -598q-32 -50 -57 -76h412z" />
    <glyph glyph-name="zcaron" unicode="&#x17e;" horiz-adv-x="477" 
d="M287 591h-96l-96 171h59l85 -112l84 112h60zM52 447v78h389l-272 -446h262v-79h-409l270 447h-240z" />
    <glyph glyph-name="florin" unicode="&#x192;" horiz-adv-x="556" 
d="M119 476h121l14 67q22 105 63.5 153.5t114.5 48.5q34 0 91 -11l-18 -85q-42 9 -60 9q-43 0 -66 -31q-20 -28 -34 -96l-12 -56h117v-79h-133l-91 -418q-23 -105 -63 -152q-42 -50 -115 -50q-29 0 -91 12l18 84q42 -9 61 -9q42 0 66 31q18 26 33 96l87 406h-103v80z" />
    <glyph glyph-name="AEacute" unicode="&#x1fc;" horiz-adv-x="884" 
d="M541 1001l-139 -171h-59l100 171h98zM800 90v-90h-391v177h-253l-86 -177h-101l383 764h448v-90h-298v-239h298v-88h-298v-257h298zM409 260v440l-212 -440h212z" />
    <glyph glyph-name="Scommaaccent" unicode="&#x218;" horiz-adv-x="616" 
d="M47 215l101 4q1 -69 42 -107t113 -38q68 0 107 33t39 86q0 58 -41 93q-31 26 -119 55q-5 2 -27.5 9.5t-29.5 10t-26 10t-29.5 13.5t-25.5 15t-28 20q-65 53 -65 153q0 94 62 150q63 57 169 57q112 0 178 -60.5t71 -169.5h-100q-18 147 -148 147q-62 0 -99 -34.5
t-37 -89.5q0 -51 34 -83q23 -21 67 -35q127 -44 167 -64q87 -43 114 -110q14 -39 14 -82q0 -89 -70 -151t-179 -62q-112 0 -178.5 60.5t-75.5 169.5z" />
    <glyph glyph-name="scommaaccent" unicode="&#x219;" horiz-adv-x="468" 
d="M44 153h91q6 -88 99 -88q47 0 73 22.5t26 60.5q0 37 -34 55q-2 1 -18 8q-3 1 -10.5 3t-11.5 4l-54 15q-81 24 -118 59.5t-37 94.5q0 64 50 108q49 43 128 43q85 0 132.5 -42.5t47.5 -117.5v-4h-87q-5 86 -89 86q-44 0 -69 -20t-25 -52q0 -33 23 -48t81 -31
q101 -27 129 -50q51 -42 51 -110q0 -72 -50 -116q-52 -46 -137 -46q-90 0 -139.5 43.5t-51.5 122.5zM184 -322l-68 26l92 257l97 -40z" />
    <glyph glyph-name="uni021A" unicode="&#x21a;" horiz-adv-x="507" 
d="M303 674v-674h-99v674h-195v90h489v-90h-195zM212 -320l-61 30l95 267l91 -43z" />
    <glyph glyph-name="uni021B.1" unicode="&#x21b;" horiz-adv-x="315" 
d="M87 109v338h-69v78h69v128h93v-128h89v-78h-89v-327q0 -45 40 -45h49v-88h-52q-71 0 -100.5 28t-29.5 94zM116 -323l-61 30l95 267l91 -43z" />
    <glyph glyph-name="circumflex" unicode="&#x2c6;" horiz-adv-x="500" 
d="M250 703l-85 -112h-59l96 171h96l96 -171h-60z" />
    <glyph glyph-name="caron" unicode="&#x2c7;" horiz-adv-x="500" 
d="M298 591h-96l-96 171h59l85 -112l84 112h60z" />
    <glyph glyph-name="breve" unicode="&#x2d8;" horiz-adv-x="500" 
d="M108 744h53q5 -68 89 -68t89 68h53q-5 -72 -39 -104t-103 -32t-103 32t-39 104z" />
    <glyph glyph-name="dotaccent" unicode="&#x2d9;" horiz-adv-x="500" 
d="M193 671q0 23 17 40.5t40 17.5t40.5 -17.5t17.5 -40.5q0 -25 -16.5 -41.5t-41.5 -16.5t-41 16.5t-16 41.5z" />
    <glyph glyph-name="ring" unicode="&#x2da;" horiz-adv-x="500" 
d="M127 706q0 52 36 88q35 35 87 35q53 0 88 -35q36 -34 36 -88q0 -52 -36 -88t-88 -36t-87 36q-36 36 -36 88zM184 705q0 -28 19 -47t47 -19q27 0 46.5 19t19.5 47q0 27 -19.5 46.5t-46.5 19.5q-28 0 -47 -19t-19 -47z" />
    <glyph glyph-name="ogonek" unicode="&#x2db;" horiz-adv-x="500" 
d="M263 0h40q-67 -59 -67 -108q0 -22 10.5 -30t36.5 -8h41v-70h-42q-110 0 -110 82q0 34 22 65t69 69z" />
    <glyph glyph-name="tilde" unicode="&#x2dc;" horiz-adv-x="500" 
d="M350 727h43q-19 -102 -96 -102q-7 0 -32 5l-47 14q-11 3 -24 3q-30 0 -44 -33h-43q9 48 33.5 74t60.5 26q21 0 29 -4l48 -14q25 -5 26 -5q32 0 46 36z" />
    <glyph glyph-name="hungarumlaut" unicode="&#x2dd;" horiz-adv-x="500" 
d="M306 762l-107 -171h-47l67 171h87zM445 762l-120 -171h-47l81 171h86z" />
    <glyph glyph-name="uni037E" unicode="&#x37e;" 
d="M73 475q0 26 18.5 44.5t44.5 18.5q27 0 45.5 -18t18.5 -45q0 -26 -19 -45t-45 -19t-44.5 19t-18.5 45zM80 -168l-60 30l94 267l92 -43z" />
    <glyph glyph-name="tonos" unicode="&#x384;" horiz-adv-x="500" 
d="M378 762l-139 -171h-59l100 171h98z" />
    <glyph glyph-name="anoteleia" unicode="&#x387;" 
d="M75 368q0 26 19 45t45 19q27 0 45.5 -18.5t18.5 -45.5q0 -26 -19 -45t-45 -19t-45 19t-19 45z" />
    <glyph glyph-name="Omega" unicode="&#x3a9;" horiz-adv-x="836" 
d="M601 82h147v-79h-268v60q152 133 152 305q0 129 -82 193q-58 45 -137 45q-86 0 -153 -77q-60 -69 -60 -161q0 -87 39 -174q43 -95 114 -129v-62h-272v79h147q-57 48 -95 126t-38 161q0 134 96 225q98 93 222 93q141 0 233 -90q90 -90 90 -228q0 -170 -135 -287z" />
    <glyph glyph-name="pi" unicode="&#x3c0;" horiz-adv-x="640" 
d="M399 128v313h-205v-439h-100v439h-70v79h553q1 -7 1 -19v-19v-40h-78v-322q0 -51 39 -51q4 0 6 1q10 0 22 6q6 2 10 6v-67q-9 -10 -34 -17q-19 -5 -38 -5q-26 0 -46 7q-25 7 -36 31q-24 51 -24 97z" />
    <glyph glyph-name="uni0401" unicode="&#x401;" horiz-adv-x="569" 
d="M140 910q0 22 16.5 38.5t39.5 16.5t38.5 -16t15.5 -39q0 -24 -15 -39.5t-39 -15.5t-40 15.5t-16 39.5zM318 910q0 22 16 38.5t39 16.5t39 -16t16 -39q0 -24 -15.5 -39.5t-39.5 -15.5q-23 0 -39 15.5t-16 39.5zM485 90v-90h-397v764h397v-90h-298v-239h298v-88h-298v-257
h298z" />
    <glyph glyph-name="uni0402" unicode="&#x402;" horiz-adv-x="610" 
d="M529 338v-181q-1 -61 -1 -182q0 -6 1 -8v-8q0 -82 -64 -137q-57 -51 -130 -51h-8q-7 0 -9 1v81q49 7 71 20q17 10 31 47q14 31 14 76q-1 55 -1 163v162q0 52 -21 87q-26 44 -76 44q-69 -6 -91 -17q-39 -20 -61 -86q-7 -24 -7 -66q0 -25 1 -38t1 -37q0 -71 1 -106v-106
h-95v597h-77v76q4 4 35 4q15 0 23 -1q7 -1 18 -1v89h95v-89h185v-77h-181q-3 -3 -4 -18q-1 -11 -1 -37q0 -28 1 -41t1 -29q27 22 43.5 33t42.5 21t54 10h20q7 -1 19 -1q5 0 6 1h7q67 -18 104.5 -59.5t51.5 -121.5q1 -2 1 -14z" />
    <glyph glyph-name="uni0403" unicode="&#x403;" horiz-adv-x="481" 
d="M340 1001l-139 -171h-59l100 171h98zM187 671v-671h-99v764h362v-93h-263z" />
    <glyph glyph-name="uni0404" unicode="&#x404;" horiz-adv-x="750" 
d="M707 681l-64 -72q-82 80 -204 80q-118 0 -201 -78q-77 -73 -90 -187h344v-84h-344q13 -116 89 -188q82 -77 202 -77q132 0 209 86l66 -71q-110 -105 -275 -105q-169 0 -277 105q-118 116 -118 292t118 292q108 105 277 105q161 0 268 -98z" />
    <glyph glyph-name="uni0405" unicode="&#x405;" horiz-adv-x="616" 
d="M47 215l101 4q1 -69 42 -107t113 -38q68 0 107 33t39 86q0 58 -41 93q-31 26 -119 55q-5 2 -27.5 9.5t-29.5 10t-26 10t-29.5 13.5t-25.5 15t-28 20q-65 53 -65 153q0 94 62 150q63 57 169 57q112 0 178 -60.5t71 -169.5h-100q-18 147 -148 147q-62 0 -99 -34.5
t-37 -89.5q0 -51 34 -83q23 -21 67 -35q127 -44 167 -64q87 -43 114 -110q14 -39 14 -82q0 -89 -70 -151t-179 -62q-112 0 -178.5 60.5t-75.5 169.5z" />
    <glyph glyph-name="uni0406" unicode="&#x406;" 
d="M187 764v-764h-99v764h99z" />
    <glyph glyph-name="uni0407" unicode="&#x407;" 
d="M-5 910q0 22 16.5 38.5t39.5 16.5t38.5 -16t15.5 -39q0 -24 -15 -39.5t-39 -15.5t-40 15.5t-16 39.5zM173 910q0 22 16 38.5t39 16.5t39 -16t16 -39q0 -24 -15.5 -39.5t-39.5 -15.5q-23 0 -39 15.5t-16 39.5zM187 764v-764h-99v764h99z" />
    <glyph glyph-name="uni0408" unicode="&#x408;" horiz-adv-x="477" 
d="M54 -15h-16v94h20q124 0 182 46q32 25 43 69q7 28 7 102v378h-241v90h340v-507q0 -273 -319 -273h-8q-6 0 -8 1z" />
    <glyph glyph-name="uni0409" unicode="&#x409;" horiz-adv-x="952" 
d="M527 2h-40v675q-5 0 -12 -12q-1 -1 -32 -58l-11 -22q-187 -368 -317 -583h-106l70 124q46 82 67 123q18 32 81.5 149.5t98.5 177.5l45 83q23 42 48 81q6 8 8 13q3 10 5 13h158v-324h39q13 -1 39 -1q11 0 18 1h18q102 0 169 -61q68 -63 68 -168q-2 -50 -22 -88
q-25 -48 -58 -69q-14 -20 -58 -35q-24 -8 -67 -16q-27 -4 -58 -4q-21 0 -32 1h-32h-23q-8 -1 -23 -1q-28 0 -41 1zM591 352v-261h69q74 0 119 24q60 33 60 102q0 53 -32.5 90t-86.5 41q-45 5 -78 5h-25q-9 -1 -26 -1z" />
    <glyph glyph-name="uni040A" unicode="&#x40a;" horiz-adv-x="1103" 
d="M187 349v-349h-99v764h99v-325h401v325h99v-324q114 0 114 1q66 0 108 -17q23 -10 64 -44q59 -54 59 -148q0 -115 -67 -180q-29 -29 -44 -39q-17 -12 -42 -14q-3 -1 -17 -1h-23h-156h-21h-16h-18h-26v2h-14v349h-401zM788 354q-58 0 -75 1q-26 2 -26 -1v-265l95 -2
q166 -4 166 133q0 62 -37 95q-44 39 -123 39z" />
    <glyph glyph-name="uni040B" unicode="&#x40b;" horiz-adv-x="632" 
d="M109 676h-110v84h335v-84h-130v-211q63 70 152 70q92 0 143.5 -60t51.5 -171v-304h-95v295q0 82 -27 120.5t-89 38.5q-136 0 -136 -163v-291h-95v676z" />
    <glyph glyph-name="uni040C" unicode="&#x40c;" horiz-adv-x="655" 
d="M426 1001l-139 -171h-59l100 171h98zM188 292v-292h-100v764h100v-307q0 -13 -2 -51l30 36l280 322h129l-321 -356l-28 -27q10 -4 15 -11q2 -4 5 -7l5 -5l332 -358h-139l-278 307l-9 12q-3 4 -10 12.5t-11 12.5q2 -38 2 -52z" />
    <glyph glyph-name="uni040E" unicode="&#x40e;" horiz-adv-x="613" 
d="M164 983h53q5 -68 89 -68t89 68h53q-5 -72 -39 -104t-103 -32t-103 32t-39 104zM645 761l-369 -764h-102l96 212l-275 552h116l204 -418q5 -7 6 -18t6 -22l8 21l9 19l189 418h112z" />
    <glyph glyph-name="uni040F" unicode="&#x40f;" horiz-adv-x="748" 
d="M575 762h97v-765h-251v-148h-94v148h-250q-1 2 -1 36q-1 21 -1 82v114q-1 43 -1 131v134q-1 66 0 121v95q0 43 1 52h97v-674h403v674z" />
    <glyph glyph-name="uni0410" unicode="&#x410;" horiz-adv-x="727" 
d="M180 177l-68 -177h-106l312 765h83l322 -765h-116l-68 177h-359zM337 574l-122 -307h288l-120 307l-8 23q-6 17 -15 48l-15 -47z" />
    <glyph glyph-name="uni0411" unicode="&#x411;" horiz-adv-x="604" 
d="M187 680v-240h104q107 0 182 -47q90 -57 90 -163q0 -82 -37.5 -131.5t-119.5 -86.5q-29 -12 -76 -14q-21 -2 -42 0h-41q-51 0 -78 1h-80v765h444v-84h-346zM304 88q71 0 112 35q45 39 45 111q0 44 -38 77q-35 29 -86 34q-53 5 -150 5v-261q30 2 59 0q19 -1 58 -1z" />
    <glyph glyph-name="uni0412" unicode="&#x412;" horiz-adv-x="620" 
d="M316 0h-228v764h130q139 0 191 -32q101 -60 101 -175q0 -98 -91 -148q145 -46 145 -195q0 -89 -70 -151q-71 -63 -178 -63zM262 678h-75v-243h82q69 0 106 32t37 89q0 122 -150 122zM292 347h-105v-257h101q174 0 174 129q0 128 -170 128z" />
    <glyph glyph-name="uni0413" unicode="&#x413;" horiz-adv-x="481" 
d="M187 671v-671h-99v764h362v-93h-263z" />
    <glyph glyph-name="uni0414" unicode="&#x414;" horiz-adv-x="731" 
d="M288 768h314v-676h90v-240h-98v149h-483v-39v-49q0 -31 -1 -43q-2 -18 -3 -18h-90v239h55q76 153 124 311q45 146 92 366zM175 92h329v585h-144q-32 -156 -85 -313q-49 -144 -100 -272z" />
    <glyph glyph-name="uni0415" unicode="&#x415;" horiz-adv-x="569" 
d="M485 90v-90h-397v764h397v-90h-298v-239h298v-88h-298v-257h298z" />
    <glyph glyph-name="uni0416" unicode="&#x416;" horiz-adv-x="919" 
d="M887 760l-5 -9l-286 -371l300 -384h-129l-256 341l-2 -341h-98v342l-255 -343h-123l-5 4l299 379l-295 383h122l259 -355v354h96v-356l260 356h118z" />
    <glyph glyph-name="uni0417" unicode="&#x417;" horiz-adv-x="594" 
d="M534 248q13 -115 -56 -185q-66 -67 -184 -69q-100 -8 -173 59q-75 67 -75 164h17q10 0 70 3l13 2q0 -59 40 -99q43 -43 112 -43q61 0 102 44q38 41 38 95q0 59 -45 99q-42 37 -101 37q-9 0 -23 -2q-11 -3 -22 -3q-1 0 -1 11q-1 7 -1 25q0 19 1 30v25h3q13 0 20 -1t19 -1
q55 0 91 29q43 33 43 92q0 65 -45 98q-41 29 -103 29q-52 0 -85 -47q-26 -38 -26 -89h-96q-6 157 151 210q96 32 192 -18q101 -52 107 -142q0 -82 -33 -135q-25 -40 -77 -67q56 -38 78 -60q42 -42 49 -91z" />
    <glyph glyph-name="uni0418" unicode="&#x418;" horiz-adv-x="773" 
d="M221 236l371 528h93v-764h-97v504q0 69 16 137q-12 -38 -48 -89l-387 -552h-81v764h97v-509q0 -51 -19 -121q24 56 55 102z" />
    <glyph glyph-name="uni0419" unicode="&#x419;" horiz-adv-x="773" 
d="M244 975h53q5 -68 89 -68t89 68h53q-5 -72 -39 -104t-103 -32t-103 32t-39 104zM221 236l371 528h93v-764h-97v504q0 69 16 137q-12 -38 -48 -89l-387 -552h-81v764h97v-509q0 -51 -19 -121q24 56 55 102z" />
    <glyph glyph-name="uni041A" unicode="&#x41a;" horiz-adv-x="655" 
d="M188 292v-292h-100v764h100v-307q0 -13 -2 -51l30 36l280 322h129l-321 -356l-28 -27q10 -4 15 -11q2 -4 5 -7l5 -5l332 -358h-139l-278 307l-9 12q-3 4 -10 12.5t-11 12.5q2 -38 2 -52z" />
    <glyph glyph-name="uni041B" unicode="&#x41b;" horiz-adv-x="727" 
d="M337 574l-225 -574h-106l312 765h83l322 -765h-116l-224 574l-8 23q-6 17 -15 48l-15 -47z" />
    <glyph glyph-name="uni041C" unicode="&#x41c;" horiz-adv-x="993" 
d="M182 533l5 -533h-99v764h98l291 -545q14 -24 19 -63q3 34 18 63l290 545h101v-764h-100l7 519q0 40 13 108q-19 -56 -42 -101l-286 -535l-294 549q-26 51 -35 80q14 -51 14 -87z" />
    <glyph glyph-name="uni041D" unicode="&#x41d;" horiz-adv-x="775" 
d="M187 349v-349h-99v764h99v-325h401v325h99v-764h-99v349h-401z" />
    <glyph glyph-name="uni041E" unicode="&#x41e;" horiz-adv-x="891" 
d="M439 -15q-168 0 -277 106q-118 116 -118 291t119 292q108 105 276 105t276 -105q119 -117 119 -292t-118 -291q-109 -106 -277 -106zM438 75q126 0 206 81q88 88 88 226q0 134 -84.5 220.5t-209.5 86.5q-127 0 -209.5 -85t-82.5 -222q0 -138 88 -226q80 -81 204 -81z" />
    <glyph glyph-name="uni041F" unicode="&#x41f;" horiz-adv-x="748" 
d="M584 764h81l1 -779h-100v688h-382l-3 -688h-100l-2 777h178h57q39 0 58 1h114h52q31 0 46 1z" />
    <glyph glyph-name="uni0420" unicode="&#x420;" horiz-adv-x="560" 
d="M187 263v-263h-99v764h163q133 0 211 -70q76 -68 76 -182q0 -110 -74 -179q-75 -70 -194 -70h-83zM250 674h-63v-320h79q81 0 125.5 42t44.5 120q0 158 -186 158z" />
    <glyph glyph-name="uni0421" unicode="&#x421;" horiz-adv-x="750" 
d="M707 681l-64 -72q-82 80 -204 80q-128 0 -208 -85q-85 -88 -85 -222t84 -221q81 -86 209 -86q132 0 209 86l66 -71q-110 -105 -275 -105q-169 0 -277 105q-118 116 -118 292t118 292q108 105 277 105q161 0 268 -98z" />
    <glyph glyph-name="uni0422" unicode="&#x422;" horiz-adv-x="507" 
d="M303 674v-674h-99v674h-195v90h489v-90h-195z" />
    <glyph glyph-name="uni0423" unicode="&#x423;" horiz-adv-x="646" 
d="M645 761l-369 -764h-102l96 212l-275 552h116l204 -418q5 -7 6 -18t6 -22l8 21l9 19l189 418h112z" />
    <glyph glyph-name="uni0424" unicode="&#x424;" horiz-adv-x="859" 
d="M477 98v-97h-99q-2 27 0 51v48q-127 0 -203 32q-93 38 -137 137q-26 53 -26 140q0 135 115 215q103 72 250 70v75q38 2 51 2q16 -1 48 -1v-78q154 6 259 -69q107 -78 107 -216q0 -73 -20 -125q-29 -78 -106 -133q-40 -30 -117 -43q-31 -4 -61 -6zM477 603v-414
q99 -6 171 33q91 49 91 160q0 64 -12 96q-28 74 -105 102q-59 21 -145 23zM377 190v412q-120 0 -188 -48q-75 -53 -75 -155q0 -101 69 -161q74 -64 194 -48z" />
    <glyph glyph-name="uni0425" unicode="&#x425;" horiz-adv-x="660" 
d="M300 268l-181 -268h-113l267 389l-253 375h111l169 -248q24 -38 30 -54q12 29 29 54l170 248h111l-253 -374l266 -390h-112l-182 268q-20 28 -29 54q-8 -23 -30 -54z" />
    <glyph glyph-name="uni0426" unicode="&#x426;" horiz-adv-x="788" 
d="M179 91h401v673h99v-673h89v-239h-92v1q-1 0 -1 2v145h-592v764h96v-673z" />
    <glyph glyph-name="uni0427" unicode="&#x427;" horiz-adv-x="560" 
d="M414 440v323h97v-764h-97v352q-34 -23 -92 -36q-51 -13 -96 -13q-67 0 -116 31q-52 32 -76 91q-9 27 -12 51q-4 28 -2 118q1 28 1 67q0 28 1 39v21v11q-1 2 -1 12v20h102v-271q0 -45 41 -74q37 -27 78 -27q38 0 89 14q56 16 83 35z" />
    <glyph glyph-name="uni0428" unicode="&#x428;" horiz-adv-x="921" 
d="M397 88v674h103v-674h274v674h96l2 -764h-845v764h97v-674h273z" />
    <glyph glyph-name="uni0429" unicode="&#x429;" horiz-adv-x="1081" 
d="M578 766v-673h273v673h98v-673h90v-239h-92l-1 1l-1 2v145h-839v764h96v-673h274v673h102z" />
    <glyph glyph-name="uni042A" unicode="&#x42a;" horiz-adv-x="661" 
d="M212 1h-67v672h-132v88q8 0 17 1q7 0 31.5 0.5t40.5 0.5h45h54q30 0 41 -1v-322q21 -3 38 -2h39q13 0 20 1h19q60 0 113 -23.5t82 -64.5q10 -12 22 -39q12 -26 12 -32v-7q0 -9 3 -16q2 -14 2 -16q-6 -73 -12 -93q-12 -44 -53 -82q-45 -41 -107 -55q-49 -11 -141 -11
q-44 0 -67 1zM243 350v-260h50q16 -1 48 -1q54 0 96 29q52 34 52 85q0 49 -14 80q-19 43 -78 58q-44 10 -105 10h-24q-9 -1 -25 -1z" />
    <glyph glyph-name="uni042B" unicode="&#x42b;" horiz-adv-x="816" 
d="M251 0h-163v764h99v-263h83q119 0 194 -70q74 -69 74 -179q0 -114 -76 -182q-78 -70 -211 -70zM731 761v-759h-92v759h92zM266 410h-79v-320h63q186 0 186 158q0 78 -44.5 120t-125.5 42z" />
    <glyph glyph-name="uni042C" unicode="&#x42c;" horiz-adv-x="560" 
d="M251 0h-163v764h99v-263h83q119 0 194 -70q74 -69 74 -179q0 -114 -76 -182q-78 -70 -211 -70zM266 410h-79v-320h63q186 0 186 158q0 78 -44.5 120t-125.5 42z" />
    <glyph glyph-name="uni042D" unicode="&#x42d;" horiz-adv-x="750" 
d="M115 609l-64 72q107 98 268 98q169 0 277 -105q118 -116 118 -292t-118 -292q-108 -105 -277 -105q-165 0 -275 105l66 71q77 -86 209 -86q121 0 203 77q75 71 88 188h-337v84h337q-13 115 -89 187q-83 78 -202 78q-122 0 -204 -80z" />
    <glyph glyph-name="uni042E" unicode="&#x42e;" horiz-adv-x="1141" 
d="M271 348h-84v-350h-97v764h96v-323h91q14 139 106 235q97 102 262 106q152 -6 260 -116q111 -113 111 -278q0 -159 -94 -271q-107 -128 -302 -129q-136 -1 -230 99q-95 99 -119 263zM913 383q0 124 -76 214q-81 94 -196 94q-112 0 -193 -105q-73 -95 -73 -209
q0 -103 71 -200q75 -102 173 -102q143 0 224 96q70 83 70 212z" />
    <glyph glyph-name="uni042F" unicode="&#x42f;" horiz-adv-x="616" 
d="M377 764h174v-764h-99v311l-272 -311h-125l269 297h-6q-104 0 -166 67q-64 67 -64 168q0 110 74 171t215 61zM380 372h72v302h-67q-195 0 -195 -145q0 -76 48.5 -116.5t141.5 -40.5z" />
    <glyph glyph-name="uni0430" unicode="&#x430;" horiz-adv-x="664" 
d="M501 525h86v-525h-93v86q-66 -93 -190 -93q-113 0 -192 81q-74 77 -74 190q0 122 73 197q74 74 193 74q125 0 197 -96v86zM317 73q81 0 131 54q51 56 51 136q0 81 -51 137q-48 53 -131 53q-80 0 -131 -53t-51 -137t51 -137t131 -53z" />
    <glyph glyph-name="uni0431" unicode="&#x431;" horiz-adv-x="618" 
d="M409 761q18 -23 38 -56q-105 -69 -134 -91q-69 -54 -112 -111q55 20 120 20q107 0 181 -79q72 -78 72 -184q0 -109 -74 -189q-76 -83 -179 -83q-139 0 -215 89q-76 86 -71 209q6 47 11 74q6 28 21 73q46 112 140 193q84 73 202 135zM309 69q75 0 123 54q49 55 49 139
q0 86 -49 141q-48 53 -123 53q-77 0 -127 -55q-53 -56 -53 -140q0 -82 53 -138q49 -54 127 -54z" />
    <glyph glyph-name="uni0432" unicode="&#x432;" horiz-adv-x="515" 
d="M257 2h-179v527h52q17 -1 52 -1q15 0 23 1h23q64 0 110 -26q60 -34 60 -106q0 -58 -28 -86q-19 -22 -27 -25q2 -2 33 -20q25 -14 28 -21q20 -25 26.5 -48t6.5 -60q0 -41 -34 -77q-31 -33 -73 -48q-54 -10 -73 -10zM172 455v-145h52q45 0 66 25q10 13 18 41q1 1 1 8
q0 72 -93 72h-22q-7 -1 -22 -1zM264 233h-92v-154h60q68 -2 95 28q16 16 16 49q0 28 -21 52q-22 25 -58 25z" />
    <glyph glyph-name="uni0433" unicode="&#x433;" horiz-adv-x="356" 
d="M80 535h257l1 -91h-166v-444h-92v535z" />
    <glyph glyph-name="uni0434" unicode="&#x434;" horiz-adv-x="600" 
d="M213 527h252v-449h81v-200h-89v123h-347v-123h-83q-2 8 -3 40q-1 21 -1 70q0 43 2 89h47q67 172 94 266q21 61 25 104q3 25 22 80zM370 79v371h-86q-5 -2 -9 -16q-8 -23 -18 -69l-2 -10t-2 -9.5t-1 -5.5q-39 -146 -66 -217l-8 -21q-6 -9 -8 -23h200z" />
    <glyph glyph-name="uni0435" unicode="&#x435;" horiz-adv-x="625" 
d="M585 239v-7h-452q5 -72 57 -117q51 -45 131 -45q102 0 175 85l67 -54q-97 -114 -245 -114q-130 0 -208 86q-70 76 -70 186q0 125 76 203q74 76 194 76q123 0 199 -81q76 -82 76 -218zM133 306h349q-10 70 -57 109q-47 41 -116 41q-70 0 -118 -42q-51 -43 -58 -108z" />
    <glyph glyph-name="uni0436" unicode="&#x436;" horiz-adv-x="743" 
d="M507 408l95 119h109q-107 -139 -215 -259q58 -77 109 -134q59 -66 114 -132h-58q-19 -1 -59 -1q-9 11 -43 51.5t-52 63.5q-6 7 -95 116v-231h-91v234q-48 -56 -97 -118q-62 -78 -97 -115h-116q61 64 114 132q48 61 110 130l-215 261q3 1 3 2h103q49 -49 101 -119l48 -63
q13 -18 46 -60v242h90v-241q39 49 96 122z" />
    <glyph glyph-name="uni0437" unicode="&#x437;" horiz-adv-x="468" 
d="M202 242q1 3 2 9v19q0 30 -4 38q1 0 2 -1q62 2 90 21t28 60q0 32 -25 52t-69 20q-84 0 -89 -86h-87v4q0 75 47.5 117.5t132.5 42.5q78 0 129 -43q49 -44 49 -108q0 -71 -60 -112q3 -1 23 -16q51 -42 51 -110q0 -72 -50 -116q-52 -46 -137 -46q-90 0 -139.5 43.5
t-51.5 122.5h91q6 -88 99 -88q47 0 73 22.5t26 60.5q0 44 -27 66q-30 22 -104 28z" />
    <glyph glyph-name="uni0438" unicode="&#x438;" horiz-adv-x="579" 
d="M184 184l234 343h87v-524h-90v345q0 22 3 36q3 8 8 38q-9 -23 -15 -34q-7 -9 -17 -27l-245 -358h-76v524h87v-349q0 -14 -3 -28l-2 -7l-2 -8l-6 -21q18 45 37 70z" />
    <glyph glyph-name="uni0439" unicode="&#x439;" horiz-adv-x="579" 
d="M136 762h53q5 -68 89 -68t89 68h53q-5 -72 -39 -104t-103 -32t-103 32t-39 104zM184 184l234 343h87v-524h-90v345q0 22 3 36q3 8 8 38q-9 -23 -15 -34q-7 -9 -17 -27l-245 -358h-76v524h87v-349q0 -14 -3 -28l-2 -7l-2 -8l-6 -21q18 45 37 70z" />
    <glyph glyph-name="uni043A" unicode="&#x43a;" horiz-adv-x="542" 
d="M172 255v-255h-92v526h92v-223l230 222h112l-266 -240l276 -285h-122z" />
    <glyph glyph-name="uni043B" unicode="&#x43b;" horiz-adv-x="560" 
d="M258 363l-144 -363h-103l232 525h76l230 -525h-99l-150 369q-8 21 -19 58q-5 -17 -23 -64z" />
    <glyph glyph-name="uni043C" unicode="&#x43c;" horiz-adv-x="776" 
d="M169 364l5 -367h-93v540h93l197 -350q8 -10 18 -64q3 41 13 60l199 354h94v-540h-93l-1 365l-212 -382z" />
    <glyph glyph-name="uni043D" unicode="&#x43d;" horiz-adv-x="579" 
d="M70 -13v538h92v-231h254v231h93v-538h-93v244h-254v-244h-92z" />
    <glyph glyph-name="uni043E" unicode="&#x43e;" horiz-adv-x="618" 
d="M309 538q117 0 194 -79q76 -79 76 -197q0 -119 -77 -196q-79 -79 -193 -79t-193 79q-77 77 -77 196q0 120 77 197q79 79 193 79zM309 69q75 0 123 54q49 55 49 139q0 86 -49 141q-48 53 -123 53t-123 -54q-49 -55 -49 -140q0 -83 49 -138t123 -55z" />
    <glyph glyph-name="uni043F" unicode="&#x43f;" horiz-adv-x="579" 
d="M416 -13v456h-254v-456h-92v538h439v-538h-93z" />
    <glyph glyph-name="uni0440" unicode="&#x440;" horiz-adv-x="664" 
d="M170 86v-304h-92v743h85v-86q72 96 197 96q119 0 193 -74q73 -75 73 -197q0 -114 -73 -190q-79 -81 -193 -81q-124 0 -190 93zM347 73q80 0 131 53t51 137t-51 137t-131 53q-81 0 -131 -53q-51 -56 -51 -137q0 -80 51 -136q50 -54 131 -54z" />
    <glyph glyph-name="uni0441" unicode="&#x441;" horiz-adv-x="536" 
d="M493 471l-59 -68q-47 53 -124 53q-76 0 -124 -54q-49 -55 -49 -140q0 -83 49 -138q48 -54 124 -54q83 0 128 58l60 -69q-79 -72 -188 -72q-119 0 -193 76q-78 79 -78 199t76 198t195 78q110 0 183 -67z" />
    <glyph glyph-name="uni0442" unicode="&#x442;" horiz-adv-x="493" 
d="M36 460v75h419v-75h-167v-457h-85v457h-167z" />
    <glyph glyph-name="uni0443" unicode="&#x443;" horiz-adv-x="556" 
d="M229 -218h-94l92 218l-219 525h104l135 -332q8 -14 33 -107l14 42q1 4 10 31l12 34l137 332h102z" />
    <glyph glyph-name="uni0444" unicode="&#x444;" horiz-adv-x="749" 
d="M427 -1h-6v-205h-94v203q-89 10 -142 43q-81 48 -118 164q-8 31 -8 79q0 104 81 185q78 76 171 76h16v220h93v-27q-1 -13 -1 -43v-51q0 -66 3 -85q2 -14 4 -14q1 0 1 1h1q109 0 183 -77q77 -84 77 -217q-2 -94 -71 -170q-76 -83 -184 -83q-5 0 -6 1zM327 79v385h-10
q-83 0 -127 -79q-35 -60 -35 -111q0 -125 114 -183q2 -2 25 -8q18 -5 25 -5t8 1zM421 464v-387q65 12 94 30q37 23 57 72q20 38 20 70q0 10 -1 13q-2 8 -2 10q0 1 2 9q1 1 1 8q0 70 -48 120q-52 54 -123 55z" />
    <glyph glyph-name="uni0445" unicode="&#x445;" horiz-adv-x="551" 
d="M278 203l-155 -203h-121l223 270l-213 255h117l146 -193l143 193h123l-214 -257l224 -268h-121z" />
    <glyph glyph-name="uni0446" unicode="&#x446;" horiz-adv-x="610" 
d="M70 -13v538h92v-456h254v456h93v-456h87l1 -196h-89l-1 114h-437z" />
    <glyph glyph-name="uni0447" unicode="&#x447;" horiz-adv-x="517" 
d="M344 306v220h92v-536q-5 -1 -16 -1h-17h-58v236q-69 -26 -130 -26q-74 0 -114.5 45t-40.5 136q0 15 1 22v21v16q-1 3 -1 15q0 23 1 35v36h96q0 -24 -2 -82q-7 -101 24 -142q16 -25 57 -25q27 0 57 10q42 15 51 20z" />
    <glyph glyph-name="uni0448" unicode="&#x448;" horiz-adv-x="790" 
d="M79 -3v538h96v-460h171v461h96v-459q27 -3 71 -3q43 0 101 2v459h96v-538h-631z" />
    <glyph glyph-name="uni0449" unicode="&#x449;" horiz-adv-x="810" 
d="M344 81v459h95v-459h171v459h96v-459h83v-205h-92v127h-620v537h96v-459h171z" />
    <glyph glyph-name="uni044A" unicode="&#x44a;" horiz-adv-x="566" 
d="M500 168q-1 -2 -1 -13q0 -7 1 -9v-9q0 -57 -49 -92q-30 -21 -92 -37q-19 -4 -35 -6q-4 0 -7.5 -0.5t-4.5 -0.5h-1q-105 0 -156 3v447h-93q-2 29 -1 41v37h189v-219h26q8 -1 25 -1q11 0 18 1h16q63 0 113 -39q52 -42 52 -103zM377 95q28 21 28 57q0 55 -42 72
q-23 9 -112 9v-154h33q11 -1 31 -1q38 0 62 17z" />
    <glyph glyph-name="uni044B" unicode="&#x44b;" horiz-adv-x="671" 
d="M591 535v-537h-92v537h92zM82 -1v530h95v-219q22 -3 39 -2q15 1 42 1q50 0 106 -30q32 -19 52 -63q13 -28 13 -62q0 -70 -57 -114q-55 -43 -134 -43q-14 0 -21 1h-21h-22q-8 -1 -23 -1h-16q-7 -1 -22 -1q-13 0 -20 1q-9 0 -11 2zM178 231v-156q7 0 9 1h9h18q5 -1 17 -1
q43 0 69 17q33 21 33 66q0 42 -38 62q-23 12 -71 12h-23q-8 -1 -23 -1z" />
    <glyph glyph-name="uni044C" unicode="&#x44c;" horiz-adv-x="495" 
d="M82 -1v530h95v-219q22 -3 39 -2q15 1 42 1q50 0 106 -30q32 -19 52 -63q13 -28 13 -62q0 -70 -57 -114q-55 -43 -134 -43q-14 0 -21 1h-21h-22q-8 -1 -23 -1h-16q-7 -1 -22 -1q-13 0 -20 1q-9 0 -11 2zM178 231v-156q7 0 9 1h9h18q5 -1 17 -1q43 0 69 17q33 21 33 66
q0 42 -38 62q-23 12 -71 12h-23q-8 -1 -23 -1z" />
    <glyph glyph-name="uni044D" unicode="&#x44d;" horiz-adv-x="536" 
d="M101 401l-59 68q73 67 183 67q119 0 195 -78t76 -198t-78 -199q-74 -76 -193 -76q-109 0 -188 72l60 69q45 -58 128 -58q68 0 117 46q47 43 55 114l-224 2l-1 76h222q-11 69 -56.5 108.5t-112.5 39.5q-77 0 -124 -53z" />
    <glyph glyph-name="uni044E" unicode="&#x44e;" horiz-adv-x="756" 
d="M37 -2v529h94v-218h59q22 102 79 162q65 70 174 70q86 0 148 -45q68 -49 97 -143l8 -40q4 -15 4 -40q0 -110 -51 -182q-26 -38 -86 -77q-15 -9 -30 -13q-20 -5 -30 -11q-13 -6 -63 -6q-81 0 -146 52q-64 50 -89 129q-14 38 -14 55q0 8 1 10h-60v-231q-26 -1 -48 0
q-31 0 -47 -1zM600 266q-6 82 -32 126q-41 66 -132 66q-56 0 -99 -52q-33 -38 -42 -78q-8 -37 -8 -67q0 -51 19 -96q22 -54 70 -77q36 -21 64 -21q76 0 122 63q38 52 38 136z" />
    <glyph glyph-name="uni044F" unicode="&#x44f;" horiz-adv-x="495" 
d="M423 533v-534h-92v215l-186 -214h-119l179 194q-85 7 -128 52q-38 39 -38 107q0 111 73 156q42 25 100 25h163h23q16 0 25 -1zM331 377v87l-72 -1q-131 -2 -131 -100q0 -45 32.5 -72t95.5 -27h33q20 5 32 6q10 1 10 8v16q-1 2 -1 10v11v28q0 21 1 34z" />
    <glyph glyph-name="uni0451" unicode="&#x451;" horiz-adv-x="625" 
d="M168 671q0 22 16.5 38.5t39.5 16.5t38.5 -16t15.5 -39q0 -24 -15 -39.5t-39 -15.5t-40 15.5t-16 39.5zM346 671q0 22 16 38.5t39 16.5t39 -16t16 -39q0 -24 -15.5 -39.5t-39.5 -15.5q-23 0 -39 15.5t-16 39.5zM585 239v-7h-452q5 -72 57 -117q51 -45 131 -45
q102 0 175 85l67 -54q-97 -114 -245 -114q-130 0 -208 86q-70 76 -70 186q0 125 76 203q74 76 194 76q123 0 199 -81q76 -82 76 -218zM133 306h349q-10 70 -57 109q-47 41 -116 41q-70 0 -118 -42q-51 -43 -58 -108z" />
    <glyph glyph-name="uni0452" unicode="&#x452;" horiz-adv-x="593" 
d="M322 -220h-9v82q52 4 72 19q16 12 30 47q15 34 15 76q-2 109 -1 161t-1 161q0 51 -21 86q-26 44 -75 44q-79 0 -120 -50q-36 -42 -36 -97v-305h-93v592h-76v18v26q0 16 1 23q0 10 2 10h72v89h94v-89h184v-76h-48h-61q-37 0 -52 -1q-23 -2 -23 -3v-120q42 32 69 46
q36 17 76 17q127 0 173 -90q29 -52 29 -104v-376q0 -58 -40 -111q-41 -52 -91 -66q-33 -9 -70 -9z" />
    <glyph glyph-name="uni0453" unicode="&#x453;" horiz-adv-x="356" 
d="M277 762l-139 -171h-59l100 171h98zM80 535h257l1 -91h-166v-444h-92v535z" />
    <glyph glyph-name="uni0454" unicode="&#x454;" horiz-adv-x="536" 
d="M491 469l-59 -68q-47 53 -124 53q-67 0 -112.5 -39.5t-56.5 -108.5h222l-1 -76l-224 -2q8 -71 55 -114q49 -46 117 -46q83 0 128 58l60 -69q-79 -72 -188 -72q-119 0 -193 76q-78 79 -78 199t76 198t195 78q110 0 183 -67z" />
    <glyph glyph-name="uni0455" unicode="&#x455;" horiz-adv-x="468" 
d="M44 153h91q6 -88 99 -88q47 0 73 22.5t26 60.5q0 37 -34 55q-2 1 -18 8q-3 1 -10.5 3t-11.5 4l-54 15q-81 24 -118 59.5t-37 94.5q0 64 50 108q49 43 128 43q85 0 132.5 -42.5t47.5 -117.5v-4h-87q-5 86 -89 86q-44 0 -69 -20t-25 -52q0 -33 23 -48t81 -31
q101 -27 129 -50q51 -42 51 -110q0 -72 -50 -116q-52 -46 -137 -46q-90 0 -139.5 43.5t-51.5 122.5z" />
    <glyph glyph-name="uni0456" unicode="&#x456;" horiz-adv-x="250" 
d="M61 700q0 26 19 45t45 19q27 0 45.5 -18.5t18.5 -45.5q0 -26 -19 -44.5t-45 -18.5t-45 18.5t-19 44.5zM171 525v-525h-95v525h95z" />
    <glyph glyph-name="uni0457" unicode="&#x457;" horiz-adv-x="250" 
d="M214 726q23 0 39 -16t16 -39q0 -24 -15.5 -39.5t-39.5 -15.5q-38 0 -51 33q-19 -12 -38 -12t-38 12q-12 -33 -50 -33q-24 0 -40 15.5t-16 39.5q0 22 16.5 38.5t39.5 16.5q17 0 27 -7q6 20 23 32.5t38 12.5q23 0 39.5 -12.5t21.5 -33.5q14 8 28 8zM76 0v525h95v-525h-95z
" />
    <glyph glyph-name="uni0458" unicode="&#x458;" horiz-adv-x="259" 
d="M70 700q0 26 18.5 45t44.5 19q27 0 45.5 -18.5t18.5 -45.5q0 -26 -19 -44.5t-45 -18.5t-44.5 18.5t-18.5 44.5zM85 -54v579h95v-541q0 -104 -37.5 -153t-120.5 -53v85q63 1 63 83z" />
    <glyph glyph-name="uni0459" unicode="&#x459;" horiz-adv-x="790" 
d="M326 537h151v-224q96 13 167 -19q87 -39 87 -132q0 -74 -51 -119q-50 -45 -123 -45h-37h-60q-39 0 -55 1q-24 0 -24 2v456q-63 -88 -139 -227q-23 -40 -65 -118q-35 -65 -63 -113h-103q36 63 80 136q12 19 37.5 64t40.5 69q50 88 77 133q44 73 80 136zM529 234h-51v-157
q67 0 99 9q55 16 55 65q0 62 -53 77q-23 6 -50 6z" />
    <glyph glyph-name="uni045A" unicode="&#x45a;" horiz-adv-x="848" 
d="M70 -13v538h92v-231h254v231h93v-223q83 0 83 1q99 0 145 -43q42 -37 42 -105q0 -82 -47 -129q-36 -36 -85 -38q-2 -1 -12 -1h-16h-203v244h-254v-244h-92zM509 232v-174l66 1q62 1 91.5 21t29.5 65q0 41 -29.5 64.5t-88.5 23.5q-67 0 -69 -1z" />
    <glyph glyph-name="uni045B" unicode="&#x45b;" horiz-adv-x="593" 
d="M80 581h-82v84h82v94h95v-94h158v-84h-158v-116q63 70 152 70q92 0 143.5 -60t51.5 -171v-304h-95v295q0 82 -27 120.5t-89 38.5q-136 0 -136 -163v-291h-95v581z" />
    <glyph glyph-name="uni045C" unicode="&#x45c;" horiz-adv-x="542" 
d="M370 762l-139 -171h-59l100 171h98zM172 255v-255h-92v526h92v-223l230 222h112l-266 -240l276 -285h-122z" />
    <glyph glyph-name="uni045E" unicode="&#x45e;" horiz-adv-x="556" 
d="M136 744h53q5 -68 89 -68t89 68h53q-5 -72 -39 -104t-103 -32t-103 32t-39 104zM229 -218h-94l92 218l-219 525h104l135 -332q8 -14 33 -107l14 42q1 4 10 31l12 34l137 332h102z" />
    <glyph glyph-name="uni045F" unicode="&#x45f;" horiz-adv-x="579" 
d="M333 -13v-115h-86v115h-177v538h92v-456h254v456h93v-538h-176z" />
    <glyph glyph-name="uni0490" unicode="&#x490;" horiz-adv-x="481" 
d="M186 -2h-98v764h280v148h98v-238h-280v-674z" />
    <glyph glyph-name="uni0491" unicode="&#x491;" horiz-adv-x="356" 
d="M337 641v-106l1 -91h-166v-444h-92v535h170v106h87z" />
    <glyph glyph-name="Wgrave" unicode="&#x1e80;" horiz-adv-x="972" 
d="M387 1001h98l100 -171h-59zM463 556l-163 -556h-74l-235 764h105l148 -525q12 -40 20 -95q8 48 19 84l157 536h93l153 -526q1 -10 9 -31q2 -5 4 -14t3 -13l9 -36q5 28 12 50l6 22q3 7 5 21l146 527h101l-228 -764h-84l-165 557q-15 55 -19 85q-7 -38 -22 -86z" />
    <glyph glyph-name="wgrave" unicode="&#x1e81;" horiz-adv-x="843" 
d="M322 762h98l100 -171h-59zM410 381l-130 -381h-69l-197 525h98l115 -332q7 -20 20 -76q8 36 18 70l113 338h93l114 -333q12 -38 21 -75q4 28 18 70l116 338h94l-196 -525h-71l-131 380q-7 16 -13 50q-6 -30 -13 -49z" />
    <glyph glyph-name="Wacute" unicode="&#x1e82;" horiz-adv-x="972" 
d="M585 1001l-139 -171h-59l100 171h98zM463 556l-163 -556h-74l-235 764h105l148 -525q12 -40 20 -95q8 48 19 84l157 536h93l153 -526q1 -10 9 -31q2 -5 4 -14t3 -13l9 -36q5 28 12 50l6 22q3 7 5 21l146 527h101l-228 -764h-84l-165 557q-15 55 -19 85q-7 -38 -22 -86z
" />
    <glyph glyph-name="wacute" unicode="&#x1e83;" horiz-adv-x="843" 
d="M520 762l-139 -171h-59l100 171h98zM410 381l-130 -381h-69l-197 525h98l115 -332q7 -20 20 -76q8 36 18 70l113 338h93l114 -333q12 -38 21 -75q4 28 18 70l116 338h94l-196 -525h-71l-131 380q-7 16 -13 50q-6 -30 -13 -49z" />
    <glyph glyph-name="Wdieresis" unicode="&#x1e84;" horiz-adv-x="972" 
d="M342 910q0 22 16.5 38.5t39.5 16.5t38.5 -16t15.5 -39q0 -24 -15 -39.5t-39 -15.5t-40 15.5t-16 39.5zM520 910q0 22 16 38.5t39 16.5t39 -16t16 -39q0 -24 -15.5 -39.5t-39.5 -15.5q-23 0 -39 15.5t-16 39.5zM463 556l-163 -556h-74l-235 764h105l148 -525
q12 -40 20 -95q8 48 19 84l157 536h93l153 -526q1 -10 9 -31q2 -5 4 -14t3 -13l9 -36q5 28 12 50l6 22q3 7 5 21l146 527h101l-228 -764h-84l-165 557q-15 55 -19 85q-7 -38 -22 -86z" />
    <glyph glyph-name="wdieresis" unicode="&#x1e85;" horiz-adv-x="843" 
d="M277 671q0 22 16.5 38.5t39.5 16.5t38.5 -16t15.5 -39q0 -24 -15 -39.5t-39 -15.5t-40 15.5t-16 39.5zM455 671q0 22 16 38.5t39 16.5t39 -16t16 -39q0 -24 -15.5 -39.5t-39.5 -15.5q-23 0 -39 15.5t-16 39.5zM410 381l-130 -381h-69l-197 525h98l115 -332q7 -20 20 -76
q8 36 18 70l113 338h93l114 -333q12 -38 21 -75q4 28 18 70l116 338h94l-196 -525h-71l-131 380q-7 16 -13 50q-6 -30 -13 -49z" />
    <glyph glyph-name="Ygrave" unicode="&#x1ef2;" horiz-adv-x="613" 
d="M207 1001h98l100 -171h-59zM359 308v-308h-100v309l-260 455h116l178 -330q14 -30 16 -37q5 20 16 37l177 330h112z" />
    <glyph glyph-name="ygrave" unicode="&#x1ef3;" horiz-adv-x="556" 
d="M179 762h98l100 -171h-59zM229 -218h-94l92 218l-219 525h104l135 -332q8 -14 33 -107l14 42q1 4 10 31l12 34l137 332h102z" />
    <glyph glyph-name="endash" unicode="&#x2013;" horiz-adv-x="500" 
d="M500 294v-63h-500v63h500z" />
    <glyph glyph-name="emdash" unicode="&#x2014;" horiz-adv-x="1000" 
d="M1000 294v-63h-1000v63h1000z" />
    <glyph glyph-name="quoteleft" unicode="&#x2018;" 
d="M149 779l67 -26l-91 -257l-98 40z" />
    <glyph glyph-name="quoteright" unicode="&#x2019;" 
d="M95 496l-68 26l92 257l97 -40z" />
    <glyph glyph-name="quotesinglbase" unicode="&#x201a;" 
d="M95 -162l-68 26l92 257l97 -40z" />
    <glyph glyph-name="quotedblleft" unicode="&#x201c;" horiz-adv-x="491" 
d="M149 779l67 -26l-91 -257l-98 40zM362 779l67 -26l-92 -257l-97 40z" />
    <glyph glyph-name="quotedblright" unicode="&#x201d;" horiz-adv-x="491" 
d="M95 496l-68 26l92 257l97 -40zM308 496l-68 26l92 257l97 -40z" />
    <glyph glyph-name="quotedblbase" unicode="&#x201e;" horiz-adv-x="491" 
d="M95 -162l-68 26l92 257l97 -40zM308 -162l-68 26l92 257l97 -40z" />
    <glyph glyph-name="dagger" unicode="&#x2020;" horiz-adv-x="500" 
d="M267 -55h-36q-5 172 -15 275q-10 98 -22 141q27 84 37 175l-163 -34v104l163 -31l-35 204h107l-35 -204l163 31v-104l-164 34q17 -105 38 -175q-26 -112 -38 -416z" />
    <glyph glyph-name="daggerdbl" unicode="&#x2021;" horiz-adv-x="500" 
d="M306 367q-21 -43 -38 -167l163 34v-105l-163 32l36 -204h-107l35 204l-164 -32v105l165 -34q-23 130 -39 168q20 45 38 168l-163 -34v104l163 -31l-36 204h107l-35 -204l164 31v-104l-165 34q23 -131 39 -169z" />
    <glyph glyph-name="bullet" unicode="&#x2022;" horiz-adv-x="590" 
d="M150 372q0 59 43 102q42 42 102 42t102 -42t42 -102t-42 -102q-43 -43 -103 -43q-59 0 -102 43q-42 42 -42 102z" />
    <glyph glyph-name="onedotenleader" unicode="&#x2024;" 
d="M75 51q0 26 19 44.5t45 18.5q27 0 45.5 -18t18.5 -45q0 -26 -19 -45t-45 -19t-45 19t-19 45z" />
    <glyph glyph-name="twodotenleader" unicode="&#x2025;" horiz-adv-x="556" 
d="M75 51q0 26 19 44.5t45 18.5q27 0 45.5 -18t18.5 -45q0 -26 -19 -45t-45 -19t-45 19t-19 45zM353 51q0 26 19 44.5t45 18.5q27 0 45.5 -18t18.5 -45q0 -26 -19 -45t-45 -19t-45 19t-19 45z" />
    <glyph glyph-name="ellipsis" unicode="&#x2026;" horiz-adv-x="1000" 
d="M103 51q0 26 19 44.5t45 18.5q27 0 45.5 -18t18.5 -45q0 -26 -19 -45t-45 -19t-45 19t-19 45zM436 51q0 26 19 44.5t45 18.5q27 0 45.5 -18t18.5 -45q0 -26 -19 -45t-45 -19t-45 19t-19 45zM770 51q0 26 19 44.5t45 18.5q27 0 45.5 -18t18.5 -45q0 -26 -19 -45t-45 -19
t-45 19t-19 45z" />
    <glyph glyph-name="perthousand" unicode="&#x2030;" horiz-adv-x="1252" 
d="M49 517v89q0 63 42 102q41 38 110 38t108 -38t39 -105v-86q0 -63 -41.5 -101t-108.5 -38t-108 38t-41 101zM299 -9h-75l354 755h75zM131 578v-34q0 -97 67 -97q68 0 68 97v34q0 97 -68 97q-67 0 -67 -97zM530 130v89q0 62 42 101q43 38 111 38q69 0 108 -37.5t39 -104.5
v-86q0 -63 -41.5 -101t-108.5 -38t-108.5 38t-41.5 101zM907 130v89q0 62 42 101q43 38 111 38q69 0 108 -37.5t39 -104.5v-86q0 -63 -41.5 -101t-108.5 -38t-108.5 38t-41.5 101zM612 190v-33q0 -97 68 -97q67 0 67 97v33q0 97 -67 97q-68 0 -68 -97zM990 190v-33
q0 -97 67 -97q68 0 68 97v33q0 97 -68 97q-67 0 -67 -97z" />
    <glyph glyph-name="guilsinglleft" unicode="&#x2039;" horiz-adv-x="322" 
d="M64 263l112 194h95l-111 -194l111 -195h-95z" />
    <glyph glyph-name="guilsinglright" unicode="&#x203a;" horiz-adv-x="322" 
d="M258 263l-112 -195h-96l112 195l-112 194h96z" />
    <glyph glyph-name="fraction" unicode="&#x2044;" horiz-adv-x="167" 
d="M-87 -9h-80l421 754h79z" />
    <glyph glyph-name="colonmonetary" unicode="&#x20a1;" horiz-adv-x="536" 
d="M438 128l60 -69q-79 -72 -187 -72v-223h-87v235q-63 18 -107 64q-78 79 -78 199t76 198q46 46 109 66v238h87v-226q109 0 182 -67l-59 -68q-47 53 -123 53v-386q82 0 127 58zM186 124q16 -19 38 -32v342q-22 -13 -38 -32q-49 -55 -49 -140q0 -83 49 -138z" />
    <glyph glyph-name="lira" unicode="&#x20a4;" horiz-adv-x="556" 
d="M486 109l34 -79q-58 -37 -116 -37q-44 0 -83 18l-43 18q-29 12 -57 12q-71 0 -123 -43l-45 71q90 78 108 152h-4v83h2q-3 10 -9 21h-102v65h74q-22 51 -30 70t-17 51.5t-9 56.5q0 81 55.5 129t151.5 48t154 -55q58 -58 58 -149h-96v5q0 54 -32 85t-86 31
q-51 0 -81.5 -27.5t-30.5 -72.5q0 -24 16 -62q11 -29 46 -110h139v-65h-114q3 -7 5 -21h147v-83h-147q-15 -58 -70 -110q57 12 84 12q30 0 81 -17q48 -18 68 -18q34 0 72 21z" />
    <glyph glyph-name="Euro" unicode="&#x20ac;" horiz-adv-x="556" 
d="M108 326v103h-88l16 50h72v35q0 106 63 169q61 63 157 63q133 0 204 -103l-53 -60q-44 82 -151 82q-128 0 -128 -183v-3h252l-16 -50h-236v-103h202l-16 -50h-186v-21q0 -183 128 -183q114 0 157 88l52 -59q-72 -110 -209 -110q-96 0 -157 63q-63 63 -63 169v53h-88
l16 50h72z" />
    <glyph glyph-name="uni2113" unicode="&#x2113;" horiz-adv-x="477" 
d="M248 248l-56 -52q0 -55 19 -84q24 -37 71 -37q63 5 111 60q18 -7 53 -46q-73 -100 -182 -100q-77 0 -119 39q-37 34 -50 107q-17 -8 -26 -15q-5 -4 -27 -16q-10 10 -16 26l-15 30q32 22 40 29q7 6 22.5 16t20.5 14v260q0 105 53 163q44 49 115 51q53 0 93 -38
q31 -32 43 -88q3 -15 2 -24q-1 -8 1 -26q-13 -108 -98 -213q-24 -28 -55 -56zM244 621q-27 -11 -41 -45q-11 -28 -11 -60v-224q54 56 85 106q39 66 39 119q-1 9 -1 32q-2 41 -27 61q-17 11 -44 11z" />
    <glyph glyph-name="uni2116" unicode="&#x2116;" horiz-adv-x="1267" 
d="M987 771q87 0 144 -55q58 -56 58 -139q0 -81 -58 -137q-58 -55 -144 -55q-85 0 -144 55.5t-59 136.5q0 84 59 140q56 54 144 54zM167 503v-504h-97v764h93l371 -528q31 -46 55 -102q-19 70 -19 121v509h97v-764h-81l-387 552q-36 51 -48 89q16 -68 16 -137zM987 442
q56 0 92 38q37 37 37 97q0 59 -37 98q-36 38 -92 38t-92.5 -38t-36.5 -98t36 -97.5t93 -37.5zM1171 291v-65h-364v65h364z" />
    <glyph glyph-name="trademark" unicode="&#x2122;" horiz-adv-x="833" 
d="M193 667h-83v46h228v-46h-82v-219h-63v219zM451 448h-56v265h83l69 -176l65 176h83v-265h-56v209l-78 -209h-29l-81 209v-209z" />
    <glyph glyph-name="estimated" unicode="&#x212e;" horiz-adv-x="796" 
d="M754 369h-557v-248q96 -82 186 -82q104 0 175 48q15 10 28 21.5t30 32.5t21 27t26 35q16 -8 47 -28q-76 -101 -133 -139q-68 -45 -177 -45q-167 0 -263 114q-94 109 -94 269q0 162 100 268q98 104 255 109q160 0 260 -106q100 -107 96 -276zM197 618v-197h400v199
q-96 82 -200 82l-55 -9q-54 -9 -100 -37q-21 -13 -45 -38z" />
    <glyph glyph-name="partialdiff" unicode="&#x2202;" horiz-adv-x="606" 
d="M460 639q73 -114 73 -262q0 -147 -63 -256q-76 -131 -217 -131q-87 0 -147 55q-65 59 -65 157q0 96 62 169q64 75 171 75q53 0 98 -22.5t70 -65.5q0 125 -49 220q-57 110 -160 110q-39 0 -89 -19q-8 -3 -19.5 -7.5t-15.5 -5.5l-8 -4l-27 64q91 47 171 47q136 0 215 -124z
M101 652zM389 141q26 48 45 132q0 23 -25 48q-20 20 -46 36q-44 22 -84 19t-74 -27q-73 -51 -73 -142q0 -144 139 -144q74 0 118 78z" />
    <glyph glyph-name="Delta" unicode="&#x2206;" horiz-adv-x="703" 
d="M288 715h100l291 -662l-2 -53h-2l2 -3l-673 2l4 5v49zM307 537l-184 -461l436 -2l-188 463l-11 22q-4 7 -11 33l-12 39l-20 -71q-4 -14 -10 -23z" />
    <glyph glyph-name="product" unicode="&#x220f;" horiz-adv-x="748" 
d="M584 755h81l1 -906h-100v815h-382l-3 -815h-100l-2 904h178h57q39 0 58 1h114h52q31 0 46 1z" />
    <glyph glyph-name="summation" unicode="&#x2211;" horiz-adv-x="713" 
d="M360 319l-292 366v65h600v-73h-480l275 -355l-294 -375h504v-72h-613v69z" />
    <glyph glyph-name="minus" unicode="&#x2212;" horiz-adv-x="833" 
d="M709 257h-585v83h585v-83z" />
    <glyph glyph-name="uni2215" unicode="&#x2215;" horiz-adv-x="167" 
d="M-87 -9h-80l421 754h79z" />
    <glyph glyph-name="radical" unicode="&#x221a;" horiz-adv-x="574" 
d="M41 331l145 57l126 -380l184 786h74l-215 -893h-73l-149 407l-72 -28z" />
    <glyph glyph-name="infinity" unicode="&#x221e;" horiz-adv-x="762" 
d="M377 285q17 12 43 35q53 45 90 60q23 10 55 10q76 0 116 -47q34 -41 34 -108q0 -54 -43 -103q-47 -52 -106 -52q-54 1 -98 31q-19 12 -43 33q-30 24 -47 39q-49 -49 -88 -73q-52 -31 -105 -31q-62 0 -104 49q-41 48 -41 105q0 61 49 110q45 47 107 47q48 0 99 -33
q34 -22 82 -72zM331 236q-38 41 -59 56q-41 30 -69 30q-40 0 -64.5 -26t-24.5 -63t24 -61t59 -24q33 0 70 25q33 23 64 63zM424 235l31 -30q32 -34 65 -49q21 -8 38 -8q36 0 63 27q24 26 24 59q0 37 -27 64q-26 24 -54 24q-36 0 -76 -28q-24 -17 -64 -59z" />
    <glyph glyph-name="integral" unicode="&#x222b;" horiz-adv-x="356" 
d="M0 -199q3 19 14 71q25 -5 33 -5q41 0 62.5 31t21.5 82q0 120 -5 268t-5 265q0 94 33 159q41 81 126 81q23 0 56 -5l-2 -12q-2 -9 -10 -47q-1 -4 -2 -6t-1.5 -3.5t-3 -1.5h-3t-4.5 1.5t-5 1.5q-14 2 -16 2q-56 0 -72 -86q-9 -47 -9 -127q0 -127 6 -242q5 -132 5 -235
q0 -78 -44 -139q-46 -66 -116 -66q-33 0 -59 13z" />
    <glyph glyph-name="approxequal" unicode="&#x2248;" horiz-adv-x="833" 
d="M370 371q-46 15 -95 15q-79 0 -188 -77v91q103 70 189 70q64 0 143 -29q7 -2 24 -8t24.5 -9t22.5 -7.5t24.5 -6.5t22.5 -3.5t25 -1.5q81 0 185 75v-90q-100 -69 -186 -69q-39 0 -93 17q-44 14 -98 33zM563 233q81 0 185 75v-90q-100 -69 -186 -69q-39 0 -93 17
q-44 14 -98 33q-46 15 -95 15q-79 0 -188 -77v91q103 70 189 70q64 0 143 -29q7 -2 24 -8t24.5 -9t22.5 -7.5t24.5 -6.5t22.5 -3.5t25 -1.5z" />
    <glyph glyph-name="notequal" unicode="&#x2260;" horiz-adv-x="833" 
d="M709 440v-82h-214l-70 -120h284v-81h-331l-89 -154h-80l89 154h-174v81h221l70 120h-291v82h339l91 157h79l-91 -157h167z" />
    <glyph glyph-name="lessequal" unicode="&#x2264;" 
d="M427 351v-11h5v-83h-585v83h390l-385 158v78l575 237v-90l-456 -186z" />
    <glyph glyph-name="greaterequal" unicode="&#x2265;" 
d="M427 498l-385 -158h390v-83h-585v83h5v11l456 186l-456 186v90l575 -237v-78z" />
    <glyph glyph-name="lozenge" unicode="&#x25ca;" horiz-adv-x="494" 
d="M23 330l191 348h54l204 -348l-204 -346h-54zM242 40l165 290l-165 291l-156 -291z" />
    <glyph glyph-name="ff" unicode="&#xfb00;" horiz-adv-x="618" 
d="M283 764v-87h-4q-50 0 -65 -20q-13 -18 -13 -71v-61h82v-78h-82v-447h-95v447h-79v78h79v57q0 94 41 137t136 45zM592 764v-87h-4q-50 0 -65 -20q-13 -18 -13 -71v-61h82v-78h-82v-447h-95v447h-79v78h79v57q0 94 41 137t136 45z" />
    <glyph glyph-name="ffi" unicode="&#xfb03;" horiz-adv-x="868" 
d="M283 764v-87h-4q-50 0 -65 -20q-13 -18 -13 -71v-61h82v-78h-82v-447h-95v447h-79v78h79v57q0 94 41 137t136 45zM592 764v-87h-4q-50 0 -65 -20q-13 -18 -13 -71v-61h82v-78h-82v-447h-95v447h-79v78h79v57q0 94 41 137t136 45zM679 700q0 26 19 45t45 19
q27 0 45.5 -18.5t18.5 -45.5q0 -26 -19 -44.5t-45 -18.5t-45 18.5t-19 44.5zM789 525v-525h-95v525h95z" />
    <glyph glyph-name="ffl" unicode="&#xfb04;" horiz-adv-x="868" 
d="M283 764v-87h-4q-50 0 -65 -20q-13 -18 -13 -71v-61h82v-78h-82v-447h-95v447h-79v78h79v57q0 94 41 137t136 45zM592 764v-87h-4q-50 0 -65 -20q-13 -18 -13 -71v-61h82v-78h-82v-447h-95v447h-79v78h79v57q0 94 41 137t136 45zM789 759v-759h-92v759h92z" />
    <glyph glyph-name="uni021B" horiz-adv-x="315" 
d="M87 109v338h-69v78h69v128h93v-128h89v-78h-89v-327q0 -45 40 -45h49v-88h-52q-71 0 -100.5 28t-29.5 94zM120 -315l-68 26l92 257l97 -40z" />
    </font>
</defs>
</svg>
