<?xml version="1.0" encoding="UTF-8" standalone="no"?>
<!-- Generator: Adobe Illustrator 18.1.1, SVG Export Plug-In . SVG Version: 6.00 Build 0)  -->

<svg
   xmlns:dc="http://purl.org/dc/elements/1.1/"
   xmlns:cc="http://creativecommons.org/ns#"
   xmlns:rdf="http://www.w3.org/1999/02/22-rdf-syntax-ns#"
   xmlns:svg="http://www.w3.org/2000/svg"
   xmlns="http://www.w3.org/2000/svg"
   xmlns:sodipodi="http://sodipodi.sourceforge.net/DTD/sodipodi-0.dtd"
   xmlns:inkscape="http://www.inkscape.org/namespaces/inkscape"
   version="1.1"
   id="Capa_1"
   x="0px"
   y="0px"
   viewBox="0 0 174.239 174.239"
   style="enable-background:new 0 0 174.239 174.239;"
   xml:space="preserve"
   inkscape:version="0.91 r13725"
   sodipodi:docname="close.svg"><metadata
     id="metadata39"><rdf:RDF><cc:Work
         rdf:about=""><dc:format>image/svg+xml</dc:format><dc:type
           rdf:resource="http://purl.org/dc/dcmitype/StillImage" /><dc:title></dc:title></cc:Work></rdf:RDF></metadata><defs
     id="defs37" /><sodipodi:namedview
     pagecolor="#ffffff"
     bordercolor="#666666"
     borderopacity="1"
     objecttolerance="10"
     gridtolerance="10"
     guidetolerance="10"
     inkscape:pageopacity="0"
     inkscape:pageshadow="2"
     inkscape:window-width="1238"
     inkscape:window-height="748"
     id="namedview35"
     showgrid="false"
     inkscape:zoom="1.3544614"
     inkscape:cx="-11.074513"
     inkscape:cy="87.119499"
     inkscape:window-x="0"
     inkscape:window-y="0"
     inkscape:window-maximized="0"
     inkscape:current-layer="Capa_1" /><path
     d="M146.537,1.047c-1.396-1.396-3.681-1.396-5.077,0L89.658,52.849c-1.396,1.396-3.681,1.396-5.077,0L32.78,1.047  c-1.396-1.396-3.681-1.396-5.077,0L1.047,27.702c-1.396,1.396-1.396,3.681,0,5.077l51.802,51.802c1.396,1.396,1.396,3.681,0,5.077  L1.047,141.46c-1.396,1.396-1.396,3.681,0,5.077l26.655,26.655c1.396,1.396,3.681,1.396,5.077,0l51.802-51.802  c1.396-1.396,3.681-1.396,5.077,0l51.801,51.801c1.396,1.396,3.681,1.396,5.077,0l26.655-26.655c1.396-1.396,1.396-3.681,0-5.077  l-51.801-51.801c-1.396-1.396-1.396-3.681,0-5.077l51.801-51.801c1.396-1.396,1.396-3.681,0-5.077L146.537,1.047z"
     id="path3"
     style="fill:#ffffff" /><g
     id="g5" /><g
     id="g7" /><g
     id="g9" /><g
     id="g11" /><g
     id="g13" /><g
     id="g15" /><g
     id="g17" /><g
     id="g19" /><g
     id="g21" /><g
     id="g23" /><g
     id="g25" /><g
     id="g27" /><g
     id="g29" /><g
     id="g31" /><g
     id="g33" /></svg>