<?xml version="1.0" encoding="UTF-8" standalone="no"?>
<!-- Generator: Adobe Illustrator 19.0.0, SVG Export Plug-In . SVG Version: 6.00 Build 0)  -->

<svg
   xmlns:dc="http://purl.org/dc/elements/1.1/"
   xmlns:cc="http://creativecommons.org/ns#"
   xmlns:rdf="http://www.w3.org/1999/02/22-rdf-syntax-ns#"
   xmlns:svg="http://www.w3.org/2000/svg"
   xmlns="http://www.w3.org/2000/svg"
   xmlns:sodipodi="http://sodipodi.sourceforge.net/DTD/sodipodi-0.dtd"
   xmlns:inkscape="http://www.inkscape.org/namespaces/inkscape"
   version="1.1"
   id="Capa_1"
   x="0px"
   y="0px"
   viewBox="0 0 490.651 490.651"
   style="enable-background:new 0 0 490.651 490.651;"
   xml:space="preserve"
   inkscape:version="0.91 r13725"
   sodipodi:docname="left_arrow.svg"><metadata
     id="metadata49"><rdf:RDF><cc:Work
         rdf:about=""><dc:format>image/svg+xml</dc:format><dc:type
           rdf:resource="http://purl.org/dc/dcmitype/StillImage" /><dc:title></dc:title></cc:Work></rdf:RDF></metadata><defs
     id="defs47" /><sodipodi:namedview
     pagecolor="#ffffff"
     bordercolor="#666666"
     borderopacity="1"
     objecttolerance="10"
     gridtolerance="10"
     guidetolerance="10"
     inkscape:pageopacity="0"
     inkscape:pageshadow="2"
     inkscape:window-width="966"
     inkscape:window-height="688"
     id="namedview45"
     showgrid="false"
     inkscape:zoom="0.48099362"
     inkscape:cx="245.3255"
     inkscape:cy="245.3255"
     inkscape:window-x="157"
     inkscape:window-y="40"
     inkscape:window-maximized="0"
     inkscape:current-layer="Capa_1" /><g
     id="g3"
     transform="matrix(-1,0,0,1,490.65,0)"
     style="fill:#ffffff"><g
       id="g5"
       style="fill:#ffffff"><path
         d="M 466.2,237.787 231.533,3.12 c -4.16,-4.16 -10.923,-4.16 -15.083,0 -4.16,4.16 -4.16,10.923 0,15.083 L 443.586,245.318 216.451,472.453 c -4.16,4.16 -4.16,10.923 0,15.083 2.091,2.069 4.821,3.115 7.552,3.115 2.731,0 5.461,-1.045 7.531,-3.115 L 466.2,252.869 c 4.16,-4.16 4.16,-10.922 0,-15.082 z"
         id="path7"
         inkscape:connector-curvature="0"
         style="fill:#ffffff" /></g></g><g
     id="g9"
     transform="matrix(-1,0,0,1,490.65,0)"
     style="fill:#ffffff"><g
       id="g11"
       style="fill:#ffffff"><path
         d="M 274.2,237.787 39.533,3.12 c -4.16,-4.16 -10.923,-4.16 -15.083,0 -4.16,4.16 -4.16,10.923 0,15.083 L 251.586,245.318 24.451,472.453 c -4.16,4.16 -4.16,10.923 0,15.083 2.091,2.069 4.821,3.115 7.552,3.115 2.731,0 5.461,-1.045 7.531,-3.115 L 274.2,252.869 c 4.16,-4.16 4.16,-10.922 0,-15.082 z"
         id="path13"
         inkscape:connector-curvature="0"
         style="fill:#ffffff" /></g></g><g
     id="g15" /><g
     id="g17" /><g
     id="g19" /><g
     id="g21" /><g
     id="g23" /><g
     id="g25" /><g
     id="g27" /><g
     id="g29" /><g
     id="g31" /><g
     id="g33" /><g
     id="g35" /><g
     id="g37" /><g
     id="g39" /><g
     id="g41" /><g
     id="g43" /></svg>